<svg version="1.1" xmlns="http://www.w3.org/2000/svg" viewBox="0 0 1700 320" width="1700" height="320">
  <!-- svg-source:excalidraw -->
  
  <defs>
    <style class="style-fonts">
      @font-face {
        font-family: "Virgil";
        src: url("https://excalidraw.com/Virgil.woff2");
      }
      @font-face {
        font-family: "Cascadia";
        src: url("https://excalidraw.com/Cascadia.woff2");
      }
    </style>
  </defs>
  <rect x="0" y="0" width="1700" height="320" fill="#ffffff"></rect><g stroke-opacity="0.2" fill-opacity="0.2" stroke-linecap="round" transform="translate(10 10) rotate(0 840 150)"><path d="M0 0 C0 0, 0 0, 0 0 M0 0 C0 0, 0 0, 0 0 M-0.07 7.07 C1 3.99, 3.59 3.15, 5.76 0.06 M-0.65 6.65 C0.8 4.51, 2.8 3.28, 5.04 -0.02 M1.59 11.3 C2.91 8.7, 3.42 7.32, 9.89 -0.8 M0.36 11.65 C3.78 8.87, 6.17 5.05, 10.96 0.26 M-0.99 17.48 C5.9 13.33, 11.9 6.38, 16.21 -1.09 M-0.37 18.86 C2.54 14.12, 7.11 11.04, 14.65 -0.54 M1.53 25.25 C4.26 19.24, 12.29 10.4, 19.8 -1.82 M0.33 24.75 C6.58 16.58, 13.79 8.2, 20.64 0.53 M-0.69 32.05 C10.74 19.3, 18.33 10.24, 24.32 1.43 M0.2 31 C8.59 20.29, 15.58 12.48, 25.63 0.63 M0.7 36.41 C11.67 21.54, 22.92 7.57, 33.64 1.6 M-0.34 37.21 C8.27 26.61, 17.15 16.58, 32.65 0.37 M-1.04 40.74 C11.86 30.64, 21.8 14.82, 36.74 0.73 M-0.79 43.27 C14.78 27.63, 27.75 10.79, 36.35 1.03 M0.62 48.27 C14.77 31.72, 31.17 12.43, 41.23 0.57 M-0.18 48.74 C14.19 32.55, 28.17 16.58, 43.48 0.74 M-1.65 54.46 C11.43 43.66, 20.61 31.28, 46.48 -0.67 M0.86 53.74 C10.31 42.08, 20.42 30.53, 48.07 -0.42 M0.03 59.73 C19.65 39.5, 33.91 18.45, 53.1 -1.67 M-0.78 60.17 C19.94 37.08, 40.41 14.25, 54 -0.21 M1.71 68.85 C23.57 39.24, 45.48 16.22, 60.08 -1.27 M-0.79 66.53 C14.02 50.98, 29.6 34.06, 58.06 0.92 M-0.14 71.91 C15.14 56.64, 28.62 39.95, 62.3 0.13 M0.95 73.37 C16.67 51.13, 34.93 30.33, 64.6 -0.05 M1.79 79.25 C22.76 55.4, 43.54 29.82, 67.62 1.38 M-0.25 79.72 C24.98 49.65, 50.25 21.31, 68.56 0.49 M0.54 86.9 C28.92 54.49, 54.85 20.06, 74.43 -0.84 M1.04 84.95 C24.98 55.94, 50.67 27.77, 74.12 -1.09 M1.91 91.25 C28.57 60.38, 56.6 25.24, 80.71 0.73 M0.49 90.95 C29.28 59.02, 58.6 26.12, 79.77 -0.51 M-0.59 98.5 C25.16 65.76, 53.19 38.27, 85.61 -1.42 M-1.11 98.04 C25.66 67.58, 53.06 39.03, 84.91 0.61 M0.57 103.62 C31.72 66.69, 67.03 28.2, 90.49 -0.84 M-0.42 103.35 C27.26 72.22, 54.63 40.08, 90.92 -0.13 M-0.71 111.24 C33.07 71.18, 68.29 31.24, 96.5 1.53 M0.82 110.28 C30.25 73.94, 59.81 40.95, 95.8 0.27 M0.79 115.12 C43.02 66.85, 81.63 20.89, 101.63 -1.95 M-0.33 115.33 C31.81 79.67, 61.56 44.47, 101.2 -0.64 M-1.42 122.86 C28.04 89.14, 53.07 57.98, 106.28 1.11 M-0.83 121.34 C40.74 75.43, 80.87 28.23, 107.08 -0.61 M-0.52 127.26 C37.69 82.5, 80.33 36.56, 110.33 -0.26 M0.22 128.32 C44.88 77.94, 88.96 25.93, 110.78 0.46 M-0.15 135.32 C38 91.86, 77.24 47.05, 118.02 -0.86 M-0.05 134.9 C32.89 95.35, 66.41 57.82, 116.91 -0.55 M0.04 139.2 C27.44 108.42, 57.19 75.07, 122.32 1.53 M-0.86 140.74 C30.42 103.37, 62.28 67.68, 121.82 -0.59 M-0.79 145.56 C35.72 103.97, 77.51 57.82, 127.27 1.16 M1.12 146.4 C40.96 100.98, 79.95 56.01, 126.87 -0.03 M-1.39 154.16 C27.2 119.91, 51.4 90.89, 131.04 1.52 M-0.11 151.64 C33.79 110.43, 69.56 71.29, 133.37 -0.68 M-0.35 160.06 C39.62 109.74, 80.41 63.45, 136.32 -0.9 M-0.92 158.81 C36.52 115.19, 75.17 72.7, 137.12 0.02 M-0.12 163.53 C53.51 102.53, 106.56 46.03, 142.82 1.28 M0.89 164.25 C34.45 125.46, 69.79 85.88, 142.89 0.64 M-0.34 170.71 C36.54 130.03, 76.61 85.04, 149.74 1.28 M-0.18 170.64 C44.23 117.06, 91.43 63.25, 147.81 0.07 M-0.02 175.14 C60.94 106.77, 120.06 35.99, 152.58 -0.78 M0.52 176.48 C49.03 119.56, 100.08 61.24, 154.04 -0.46 M-0.66 183.42 C43.08 132.7, 85.46 84.3, 158.66 1.39 M0.7 183.2 C50 127.37, 98.24 71.18, 159.5 -0.01 M-1.47 190.02 C46.35 133.97, 94.66 80.13, 163.65 -0.25 M0.34 189.94 C48.2 133.87, 97.04 78.16, 165.12 0.58 M0.52 195.43 C48.64 138.93, 97.45 81.48, 170.23 -1.24 M0.03 195.22 C40.48 149.91, 81.29 102.59, 169.06 -0.14 M-0.91 202.09 C37.63 157, 73.04 114.73, 175.42 1.16 M0.01 200.91 C42.6 153.07, 84.42 105.14, 175.4 0.47 M1.32 208.19 C36.51 166.92, 74.22 124.68, 178.69 -1.01 M0.21 206.2 C45.65 154.15, 92.07 102.17, 180.34 0.72 M0.34 214.23 C48.47 160.72, 95.39 104.53, 185.48 1.17 M-0.64 213.77 C54.07 151.07, 107.19 88.58, 185.78 -0.8 M0.59 219.93 C68.38 143.76, 136.45 65.34, 189.92 -0.54 M-0.33 219.28 C69.54 138.87, 139.82 58.18, 190.32 0.67 M0.58 226.78 C61.54 157.65, 117.66 90.71, 197.26 -1.5 M-0.12 225.97 C58.44 158.33, 115.89 91.69, 196.29 0.29 M-1.12 230.57 C48.95 176.93, 95.92 123.41, 200.74 0.72 M-0.39 231.21 C78.97 140.34, 158.49 48.98, 201.05 0.45 M1.58 237.17 C63.86 162.26, 126.91 90.27, 206.33 -0.14 M0.38 237.63 C69.21 160.06, 135.26 83.68, 206.94 -0.48 M-1.25 244.17 C80.92 149.05, 162.53 54.57, 212.91 -0.92 M0.69 243.9 C85.78 146.4, 170.55 50.08, 212.57 -0.52 M0.46 250.77 C58.16 183.4, 117.97 114.25, 216.74 0.74 M0.18 249.77 C82.41 152.11, 167.64 55.64, 217.05 -0.77 M-0.05 256.15 C64.09 183.74, 130.98 108.15, 222.96 -0.65 M0.67 256.13 C53.05 194.72, 107.87 132.91, 222.53 -0.56 M-0.38 262.13 C61.35 193.99, 120.26 125.67, 227.71 -0.77 M-0.42 261.98 C72.52 181.19, 142.87 99.73, 228.65 -0.04 M0.68 267.08 C65.45 191.97, 133.36 115.73, 232.14 -0.76 M0.18 268.03 C59.44 201.28, 117.68 133.36, 233.76 -0.62 M0.93 274.9 C81.42 180.71, 164.72 84.69, 237.64 0.1 M0.52 274.81 C59.13 203.8, 119.78 135.29, 238.38 0.9 M0.91 281.29 C61.78 211.26, 123.5 138.45, 244.29 -0.78 M-0.25 280.91 C81.99 185.16, 163.59 90.81, 244.02 0.5 M-0.41 286.69 C72.03 203.17, 145.29 120.33, 247.95 -0.2 M0.66 286.47 C97.55 173.41, 194.79 60.48, 248.9 0.26 M1.03 292.57 C83.46 194.88, 165.7 97.62, 254.72 0.84 M0.46 292.45 C69.92 212.18, 141.59 130.02, 254.66 0.41 M-0.03 298.96 C69.34 216.69, 141.12 135.75, 260.1 0.24 M0.03 297.89 C62.16 225.96, 125.18 153.11, 258.92 0.18 M2 302.05 C104.3 184.26, 209.79 64.19, 264.27 0.88 M2.42 301.22 C65.99 228.93, 128.72 156.85, 264.82 0.09 M6.57 302.38 C101.64 193.72, 197.54 85.59, 270.11 -0.42 M7.26 302.27 C96.25 200.11, 186.33 97.6, 270.14 0.57 M13.36 301.63 C109.27 188.07, 209.86 73.38, 275.04 -0.17 M13.62 301.81 C80.93 224.7, 147.93 147.44, 275.69 -0.6 M18.91 301.62 C74 236.88, 128.51 171.33, 280.72 1.15 M18.3 302.38 C107.09 197.96, 198.45 94.11, 280.22 0.73 M23.75 301.97 C115.41 196.84, 208 91.07, 287.13 0.25 M23.09 302.87 C111.96 200.95, 200.94 98.18, 286.43 0.02 M28.39 302.82 C83.78 241.26, 136.17 179.33, 290.91 0.88 M28.94 302.08 C118.66 198.46, 209.61 94.22, 291.38 -0.19 M34.84 301.79 C100.07 226.74, 165.1 152.16, 297.57 -0.94 M34.26 302.71 C134.28 187.99, 233.66 73.45, 297.05 -0.74 M40.17 302.67 C115.13 214.59, 189.05 129.19, 301.69 -0.23 M39.09 301.65 C134.17 195.6, 228.43 87.39, 301.87 -0.33 M43.78 302.63 C135.4 199.94, 226.4 94.15, 308.22 -0.06 M44.61 302.34 C108.68 229.13, 172.23 155.66, 307.86 -0.31 M50.66 302.39 C137.71 202.67, 223 103.01, 312.66 0.52 M50.07 302.05 C108.5 233.54, 167.69 165.32, 312.18 -0.24 M56.04 302.46 C147.02 193.15, 242.46 85.82, 317.83 -1.38 M55.67 301.91 C127.52 220.91, 198.71 138.48, 317.7 -0.5 M59.96 302.04 C163.1 184.72, 265.04 66.01, 323.14 -0.45 M60.64 302.14 C143.25 205.15, 226.52 109.15, 323.37 -0.04 M65.52 302.02 C161.16 191.47, 257.78 83.67, 330 -0.11 M66.11 301.95 C169.49 185.62, 271.5 68, 329.12 -0.14 M70.76 301.65 C129.01 233.14, 188.63 165.95, 333.35 -0.47 M70.95 301.5 C131.97 234.56, 191.03 165.66, 334.21 0.05 M76.02 301.49 C150.93 219.88, 223.32 135.03, 338.43 0.59 M76.88 301.79 C178.56 184.61, 280.99 67.62, 339.84 -0.18 M82.61 302.38 C183.93 183.24, 286.98 63.98, 345.49 -0.88 M82.03 302.11 C154.87 218.25, 227.22 135.46, 344.06 0.2 M86.56 301.59 C183 191.82, 279 80.13, 350.06 0.56 M87.22 302.26 C149.56 230.65, 212.68 157.44, 349.45 -0.1 M93.14 300.83 C184.62 195.14, 276.42 90.44, 355.83 0.93 M92.89 302.16 C150.28 236.62, 205.58 172.54, 355.63 0.47 M97.03 302.45 C193.77 195.08, 287.23 86.64, 359.35 0.76 M97.47 301.84 C201.95 180.97, 307.32 60.53, 360.36 0.78 M103.65 301.53 C195.15 195.67, 285.06 90.65, 364.91 -0.92 M103.37 302.24 C187.3 206.88, 269.28 111.81, 365.42 0.23 M109.31 302.5 C188.77 209.45, 269.95 114.65, 370.46 -0.15 M108.55 301.7 C182.44 216.91, 257.01 130.21, 371.02 0.44 M113.48 302.18 C203.51 199.47, 292 98.37, 376.4 0.66 M113.62 301.38 C187.43 216.73, 261.38 132.66, 376.7 -0.18 M119.35 301.85 C207.33 199.11, 295.27 98.94, 380.55 1.4 M119.1 301.73 C171.48 238.79, 225 176.97, 381.38 0.83 M125.68 301.6 C197.33 219.66, 268.23 137.84, 386.92 -0.25 M124.61 302.19 C213.19 199.29, 302.2 96.14, 386.52 0.05 M129.64 301.13 C210.14 212.12, 288.28 121.07, 391.62 -0.11 M129.46 302.26 C190.88 230.24, 252.99 159.52, 391.65 0.03 M134.53 300.86 C241.04 181.27, 346.06 62.45, 398.46 -1.11 M135.31 301.18 C225.16 197.4, 315.77 93.37, 397.55 -0.7 M141.27 302.69 C223.46 208.72, 304.31 116.23, 402.56 -0.02 M139.94 302.36 C227.81 201.94, 314.8 101.75, 402.89 -0.3 M144.15 302.89 C240.92 192.4, 339.2 81.49, 408.24 -1.08 M144.89 302.55 C217.24 217.64, 291.99 132.58, 408.53 -0.2 M150.53 302.61 C211.95 232.33, 272.74 163.42, 412.6 -0.48 M150.28 301.53 C208.55 232.19, 267.27 164.57, 413.05 -0.06 M156.4 301.55 C240.49 205.32, 323.59 106.24, 418.88 0.06 M155.89 302.19 C249.39 196.86, 342.68 89.86, 419.3 0.24 M161.37 300.92 C256.09 193.91, 351.38 83.41, 424.61 -0.27 M161.37 302.52 C246.04 204.68, 331.75 106.38, 424.29 -0.1 M165.82 303.14 C219.09 242.22, 274.06 180.62, 430.44 0.86 M166.33 302.89 C243.77 213.56, 321.66 124.03, 429.13 -0.24 M172.96 302.74 C266.36 194.03, 363.3 83.9, 435.02 -0.44 M172.35 301.76 C229.19 237.64, 286.33 170.69, 434.54 0.52 M176.95 301.87 C243.57 223.2, 312.56 143.53, 439.35 -0.74 M177.41 301.8 C249.5 221.15, 320.84 139.65, 440.66 -0.4 M183.05 301.26 C274.76 198.67, 363.35 94.07, 446.19 -0.94 M182.39 302.29 C278.08 192.78, 372.87 82.98, 444.81 -0.46 M186.7 302.1 C275.31 203.47, 360.69 102.32, 450.81 0.54 M187.79 301.82 C284.39 193.22, 380.67 83.48, 450.33 -0.79 M193.67 301.55 C285.95 197.16, 376.31 91.7, 456.27 0.55 M193.46 301.96 C247.69 242.47, 300.95 181.24, 455.28 -0.06 M199.1 301.41 C290.92 195.59, 385.08 87.99, 461.85 0.34 M198.67 302.08 C274.29 214.25, 350.55 125.84, 461.33 0.14 M203.17 301.32 C277.74 217.17, 352.99 132.39, 467.08 0.65 M204.13 301.87 C266.36 226.86, 330.68 152.79, 466.95 0.3 M208.27 302.99 C279.03 222.69, 349.71 141.05, 470.82 0.16 M208.67 301.84 C286.29 214.92, 363.11 127.25, 471.11 0.62 M214.2 301.08 C319.22 181.61, 421.8 62.38, 476.25 0.49 M214.66 301.29 C317.12 186.75, 419.15 70.14, 476.58 -0.06 M219.95 303.25 C301.22 207.83, 383.51 113.9, 481.19 0.86 M220.11 302.21 C279.01 231.25, 340.64 161.06, 482.48 -0.15 M225.71 300.74 C327.24 185.79, 427.16 69.63, 487.35 0.06 M225.29 301.61 C327.81 183.4, 430.53 64.32, 487.41 -0.56 M230.02 301.96 C315.31 206.87, 398.2 112.07, 491.91 -0.62 M230.47 302.2 C310.5 208.89, 391.49 115.43, 492.29 -0.24 M236.39 300.79 C312.16 212.02, 388.87 122.24, 497.45 -0.67 M235.71 301.29 C289.74 239.03, 344.73 174.91, 498.45 0.12 M241.42 301.15 C296.84 237.92, 353.27 171.65, 503.48 0.34 M240.91 302.65 C330.22 199.76, 418.98 98.07, 503.71 0.25 M245.83 301.12 C305.46 232.49, 364.48 164.1, 509.61 -0.61 M246.71 302.01 C313.58 224.11, 380.7 146.7, 508.4 0.04 M251.74 301.67 C341.97 196.78, 432.79 93.54, 513.85 -0.15 M251.16 302.29 C322.56 221.49, 393.72 140.59, 513.68 0.52 M257.18 302.91 C311.9 236.64, 370.9 170.12, 520.35 -0.96 M256.73 302.15 C342.57 201.31, 430.24 100.97, 519.64 0.24 M261.14 302.14 C350.93 202.16, 437.96 100.27, 524.11 0.27 M262.36 301.72 C336.5 217.75, 408.43 134.2, 524.78 -0.37 M267.4 302.25 C361.22 193.01, 457.29 85.06, 529.95 0.45 M267.3 302.19 C348.17 209.74, 430.83 115.08, 529.73 -0.35 M273.49 302.24 C325.2 239.85, 379.81 177.6, 535.07 -0.08 M273.09 301.66 C340.75 224.67, 408.57 147.07, 535.62 0.48 M278.01 302.56 C355.88 212.65, 435.59 121.74, 541.2 -0.98 M277.39 301.93 C343.49 226.78, 407.73 153.69, 541.02 0.18 M283.87 301.67 C357.85 215.89, 434.11 128.46, 546.17 1.12 M283.34 302.44 C372.02 199.58, 461.71 96.54, 545.95 0.18 M287.5 301.4 C374.33 203.84, 459.14 105.96, 551.56 0.25 M288.9 302.54 C357.71 222.8, 424.8 144.45, 551.06 -0.64 M293.35 301.23 C376.2 209.16, 459.3 112.99, 556.56 -0.09 M293.95 302.26 C392.46 189.3, 491.62 75.06, 556.05 -0.36 M298.64 301.39 C367.03 220.82, 438.41 139.95, 561.05 0.65 M298.64 302.23 C365.82 226.59, 433.19 148.65, 562.19 -0.03 M305.56 301.69 C385.51 209.73, 464.93 119.85, 566.26 0.82 M304.88 302.29 C369.48 228.16, 434.61 153.19, 567.35 -0.32 M310.53 302.33 C366.12 238.21, 421.29 173.93, 573.37 0.03 M310.16 302.47 C366.36 235.14, 423.53 168.94, 573.06 -0.71 M314.22 302.71 C385.03 217.32, 458.14 134.76, 577.31 -0.13 M315.82 301.62 C408.12 192.55, 501.94 84.27, 577.28 0.4 M319.77 302.27 C425.31 184.17, 529.07 63.1, 582.84 1.27 M320.82 301.78 C400.76 209.5, 479.22 118.54, 583.08 0.56 M326.97 301.62 C418.74 195.05, 509.26 89.02, 588.06 -0.73 M325.58 302.29 C414.47 198.61, 504.38 94.64, 587.83 -0.5 M330.57 303.25 C413.24 210.3, 491.45 117.67, 593.94 -0.76 M331.34 301.92 C420.23 198.2, 510.39 95.12, 593.32 0.42 M337.01 301.42 C404.95 227.37, 470.56 150.26, 598.88 -0.46 M336.09 301.98 C431.09 192.68, 524.22 83.82, 599.24 -0.36 M342.39 303.28 C435.52 193.93, 532.11 81.48, 604.98 0.18 M341.88 301.7 C434.44 198.19, 526.15 92.74, 604.31 0.73 M346.91 302.82 C399.11 242.21, 452.68 179.69, 608.73 0.61 M347.29 301.34 C451.09 181.96, 554.74 64.3, 609.51 -0.03 M353.26 302.07 C420.44 224.21, 488.44 144.26, 614.08 -0.68 M352.57 302.07 C407.19 241.57, 462.3 178.6, 614.67 0.5 M358.4 300.87 C409.62 241.9, 463.42 178.88, 620.84 0.68 M357.69 302.31 C451.14 193.91, 544.72 86.14, 620.56 0.06 M363.23 302.17 C417.29 237.72, 473.51 173.65, 624.19 0.95 M362.98 302.14 C462.69 188.75, 562.14 73.85, 625.54 0.57 M368.97 301.89 C471.4 186.24, 571.49 70.88, 630.25 -0.36 M368.34 301.88 C471.39 182.65, 574.12 65.36, 630.95 -0.67 M373.21 300.97 C453.1 210.95, 530.96 119, 635.17 -0.86 M373.82 302.01 C425.81 239.64, 480.71 176.86, 635.53 -0.32 M379.19 302.77 C444.09 226.34, 507.5 152.07, 640.78 0.2 M378.21 302.48 C474.7 192.73, 568.67 84.71, 642.01 -0.06 M383.85 300.98 C477.33 197.33, 569.38 92.15, 647.18 -0.71 M384.06 302.24 C438.18 237.9, 492.09 175.46, 646.92 0.68 M389.59 302.65 C444.64 240.2, 500.81 177.89, 652.6 -0.05 M388.52 302.72 C481.81 194.4, 575.57 85.91, 651.71 -0.66 M394.38 301.82 C454.86 232.04, 515.85 161.32, 657.29 1.09 M394.95 302.09 C491.53 190.8, 589.03 78.78, 657.15 -0.23 M400.21 301.77 C473.06 218.35, 545 135.18, 663.35 -0.71 M399.35 302.49 C506.08 180.92, 610.7 60.4, 663.08 -0.01 M406.07 301.44 C503.43 190.24, 600.46 78.78, 667.37 -0.29 M404.88 302.42 C475.61 220.51, 546.95 139.54, 667.34 -0.47 M409.73 301.88 C504.97 193.41, 602.03 84.42, 673.8 0.3 M410.58 302.8 C495.73 203.6, 582.64 103.36, 673.48 -0.35 M416.49 301.7 C478.98 232.17, 541.23 160.63, 678.51 0.47 M415.65 301.66 C506.8 198.63, 598.19 93.86, 678.33 0.43 M420.57 301.29 C520.21 192.64, 616.78 79.51, 684.45 -1.17 M420.67 302.5 C507.13 204.73, 593.13 106.37, 684.24 -0.07 M427.49 302.76 C489.59 228.33, 554.37 152.02, 689.78 -0.37 M426.21 302.11 C487.69 232.87, 546.65 163.41, 688.95 0.27 M430.91 302.83 C510.48 211.84, 589.38 120.47, 694.41 -0.81 M431.75 302.34 C532.22 187.64, 633.05 72.02, 694.41 0.03 M437.26 301.91 C508.16 222.5, 577.87 140.7, 699.46 -0.91 M437.76 301.36 C490.47 237.76, 545.89 174.39, 700.02 0.37 M442.61 301.42 C537.75 188, 634.86 77.98, 704.12 0.2 M442.27 302.04 C501.72 234.38, 561.36 166.47, 704.06 0.36 M448.24 301.56 C526.98 206.54, 609.76 113.76, 710.64 0.73 M447.53 302.01 C543.49 189.46, 640.53 78.43, 710.36 -0.61 M453.33 303.24 C524.41 221.49, 594.7 139.8, 714.61 0.09 M453.21 302.08 C507.67 240.57, 561.65 177.93, 715.23 0.04 M459.23 301.24 C520.66 227.07, 585.53 152.56, 721.06 0.75 M458.42 301.97 C526.41 224.72, 592.77 146.6, 720.76 -0.47 M464.41 302.01 C543.82 211.94, 624.05 120.31, 726.93 -0.07 M462.97 301.92 C515.37 240.29, 568.33 180.01, 726.3 -0.22 M468.74 301.02 C543.7 214.64, 618.22 129.07, 731.02 -0.15 M469.34 301.85 C522.65 239.6, 576.08 179.11, 731.15 0.32 M472.96 302.77 C546.57 221.14, 616.51 140.97, 736.85 -0.58 M473.68 301.77 C556.13 204.99, 639.49 109.02, 736.26 0.51 M480.7 302.68 C556.48 214.2, 631.64 129.59, 742.24 -0.12 M479.19 302.13 C535.36 238.61, 592.23 172.9, 742.32 0.3 M484.33 302.6 C578.85 191.67, 674.3 79.83, 746.69 1.09 M484.85 301.97 C586.67 185.08, 688.31 69.37, 746.97 0.2 M489.04 302.49 C557.71 225.34, 624.26 146.09, 752.25 0.37 M490.17 302.23 C559.91 220.53, 631.83 138.25, 753.05 -0.16 M495.1 303.1 C570.71 217.18, 646.85 131.52, 757.35 0.09 M495.17 302.44 C564.41 221.94, 633.67 142.38, 757.96 0.11 M499.59 302.94 C569.77 222.34, 638.89 143.06, 764.48 -0.27 M500.8 302.53 C559.6 231.31, 620.72 161.14, 762.98 -0.5 M505.56 302.45 C590.03 203.5, 677.84 104.7, 769.48 1.18 M506.43 302.14 C592.4 200.36, 680.81 99.27, 768.24 -0.35 M511.42 302.53 C588.54 211.31, 666.97 121.05, 773.68 0.85 M510.42 302.76 C597.52 202.96, 685.45 103.42, 774.25 -0.6 M516.28 301.09 C591.99 216.59, 663.81 131.44, 780.06 -0.54 M516.15 301.85 C572.45 238.72, 626.48 175.76, 779.04 0.36 M520.6 302.95 C581.21 234.69, 639.66 168.1, 785.02 -1.3 M521.3 302.86 C597.34 216.71, 672.18 131.06, 784.22 -0.19 M527.02 302.82 C615.99 199.39, 705.39 96.52, 790.33 -0.33 M527.24 301.4 C586.22 233.65, 645.07 166.21, 789.9 -0.32 M531.97 301.92 C595.02 229.21, 659.28 154.86, 794.96 -0.45 M531.74 302.08 C629.83 189.05, 727.31 76.17, 795.04 -0.55 M537.83 302.37 C638.89 185.65, 740.56 67.18, 800.16 -0.87 M538.34 302.44 C629.35 198.26, 720.43 92.77, 800.33 0.59 M542.21 303.37 C597.7 241.59, 651.06 177.99, 805.89 -0.55 M542.28 301.82 C638.39 190.38, 734.63 79.51, 806.29 -0.53 M547.93 302.39 C631.62 205.3, 716.26 107.83, 811.38 0.28 M548.93 302.26 C617.2 222.84, 686.89 142.7, 810.43 -0.29 M554.51 302.7 C635.82 207.83, 716.73 114.27, 815.35 -0.25 M552.91 302.74 C606.99 238.35, 660.64 176.65, 816.06 0.21 M559.11 300.96 C640.69 204.02, 725.95 109.15, 822.18 0.42 M558.78 302.26 C639.27 210.45, 716.53 120.93, 821.4 0.31 M563.87 301.55 C619.81 239.78, 674.7 176.23, 826.51 0.6 M563.58 302.01 C645.37 207.76, 725.84 114.26, 826.35 -0.09 M570.05 301.84 C667.82 190.74, 764.85 77.37, 832.74 -0.34 M569.61 301.72 C645.43 215.84, 720.1 129, 831.6 0.45 M574.08 302.08 C649.22 214.44, 725.6 125.66, 836.37 -0.09 M574.84 301.75 C644.18 219.22, 715.14 138.53, 837.51 -0.22 M579.75 301.94 C672.88 195.15, 768.18 86.62, 841.86 -0.19 M580.04 301.76 C659.28 209.74, 738.41 118, 842.79 0.31 M585.27 301.35 C640.56 240, 696.23 176.07, 848.53 0.45 M584.92 301.68 C678.73 193.26, 772.75 85.05, 847.94 0.43 M590.9 301.58 C684.97 193.96, 780.57 82.82, 852.58 0.96 M590.65 301.42 C682.34 196.09, 772.33 92.99, 853.89 -0.64 M595.05 301.51 C690.68 196.18, 782.73 87.1, 857.85 0.47 M596.03 301.95 C655.04 236.44, 713.68 167.93, 858.62 -0.2 M601.96 301.03 C697.02 190.61, 794.56 81.18, 864.29 0.34 M601.16 301.56 C662.03 231.95, 723.43 161.97, 863.79 0.35 M606.41 301.83 C705.28 192.48, 801.38 80.16, 869.67 -0.69 M606.98 302.58 C710.3 183.26, 812.16 65.43, 869.08 0.48 M612.15 302.46 C702.39 197.97, 793.35 93.52, 873.86 0.27 M611.49 302.8 C694.4 207.62, 778.28 111.2, 874.23 -0.32 M617.57 302.16 C681.37 230.68, 743.86 157.52, 880.57 0.84 M617.11 301.77 C710.89 193.28, 804.46 86.15, 879.12 0.15 M623 303.48 C721.15 189.95, 820.49 75.64, 885.79 0.21 M622.63 302 C720.13 189.37, 819.57 75.3, 885.79 -0.76 M627.57 301.75 C681.57 239.74, 736.57 178.74, 890.84 0.98 M628.04 302.1 C707.57 210.25, 786.79 119.48, 890.55 0.02 M633.2 302.82 C722.65 200.18, 811.42 97, 895.3 0.17 M633.37 302.9 C715.61 206.12, 797.44 111.39, 896.23 0.27 M637.51 302.67 C706.86 224.31, 775.49 144.24, 901.05 0.15 M638.55 302.06 C739.3 186.92, 838.78 71.76, 900.89 -0.25 M642.42 302.95 C750.15 181.69, 855.47 61.52, 907.49 -0.41 M643.38 302.45 C711.12 223.28, 778.97 145.52, 906.67 -0.69 M649.31 301.87 C709.82 230.9, 770.05 160.73, 910.97 -0.1 M649.66 302.28 C705.37 237.39, 762.27 170.65, 911.9 0.28 M654.01 302.94 C741.46 201.12, 830.28 99.75, 918.16 0.7 M654.33 302.28 C723.86 223.07, 793.53 143.63, 917.67 0.15 M660.12 301.38 C743.35 207.35, 825.48 113.53, 922.9 -0.52 M659.56 301.54 C720.32 233.62, 780.6 164.72, 922.23 -0.12 M664.86 301.85 C724.92 235.23, 782 169.43, 928.52 0.64 M664.76 302.44 C721.45 238.05, 777.82 173.06, 927.53 -0.36 M670.2 302.65 C754.92 202.3, 841.89 104.53, 933.8 -0.71 M670.96 301.91 C748.77 213, 824.5 125.67, 932.5 0.37 M675.51 302.1 C758.27 205.77, 842.12 109.47, 938.82 0.12 M675.17 302.04 C757.81 206.83, 841.93 110.63, 937.82 0.34 M681.84 300.87 C746.66 224.45, 814.75 146.85, 943.2 -0.32 M681.47 301.34 C750.38 221.96, 820.65 141.06, 943.59 -0.26 M686.85 301.58 C792.5 180.85, 896.65 59.12, 947.65 -0.77 M686.35 302 C741.85 236.74, 798.8 170.9, 948.69 0.19 M691.37 302 C779.55 198.62, 867.53 97.63, 954.31 -0.15 M692.08 302.2 C769.92 213.68, 845.76 124.8, 953.85 -0.45 M696.63 301.54 C755.14 234.93, 815.87 165.44, 958.15 0.92 M696.54 302.28 C765.34 220.48, 835.95 140.31, 958.89 -0.23 M701.68 301.2 C792.5 199.69, 880.27 96.38, 963.85 -1 M702.08 301.61 C774.17 216.01, 848.15 131.53, 964.15 -0.21 M707.46 303.23 C776.11 219.33, 848.53 137.4, 970.45 -0.04 M707.62 302.42 C776.01 223.06, 844.51 145.74, 970.05 -0.05 M711.97 302.1 C788.85 211.92, 866.65 122.09, 974.53 -0.3 M713 302.22 C769.4 233.28, 828.05 166.71, 975.07 -0.53 M718.84 302.22 C821.92 185.09, 923.75 65.78, 979.88 0.77 M717.82 302.12 C801.04 209.22, 881.06 116.07, 979.85 -0.26 M722.8 302.86 C821.75 188.24, 921.94 73.4, 987.06 -0.03 M722.9 302.23 C796.36 217.88, 871.55 132.3, 986.34 -0.52 M728.31 303.1 C819.43 196.51, 910.64 92.7, 991.71 0.38 M729.02 301.77 C823.81 193.84, 917.66 85.81, 990.5 0.31 M733.03 303.31 C787.47 242.38, 842.95 180, 996.8 -1.05 M734.04 301.95 C812.37 209.62, 892.71 116.81, 996.25 -0.32 M739.37 302.55 C818.42 213.58, 896.14 122.66, 1001.88 0.87 M739.4 301.94 C811.32 218.67, 884.22 135.92, 1001.34 -0.17 M743.81 301.58 C838.19 192.58, 931.89 86.8, 1006.22 0.29 M743.89 302.13 C826.48 209.79, 907.91 116.07, 1006.77 -0.44 M749.04 301.73 C830.21 208.73, 910.58 115.14, 1011.72 -0.76 M749.7 301.62 C841.92 193.78, 935.35 85.53, 1011.72 -0.22 M755.56 303.47 C818.36 228.23, 884 154.58, 1016.94 -0.3 M755.08 302.63 C858.17 184.37, 960.8 66.15, 1017.32 -0.15 M760.28 302.94 C820.2 234.2, 880.34 164.04, 1022.3 -0.17 M760.37 302.26 C817.86 235.66, 876.52 167.71, 1022.69 -0.24 M766.17 301.81 C827.44 229.62, 891.78 155.35, 1028.63 -0.34 M765.16 302.62 C823.5 233.53, 881.64 166.33, 1028.72 -0.23 M771.85 301.64 C829.36 235.43, 887.43 169.23, 1033.29 -0.42 M770.98 301.46 C857.72 203.57, 943.32 105.11, 1033.01 0.4 M776.66 302.37 C872.84 189.43, 969.35 78.22, 1040.1 -0.77 M776.17 302.26 C869.16 195.48, 962.23 88.34, 1039.24 -0.19 M781.63 301.22 C842.49 232.44, 901.96 164.28, 1044.1 0.52 M781.95 301.5 C844.64 231.76, 906.96 161.02, 1044.25 0.5 M787.77 302.47 C888.57 186.12, 988.17 70.53, 1049.86 0.49 M786.2 302.14 C867.84 209.55, 948.91 115.88, 1049.02 0.77 M792.39 302.79 C874.37 207.79, 956.05 113.89, 1055.01 -0.42 M792.86 302 C886.08 194.27, 979.07 86.46, 1054.61 -0.15 M796.58 303.32 C879.75 212.35, 958.71 118.28, 1059.76 -0.18 M797.85 302.73 C875.44 214.05, 952.41 125.87, 1059.88 0.26 M803.77 301.76 C887.01 206.69, 971.09 111.36, 1066.01 1.01 M802.97 301.59 C858.61 236.76, 914.8 171.97, 1065.09 -0.2 M809 302.19 C883.81 214.22, 959.06 126.64, 1070.02 0.39 M807.48 302.67 C881.61 217.59, 955.8 132.43, 1070.83 -0.06 M813.44 302.61 C917.98 182.45, 1021.77 64.04, 1075.73 -0.56 M814.1 301.88 C908.75 191.37, 1003.33 81.02, 1075.54 0.45 M818.16 302.54 C913.9 194.54, 1007.41 87.69, 1080.67 1.21 M818.26 301.58 C905.45 202.76, 992.19 102.3, 1081.22 -0.2 M825.05 301.85 C899.66 211.43, 978.45 121.83, 1087.03 -0.92 M824.36 301.23 C899.69 215.58, 975.84 128.42, 1086.39 0.05 M828.31 301.58 C896.46 224.3, 964.2 147.25, 1092.06 1.24 M829.36 301.8 C900.62 218.97, 973.21 135.08, 1091.82 0.48 M835.1 303.52 C902.24 224.22, 970.61 145.6, 1096.87 -0.95 M833.78 302.87 C913.88 211.99, 991.13 122.95, 1096.91 0.14 M839.98 302.74 C891.99 242.04, 945.53 179.35, 1101.41 0.58 M839.95 302.13 C897.92 235.04, 955.9 168.25, 1101.97 0.56 M845.74 301.49 C932.16 203.41, 1019.17 101.06, 1108.71 -1 M845.14 302.26 C902.38 235.23, 959.93 168.79, 1108.06 -0.73 M851.21 300.95 C940.48 197.71, 1032.9 92.38, 1113.06 -0.69 M850.89 301.79 C916.33 225.55, 983.07 148.45, 1112.44 0.44 M855.21 303.15 C923.75 225.72, 991.23 146.09, 1117.85 0.29 M855.07 302.36 C938.96 206.89, 1023.04 110.51, 1118.55 -0.72 M860.89 301.87 C938.74 210.88, 1019.32 122.32, 1123.73 0.89 M860.77 302.16 C948.14 201.12, 1036.42 99.87, 1123.66 0.67 M866.09 302.69 C964.77 188.72, 1064.05 74.61, 1128.36 0.27 M866.15 302.14 C967.07 187.49, 1067.64 71.42, 1128.76 0.15 M872.18 302.63 C925.05 239.63, 980.36 176.44, 1134.94 -0.32 M872.13 301.65 C925.9 241.46, 979.58 179.59, 1134.12 0.26 M876.72 303.34 C964.85 201.36, 1051.59 100.26, 1140.65 0.24 M876.76 302.41 C937.77 234, 996.88 165.2, 1140.18 -0.51 M882.3 302.07 C954.26 219.15, 1027.14 136.36, 1145.14 0.25 M881.84 301.91 C952.87 219, 1024.7 136.21, 1144.24 -0.49 M886.91 302.64 C980.93 193.17, 1074.28 85.72, 1150.34 -0.2 M887.24 301.87 C988.1 183.33, 1090.22 66.46, 1150.37 -0.15 M892.76 301.83 C958 227.32, 1021.63 154.23, 1155.35 0.34 M892.99 301.65 C980.13 199.68, 1068.46 97.59, 1155.89 0.56 M898.99 302.65 C1000.19 183.54, 1100.35 66.66, 1160.07 0.96 M898.19 302.2 C958.27 230.33, 1020.55 159.4, 1160.7 -0.11 M903.65 302.97 C989.42 203.76, 1073.53 104.59, 1165.73 1.06 M904.14 301.71 C973.17 222.59, 1041.16 143.53, 1166.08 0.03 M907.7 302.01 C1002.31 193.14, 1097.14 84.69, 1171.89 -0.48 M908.79 301.83 C977.89 222.32, 1047.3 142.29, 1170.59 -0.17 M914.79 302.57 C981.89 222.43, 1051.44 144.55, 1176.76 -1.02 M914.39 302.23 C991.75 214.33, 1067.63 126.31, 1176.64 -0.2 M919.39 301.62 C1000.79 208.39, 1083.57 114.28, 1182.24 -0.28 M919.64 302.19 C1021.24 182.21, 1123.47 64, 1181.98 -0.25 M924.63 301.64 C987.97 230.18, 1051.19 157.96, 1188.08 0.86 M925.11 302.06 C1016.47 199.52, 1106.66 94.67, 1186.85 -0.37 M930.51 301.21 C998.79 219.7, 1067.45 139.23, 1192.46 1.09 M929.9 302.57 C998.56 222.12, 1069.08 142.28, 1192.36 0.56 M935.86 301.76 C990.71 237.53, 1048.37 173.36, 1197.39 -0.17 M935.95 301.66 C1019.54 202.85, 1105.06 104.22, 1197.39 0 M940.1 302.76 C1034.05 192.22, 1130.07 84.37, 1202.52 0.29 M940.14 301.85 C1035.28 191.24, 1130.86 83.32, 1202.62 0.75 M945.25 301.66 C1042.12 191.08, 1138.56 80.99, 1208.32 -0.79 M946.56 301.33 C997.8 239.24, 1051.24 178.57, 1208.64 -0.72 M950.88 302.6 C1033.32 206.46, 1117.61 109.44, 1214.37 1.33 M950.66 302.47 C1022.51 218.34, 1094.57 135.08, 1213.09 0.39 M955.45 301.35 C1021.5 227.79, 1086.86 151.68, 1220.28 0.04 M956.5 302.56 C1041.96 203.92, 1129.08 104, 1219 -0.07 M961.34 301.53 C1060.54 189.26, 1157.31 77.39, 1224.03 0.85 M962 301.91 C1024.36 231.47, 1087.07 159.97, 1224.05 0.54 M967.39 302.55 C1029.25 231.11, 1091.98 159.09, 1229.61 -0.09 M967.28 302.18 C1053.07 200.66, 1140.29 100.99, 1229.97 0.05 M971.41 301.49 C1064.19 198.7, 1152.72 92.87, 1234.06 0.57 M972.15 302.35 C1075.99 181.85, 1180.48 62.01, 1235.24 0.44 M977.54 302.97 C1049.07 216.95, 1121.92 134.31, 1239.7 -1.29 M977.85 301.99 C1034.17 237, 1090.54 173.51, 1239.94 -0.4 M983.58 302.13 C1075.17 193.48, 1169.85 87.48, 1245.62 -0.65 M982.81 302.13 C1072.93 200.54, 1161.64 97.93, 1245.24 0.32 M988.39 301.28 C1081.7 195.05, 1173.68 88.44, 1250.88 -0.33 M987.84 302.88 C1053.62 224.16, 1120.32 146.55, 1251.51 -0.21 M992.73 301.96 C1080.73 199.47, 1168.47 98.77, 1255.08 1.12 M994.2 302.03 C1089.42 192.77, 1184.75 82.37, 1256.6 -0.28 M997.66 301.2 C1102.76 182.17, 1207.23 62.54, 1261.51 -0.78 M998.54 302.82 C1082.09 206.47, 1163.57 111.66, 1261.92 -0.81 M1005.35 301.71 C1082.12 211.04, 1159.03 119.46, 1266.45 0.19 M1004.58 302.39 C1060.07 239.91, 1114.22 176.68, 1266.19 0.3 M1008.44 301.35 C1113.53 184.14, 1218.17 63.63, 1271.36 -0.55 M1008.98 301.86 C1095.6 203.97, 1181.13 105.93, 1272.64 -0.12 M1015.77 301 C1084.89 221.71, 1155.26 140.24, 1276.7 0.47 M1015.31 301.47 C1102.76 204.58, 1189.78 104.99, 1277.1 -0.36 M1019.05 303.15 C1091.17 221.48, 1161.37 138.81, 1282.14 0.89 M1019.89 302.78 C1124.32 182.12, 1227.7 62.93, 1282.48 0.91 M1025.43 301.66 C1119.96 194.49, 1212.45 85.31, 1288.19 0.75 M1025.77 301.6 C1080.51 235.8, 1136.6 171.4, 1287.88 -0.3 M1030.93 302.93 C1088.33 237.38, 1143.87 173.54, 1292.15 0.68 M1030.85 302.57 C1111.93 208.87, 1194.27 114.27, 1293.07 0.33 M1037.19 302.12 C1113.02 214.43, 1188.34 127.24, 1298.5 0.36 M1036.17 301.9 C1108.03 219.2, 1179.57 135.49, 1298.76 -0.51 M1040.72 302.07 C1130.64 198.58, 1221.78 96.09, 1302.55 0.46 M1040.85 302.02 C1105.99 227.45, 1168.55 154.73, 1303.22 0.31 M1047.42 300.81 C1115.58 219.68, 1187.64 139.55, 1308.31 0.34 M1046.98 302.19 C1137.65 197.45, 1228.63 92.36, 1308.86 0.15 M1052.73 301.4 C1112.18 230.58, 1174.61 160.31, 1314.33 -0.02 M1052.29 301.83 C1111.64 235.57, 1169.56 168.03, 1314.36 0.15 M1058.45 301.77 C1142.29 204.28, 1224.75 108.48, 1320.32 -0.01 M1057.27 301.32 C1112.11 240.89, 1165.2 178.77, 1320.1 -0.16 M1061.95 302.26 C1121.04 234.09, 1178.51 167.58, 1324.26 1.22 M1062.44 301.95 C1134.74 221.69, 1204.39 139.99, 1324.8 -0.13 M1067.75 303 C1158.69 198.38, 1247.04 94.23, 1331.31 0.29 M1066.86 302.97 C1128.37 232.37, 1189.81 162.28, 1330.98 0.01 M1073.28 303.16 C1144.35 218.16, 1215.85 136.59, 1335.07 0.5 M1073.14 302.24 C1143.05 218.22, 1215.59 135.09, 1335.94 -0.37 M1078.42 301.36 C1146.1 226.94, 1213.62 149.08, 1340.04 0.52 M1078.35 301.98 C1169.33 197.26, 1261.14 90.4, 1340.59 0.25 M1084.58 300.91 C1164.68 209.24, 1245.8 117.3, 1345.23 0.88 M1083.32 301.85 C1163.24 207.38, 1244.42 114.02, 1346.08 0.33 M1089.65 302.73 C1157.95 222.19, 1227.64 142.09, 1350.69 -0.63 M1088.15 302.89 C1168.94 209.31, 1249.55 116.52, 1351.38 0.05 M1094.56 303.04 C1173.13 210.31, 1252.77 119.9, 1356.95 -0.22 M1094.24 302.05 C1178.2 205.97, 1261.93 109.04, 1356.62 -0.41 M1098.18 302.05 C1196.47 190.5, 1296.18 76.06, 1362.61 0.59 M1099.81 302.9 C1197.31 189.67, 1294.6 77.44, 1361.85 -0.69 M1103.93 301.76 C1199.65 194.01, 1296.1 84.49, 1368.2 -0.88 M1105.39 302.29 C1165.83 232.77, 1226.06 163.44, 1366.97 0.3 M1110.11 303.28 C1188.62 214.32, 1264.45 126.13, 1373.78 0.58 M1110.37 302.16 C1172.03 229.31, 1235.03 157.53, 1372.73 0.07 M1116.54 302.32 C1186.87 222.73, 1257.27 140.84, 1378.36 -0.35 M1115.15 301.89 C1177.76 229.72, 1239.04 159.92, 1378.49 -0.16 M1121.67 302.45 C1205.3 204.96, 1289.73 109.06, 1384.19 -1.46 M1121.09 302.12 C1210.42 198.43, 1300.67 95.74, 1383.08 -0.86 M1126.92 301.45 C1210.99 203.37, 1296.94 102.77, 1389.41 -0.13 M1125.85 301.71 C1205.86 209.35, 1288.42 115.5, 1388.31 -0.31 M1131.62 302.35 C1197.33 224.8, 1267.51 145.17, 1394 0.63 M1131.27 302.67 C1215.24 203.07, 1300.08 105.37, 1393.53 0.75 M1137.25 302.07 C1216.36 207.87, 1298.64 113.93, 1400.21 -0.63 M1136.42 301.38 C1217.61 206.42, 1299.57 112.13, 1398.94 0.35 M1142.44 302.38 C1224.42 206.97, 1309.15 111.78, 1405.11 -0.02 M1142.15 302.71 C1239.3 190.89, 1336.87 79.92, 1403.84 0.49 M1147.19 300.87 C1230.67 207.07, 1315.54 110, 1409.92 0 M1147.47 302.09 C1218.87 220.83, 1289.64 139.86, 1409.73 -0.35 M1152.38 301.89 C1251.23 186.76, 1352.88 69.41, 1413.78 0.45 M1153 301.88 C1226.96 216.16, 1301 131.62, 1415.2 0.63 M1157.25 300.74 C1244.53 202.65, 1327.96 106.08, 1421.42 0.18 M1158.47 301.47 C1232.18 214.76, 1307.19 128.8, 1420.89 0.08 M1163.38 301.39 C1257.18 194.59, 1350.93 85.8, 1425.7 1.17 M1162.78 302.22 C1263.87 185.21, 1365.8 68.69, 1425.49 -0.28 M1167.69 302.89 C1230.33 231.67, 1290.67 161.98, 1431.08 0.6 M1168.31 302.14 C1230.57 228.76, 1294.07 155.71, 1430.65 0.35 M1173.17 301.32 C1239.09 228.04, 1302.71 155.4, 1436.13 0.69 M1174.15 301.96 C1240.15 226.1, 1306.36 150.86, 1435.95 0.69 M1179.64 301.09 C1284.2 182.31, 1385.72 62.89, 1441.22 0.79 M1179.29 302.06 C1255.13 211.27, 1333 121.47, 1441.47 -0.71 M1185.42 301 C1241.46 233.16, 1300.03 166.3, 1446.84 0.37 M1183.79 301.75 C1278.22 195.48, 1370.16 89.88, 1447.28 0.13 M1188.76 301.8 C1273.72 205.29, 1360.9 107.13, 1452.22 0.24 M1189.06 302.62 C1290.19 185.83, 1391.89 67.81, 1452.67 -0.15 M1195.05 302.01 C1299.9 181.28, 1405.41 60.86, 1458.21 0.98 M1195.46 301.81 C1245.69 242.84, 1299.15 181.63, 1457.89 0.14 M1200.35 301.78 C1297.66 188.34, 1396.29 75.16, 1463.62 -0.41 M1199.49 302.84 C1283.18 203.33, 1368.8 105.08, 1463.31 -0.52 M1205.21 302.48 C1272.94 225.48, 1341.28 149.84, 1468.1 -0.69 M1205.84 302.53 C1269.81 229.58, 1331.65 157.33, 1467.86 -0.13 M1210.7 302.92 C1276.5 229.2, 1340.68 154.23, 1473 -0.55 M1211.07 302.17 C1288.39 214.21, 1366.37 123.77, 1473.83 -0.26 M1217.09 302.81 C1317.16 184.13, 1418.13 69.26, 1479.74 0.64 M1216.39 301.6 C1301.78 204.05, 1387.59 105.67, 1478.44 0.61 M1222.13 301.21 C1295.31 214.03, 1372.71 126.84, 1483.89 -0.73 M1221.5 302.53 C1318.98 190.1, 1414.88 79.57, 1484.39 0.06 M1226.51 302.24 C1324.2 186.31, 1422.58 73.25, 1489.33 -0.54 M1227.18 301.41 C1294.59 222.45, 1362.93 145.11, 1489.13 -0.48 M1232.16 302.25 C1288.02 240.74, 1341.12 178.21, 1495.6 0.74 M1231.34 301.8 C1330.51 188.6, 1429.59 73.58, 1495.41 -0.52 M1236.38 302.26 C1320.59 208.24, 1401.9 113.2, 1500.71 1 M1237.38 301.65 C1302.35 229, 1366.98 154.2, 1499.44 0.47 M1241.47 302 C1332.32 199.74, 1424.24 94.95, 1506.61 -0.09 M1242.25 302.22 C1306.65 228.05, 1372.07 153.26, 1505.92 -0.57 M1248.8 300.96 C1323.5 217.1, 1399.8 130.23, 1510.68 -0.28 M1248.17 302.17 C1311.46 230.91, 1373.26 159.02, 1510.57 -0.22 M1252.7 301.51 C1305.42 242.74, 1357.13 183.37, 1515.04 0.33 M1253.05 301.95 C1324.29 221.77, 1395.17 140.2, 1515.66 0.56 M1259.36 300.92 C1330.93 218.72, 1402.27 137.59, 1521.4 0.82 M1258.73 301.28 C1313.58 241.64, 1366.66 180.17, 1521.44 0.48 M1262.6 301.23 C1346.36 204.54, 1430.33 108.99, 1526.95 -0.14 M1263.7 302.41 C1320.94 238.47, 1377.69 172.25, 1526.07 0.28 M1269.61 301.31 C1336.12 224.87, 1403.15 148.73, 1532.55 0.99 M1269.07 301.95 C1331.88 230.61, 1393.7 160.27, 1531.54 0.36 M1274.43 302.17 C1376.59 183.45, 1480.69 66.15, 1537.66 0.9 M1274.69 302.05 C1337.06 232.35, 1397.91 161.52, 1536.89 0.1 M1279.15 301.3 C1363.34 208.46, 1445.79 113.59, 1542.36 0.85 M1279.48 302.22 C1349.18 223.79, 1418.68 144.9, 1542.59 0.45 M1285.52 302.48 C1379.96 191.4, 1474.55 81.33, 1546.84 -0.59 M1285.41 302.59 C1375.24 198.68, 1466.48 93.47, 1547.1 -0.2 M1291.27 301.14 C1378.45 201.92, 1463.94 103.1, 1553.38 -0.67 M1291.09 301.41 C1377.54 202.43, 1465.28 103.23, 1553.5 -0.03 M1295.22 303.14 C1381.46 201.03, 1469.13 104.28, 1559.03 0.37 M1295.76 301.66 C1390.83 192.5, 1485.12 83.87, 1558.19 -0.13 M1299.84 301.85 C1372.19 218.76, 1443.93 135.33, 1564.44 -0.71 M1300.12 302.57 C1384.76 204.42, 1467.89 108.35, 1563.15 0.28 M1305.99 302.26 C1362.09 236.76, 1416.91 171.51, 1568.82 0.84 M1306.8 302.42 C1394.68 198.72, 1484.99 94.61, 1569.14 -0.17 M1311.19 303.28 C1398.12 202.96, 1485.92 100.07, 1574.16 -0.39 M1311.25 302.11 C1371.5 233.75, 1432.19 164.06, 1574.39 -0.24 M1317.76 303.04 C1399.92 205.53, 1483.27 111.02, 1580.21 0.11 M1316.73 301.64 C1409.74 194.14, 1503.53 87.37, 1579.16 -0.1 M1320.95 303.02 C1420.73 188.03, 1519.46 76.8, 1584.24 0.86 M1321.83 302.83 C1398.41 212.83, 1475.44 125.15, 1584.38 0.06 M1326.82 301.31 C1422.92 190.47, 1520 78.22, 1589.55 0.87 M1327.14 301.66 C1411.78 203.62, 1496.58 106.63, 1589.45 0.47 M1333.6 301.27 C1402.37 221.15, 1473.1 139.58, 1596.15 -0.39 M1332.95 302.37 C1400.38 223.11, 1469.14 143.05, 1595.39 -0.14 M1338.23 302.49 C1404.75 225.81, 1472.08 148.98, 1600.28 -1.03 M1337.94 301.84 C1432.04 193.59, 1525.5 85.98, 1600.37 0.37 M1342.61 302.72 C1445.22 185.71, 1547.98 68.72, 1605.43 -1.34 M1342.59 302.52 C1428.53 204.98, 1513.51 106.69, 1606.27 -0.02 M1348.86 302.36 C1431.44 209.61, 1511.68 116.84, 1610.5 0.45 M1348.99 301.39 C1411.18 228.44, 1474.21 155.46, 1610.83 -0.29 M1354.21 301.89 C1432.75 210.15, 1512.86 119.21, 1616.39 -0.92 M1354.07 301.78 C1453.48 184.87, 1554.42 68.96, 1616.43 -0.59 M1359.86 301.8 C1413.35 239.35, 1468.3 176.58, 1620.86 0.02 M1359.59 302.25 C1445.76 202.73, 1532.95 102.06, 1622.28 0.46 M1363.6 302.32 C1436.1 219.04, 1509.42 136.07, 1626.77 -0.14 M1364.23 302.79 C1463.47 187.02, 1564.56 71.43, 1626.88 0.03 M1370.96 301.08 C1442.8 214.42, 1518.45 129.67, 1633.45 0.28 M1370.18 301.67 C1441.36 219.68, 1511.46 138.42, 1632.5 0.2 M1374.22 301.87 C1472.85 187.88, 1572.66 74, 1638.29 0.52 M1375.26 302.69 C1473.36 188.18, 1571.98 74.33, 1637.75 0.73 M1381.66 301.02 C1437.58 235.85, 1494.8 171.99, 1643.85 -0.71 M1380.61 301.88 C1450.35 221.58, 1518.94 141.93, 1642.93 -0.51 M1385.27 302.92 C1485.06 188.1, 1584.09 75.87, 1647.03 0.02 M1385.09 302.7 C1454.61 223.96, 1523.19 145.25, 1648.35 0.31 M1392.28 301.88 C1474.64 203.63, 1561.12 105.43, 1653.63 0.74 M1390.72 301.58 C1445.89 239.77, 1499.71 177.49, 1653.58 0.19 M1397.38 302.17 C1454.63 231.96, 1516.77 163.54, 1658.51 -0.65 M1395.91 301.96 C1460.63 227.26, 1524.96 153.34, 1659.17 0.6 M1402.91 302.18 C1479.17 212.6, 1555.52 124.01, 1664.64 -0.72 M1402.04 302.15 C1495.46 192.02, 1591.47 82.5, 1664.74 0.33 M1406.97 303.09 C1510.9 180.33, 1614.64 59.82, 1670.08 1.21 M1406.75 302.56 C1506.75 186.69, 1606.44 73.2, 1669.58 -0.05 M1412.24 302.12 C1475.1 228.26, 1536.56 157.59, 1675.65 -0.31 M1412.71 301.46 C1483.53 217.81, 1557.09 133, 1675.28 0.37 M1416.39 301.21 C1508.05 197.35, 1598.93 93.75, 1681.06 -0.24 M1417.51 302.24 C1476.67 234.77, 1535.48 167.16, 1679.51 0.49 M1422.54 303.25 C1482.33 230.96, 1543.57 161.44, 1680.47 6.01 M1423.01 301.95 C1490.78 221.45, 1559.61 142.3, 1680.22 6.37 M1428.34 301.05 C1485.14 235.18, 1544.86 167.98, 1681.21 11.99 M1428.38 301.67 C1522.35 193.12, 1618.54 83.27, 1680.66 11.78 M1432.08 301.86 C1532.72 189.54, 1631.13 76.71, 1678.86 18.04 M1432.91 302.58 C1514.69 207.45, 1597.44 113.66, 1680.03 18.09 M1437.74 301.61 C1488.78 244.88, 1539.27 188.22, 1680.87 24.55 M1439.23 301.76 C1526.47 201.77, 1613.7 101.19, 1680.56 24.25 M1443.99 301.8 C1492.75 247.02, 1541.84 191.29, 1680.73 29.61 M1443.25 302.67 C1500.55 235.98, 1558.77 169.19, 1680.41 30.09 M1449.28 301.68 C1523.94 214.63, 1596.96 130.5, 1680.9 35.29 M1448.92 301.8 C1523.64 213.7, 1599.31 127.04, 1680.85 36.84 M1453.15 303.43 C1535.65 207.85, 1617.01 114.8, 1680.47 41.74 M1454.53 302.98 C1510.42 238.04, 1565.86 173.24, 1680.63 43.18 M1459.39 301.2 C1516.14 239.13, 1569.73 177.17, 1678.63 48.5 M1459.85 302.48 C1537.09 215.71, 1612.67 128.9, 1679.45 49.56 M1464.26 302.27 C1538.22 216.53, 1611.65 131.61, 1680.88 54.73 M1465.21 302.22 C1546.65 209.56, 1627.29 116.98, 1679.59 54.14 M1469.9 302.85 C1540.47 223.19, 1607.08 148.54, 1679.73 60.48 M1470.93 301.31 C1536.53 225.59, 1604.14 148.94, 1680.2 61.24 M1475.32 300.98 C1528.99 240.48, 1582.09 178.89, 1681.31 67.47 M1476.38 302.97 C1540.05 226.25, 1605.19 152.38, 1679.92 66.55 M1481.85 302.47 C1541.81 233.69, 1600.24 166.95, 1679.52 73.02 M1481.97 301.39 C1536.39 238.47, 1590.99 174.65, 1680.27 73.64 M1486.6 303.35 C1559.73 221.1, 1630.67 138.65, 1680.76 79.37 M1487.02 302.89 C1558.06 221.84, 1628.22 139, 1679.93 78.88 M1490.81 301.22 C1536.73 253.71, 1578.39 202.66, 1680.51 86.57 M1491.59 301.24 C1543.38 242.85, 1594.12 184.9, 1680.14 84.69 M1496.53 300.69 C1568.84 220.91, 1639.88 140.33, 1679.03 92 M1497.51 302.15 C1547.31 245.3, 1597.8 188.94, 1679.35 91.75 M1503.04 302.03 C1567.56 226.3, 1632.1 154.93, 1678.99 96.12 M1502.53 302.49 C1554.87 242.05, 1604.39 184.83, 1679.61 97.33 M1506.11 302.84 C1571.45 227.3, 1637.18 153.09, 1680.49 103.25 M1507.49 301.56 C1570.59 229.91, 1633.49 157.99, 1680.84 103.04 M1513.19 301.76 C1552.84 258.05, 1593.4 213.12, 1681 108.81 M1513.45 301.53 C1567.91 239.08, 1622.37 175.77, 1679.35 110.6 M1517.77 300.5 C1557.26 259.71, 1593.5 215.97, 1679.85 114.75 M1518.16 301.87 C1557.83 254.48, 1600.56 206.59, 1679.56 116.23 M1523.98 301.77 C1585.92 231.13, 1650.3 158.85, 1678.36 121.22 M1524.05 301.19 C1576.19 243.79, 1628.17 183.27, 1679.71 121.71 M1530.44 300.87 C1564.63 262.38, 1597.27 225.56, 1681.67 128.35 M1528.34 302.87 C1578.11 243.16, 1628.51 186.09, 1680.59 127.88 M1534.84 300.92 C1577.27 252.43, 1619.93 205.01, 1681.69 134.48 M1533.76 303.06 C1570.39 259.37, 1608.63 217.37, 1680.61 134.9 M1540.78 300.71 C1573.37 265.06, 1607.4 224.13, 1678.71 141.6 M1540.17 302.37 C1573.64 261.14, 1608.41 221.33, 1679.84 140.32 M1545.87 300.86 C1592.24 244.86, 1641.77 189.13, 1681.96 146.28 M1545.32 303.26 C1598.09 239.47, 1651.79 178.77, 1680.05 145.93 M1551.94 300.72 C1594.14 251.64, 1639.77 198.61, 1679.72 152.97 M1549.7 302.2 C1582.55 267.08, 1614.4 229.97, 1680.63 153.26 M1555.58 302.2 C1599.46 252.44, 1641.83 202.2, 1681.46 156.64 M1554.56 302.89 C1586.37 267.04, 1619.2 230.03, 1681.32 159.01 M1560.77 301.17 C1593.02 266.06, 1619.84 230.95, 1680.02 164.92 M1560.02 302.31 C1590.63 268.21, 1619.43 234.73, 1680.15 165.08 M1565.22 302.96 C1611.59 251.95, 1652.54 201.03, 1681.41 171.6 M1564.76 302.44 C1596.47 266.35, 1627.48 231.7, 1680.55 170.64 M1572.09 302.79 C1613.44 253.15, 1655.73 203.49, 1679.23 175.6 M1571.68 301.46 C1606.34 262.37, 1642.63 219.95, 1680.64 176.52 M1577.11 300.56 C1608.01 265.14, 1639.73 230.54, 1679.13 181.91 M1576.08 301.98 C1610.34 262.64, 1644.78 224.37, 1679.66 182.58 M1580.08 301.44 C1607.09 272.75, 1634.29 244.17, 1679.65 189 M1581.13 302.12 C1608.83 271.69, 1636.61 240.75, 1679.86 188.63 M1587.96 302.61 C1616.99 266.76, 1648.44 227.69, 1681.3 193.54 M1586.08 301.74 C1607.24 280.33, 1625.34 259.18, 1679.62 195.62 M1594.43 301.95 C1619.94 271.63, 1647.9 236.98, 1679.47 201.81 M1591.79 301.54 C1611.33 281.04, 1629.31 259.36, 1679.39 202.48 M1598.96 300.69 C1616.02 279.47, 1636.81 257.13, 1680.77 206.66 M1596.82 303.23 C1624.89 271.05, 1652.97 238.24, 1680.03 207.59 M1602.38 300.13 C1622.81 282.52, 1640.51 260.61, 1681.38 214.45 M1603.07 302.71 C1633.39 268.08, 1661.63 236.12, 1680.24 213.14 M1609.89 300.33 C1632.65 275.94, 1654.43 247.94, 1681.94 218.44 M1607.82 302.21 C1627.28 281.57, 1645.6 261.1, 1679.45 219.06 M1614.69 300.76 C1631.57 279.38, 1652.89 255.93, 1678.62 225.54 M1613.37 301.42 C1636.45 275.04, 1659.78 248.18, 1679.96 225.2 M1617 303.04 C1634.07 286.68, 1644.2 270.01, 1678.06 233.73 M1619.09 301.71 C1639.35 278.68, 1660.35 254.56, 1679.82 231.16 M1623.65 303.58 C1643.4 277.4, 1664.41 256.15, 1679.64 238.95 M1625.07 301.21 C1637.61 287.03, 1649.82 272.86, 1680.24 236.77 M1631.12 300.3 C1647.9 281.2, 1665.18 259.99, 1679.9 244.12 M1630.13 303.02 C1643.61 286.09, 1659.01 268.7, 1679.98 243.48 M1637.11 301.3 C1646.37 286.83, 1658.55 271.98, 1681.39 250.5 M1635.52 302.36 C1645.42 287.84, 1656.58 276.07, 1681.25 249.23 M1639.59 303.56 C1651.18 288.23, 1662.08 273.7, 1681.79 254.43 M1640.93 302.72 C1648.64 292.09, 1657.13 282.1, 1680.82 255.65 M1644.4 301.61 C1656.69 289.66, 1668.01 273.53, 1678.73 262.73 M1646.09 300.97 C1657.08 289.05, 1670.09 274.29, 1679.97 262.96 M1652.28 302.23 C1660.3 291.34, 1669.6 280.65, 1682.24 269.67 M1650.93 301.61 C1657.82 295.03, 1662.29 287.27, 1680.86 267.34 M1653.77 301.9 C1664.14 293.07, 1675.87 282.58, 1680.99 275.89 M1656.45 302.61 C1661.78 297.51, 1665.36 290.48, 1679.88 275.38 M1659.59 301.7 C1666.41 298.13, 1668.99 290.04, 1681.29 281.84 M1662.1 301.81 C1668.3 294.11, 1672.55 287.08, 1680.61 279.95 M1664.95 304.29 C1668.79 298.54, 1672.67 293.14, 1682.08 286.46 M1666.22 302.37 C1669.83 299.51, 1673.47 295.06, 1679.92 286.4 M1671.07 301.59 C1674.9 298.25, 1677.41 296.88, 1678.67 292.77 M1671.92 301.8 C1674.95 298.72, 1678.12 295.11, 1679.28 292.63 M1676.54 302.3 C1677.9 301.72, 1678.61 300.12, 1680.47 298.48 M1676.75 302.37 C1678.13 300.92, 1679.51 299.77, 1680.24 298.56" stroke="#ced4da" stroke-width="0.5" fill="none"></path><path d="M0.52 -0.35 C636.32 -3.11, 1271.66 -3.94, 1680.46 -0.17 M0.05 0.14 C348.77 -3.22, 697.21 -3.87, 1680.08 0.24 M1680.73 0.36 C1678.64 70.96, 1677.94 141.67, 1680.59 300.63 M1679.38 0.09 C1679.22 70.5, 1678.97 140.27, 1680.34 299.62 M1680.75 299.92 C1139.37 302.9, 598.86 303.73, -0.78 300.03 M1679.78 299.7 C1229.98 297.56, 779.28 297.74, 0.2 299.84 M-1.45 300.36 C0.56 211.83, 1.22 122.58, -1.36 0.4 M-0.19 300.47 C-0.21 226.44, -1.28 153.91, 0.28 -0.22" stroke="#000000" stroke-width="1" fill="none"></path></g><g stroke-linecap="round" transform="translate(30 90) rotate(0 130 100)"><path d="M0 0 C0 0, 0 0, 0 0 M0 0 C0 0, 0 0, 0 0 M-0.38 5.71 C1.06 4.36, 2.53 4, 4.37 0.72 M-0.57 6.28 C1.37 4.68, 2.21 3.92, 5.07 0.46 M1.61 12.82 C5.74 6.88, 7.76 2.01, 9.05 -1.59 M0.5 12.25 C4.18 6.96, 7.21 3.85, 11.03 0.69 M-1.56 19.08 C2.87 12.96, 7.1 8.15, 17.12 0.89 M0.36 17.81 C4.06 14.23, 8.13 9.07, 14.94 -0.11 M1.13 24.7 C6.1 16.45, 9.09 12.77, 22.43 -0.55 M0.83 24.55 C6.62 15.03, 14.27 7.68, 20.49 0.56 M1.57 28.68 C8.14 17.77, 19.48 9.79, 26.21 0.42 M0.06 30.24 C9.12 19.92, 19.93 8.45, 26.2 -0.06 M-0.6 38.17 C9.73 24.08, 23.81 8.56, 33.7 0.3 M-0.44 37.18 C10.18 24.51, 22.91 10.92, 32.68 0.37 M-1.25 41.62 C12.15 32.71, 19.85 19.76, 36.77 0.09 M0.64 41.75 C13.09 29.1, 24.71 14.75, 36.83 -0.33 M-1.46 47.76 C8.68 38.74, 19.34 27.52, 41.55 -2 M-0.21 48.78 C14.95 30.97, 32.17 11, 43.42 0.23 M-0.57 54.97 C12.01 40.38, 26.72 25.05, 47.41 0.1 M-0.36 55.45 C14.63 40.01, 26.24 23.48, 47.19 -0.74 M-1.15 62.04 C14.57 41.7, 29.74 24.25, 54.59 1.01 M-0.97 61.48 C12.53 46.98, 23.93 34.28, 52.44 -0.16 M-2.06 65.55 C13.03 50.21, 28.55 35.13, 59.24 -1.38 M-0.05 66.99 C13.7 52.77, 26.68 37.18, 59.13 1.17 M-0.16 74.82 C25.73 44.53, 46.54 17.12, 64.96 -1.28 M0.92 72.93 C14.27 57.56, 27.5 40.07, 64.45 -0.35 M-1.9 80.87 C15.49 59.89, 33.55 42.07, 69.91 1.77 M-0.61 78.51 C24.52 53.39, 46.97 25.93, 68.96 1.11 M1.53 83.84 C20.22 61.2, 44.54 35.87, 74.33 -0.51 M-0.38 86.03 C24.92 57.2, 50.49 28.35, 74.14 -0.11 M-0.69 89.69 C30.79 54.58, 62.75 18.7, 79.62 1.65 M-0.18 92.16 C23.46 64.1, 47.47 37.82, 78.5 1.07 M-2.16 97.6 C26.31 69.29, 51.05 39.47, 83.9 0.67 M0.07 98.71 C21.57 72.2, 42.7 48.72, 85.18 -0.45 M1.13 104.95 C30.96 68.55, 60.44 33.81, 89.08 -1.64 M0.72 104.13 C29.62 71.93, 59.16 38.11, 90.04 0.29 M1.15 110.27 C30.38 74.65, 59.41 42.11, 96.41 -1.44 M-0.29 109.89 C28.41 77.45, 55.54 45.98, 95.25 -0.61 M0.69 114.6 C38.55 74.88, 74.96 29.89, 101.54 1.91 M-0.43 116.37 C34.69 77.69, 69.68 37.25, 101.36 0.3 M0.45 120.28 C29.59 86.63, 58.49 53.05, 106.11 -1.56 M-0.54 121.04 C30.14 87.74, 59.05 54.14, 106.97 -1.06 M-2.04 128.3 C38.03 85.5, 78.35 40.07, 112.78 -1.68 M0.17 128.34 C26.67 96.15, 53.45 66.04, 110.73 -0.13 M1.89 133.27 C28.58 101.04, 60.22 67.14, 116.15 1.3 M-0.59 134.11 C34.81 93.3, 70.43 51.97, 116.33 0.22 M0.42 140.39 C47.22 86.59, 90.18 38.06, 121.11 -0.42 M0.27 141 C47.99 84.69, 94.71 30.55, 121.88 0.05 M2.15 144.83 C31.32 112.25, 60.67 76.73, 127.17 -1.16 M1.1 145.34 C42.74 97.3, 85.73 49.5, 126.25 -0.2 M1.01 152.46 C38.55 109.75, 75.19 65.02, 133.28 1.44 M0.58 152.36 C44.42 99.93, 88.66 48.51, 133 -0.76 M-1.98 159.23 C52.61 98.04, 108.32 33.79, 139.15 0.05 M-0.08 158.97 C31.4 125.11, 60.26 92.4, 137.66 0.25 M-0.59 164.35 C52.3 103.04, 106.21 44.07, 142.97 -1.44 M0.64 165.28 C43.45 114.76, 87.58 64.63, 143.86 -0.23 M1.6 172.42 C35.96 130.93, 72 86.4, 148.98 1.71 M0.63 171.25 C41.75 122.91, 82.91 74.96, 147.34 0.15 M1.49 176.74 C47.53 124.6, 91.07 73.11, 155.42 -0.28 M0.76 176.01 C43.61 126.84, 87.25 78.09, 154.65 -0.28 M-1.63 183.21 C34.01 140.85, 70.69 102.05, 158.44 0.69 M0.75 182.23 C48.66 127.3, 95.88 73.07, 159.27 -0.11 M-0.04 190.12 C53.71 127.5, 108.73 62.25, 164.2 1.16 M-1.02 190.04 C56.34 123.89, 111.26 59.74, 165.11 -0.78 M0.89 194.62 C58.6 127.81, 117.78 59.96, 168.73 1.33 M-0.07 194.68 C66.66 121.74, 130.51 46.49, 169.68 0.38 M0.09 199.6 C59.82 132.15, 115.96 66.51, 173.58 -0.45 M0.02 200.36 C60.69 131.64, 119.36 63.78, 175.42 -0.6 M4.64 199.36 C67.24 132.62, 126.71 61.17, 178.96 0.39 M5.7 200.57 C49.62 151.85, 91.75 100.92, 179.9 0.69 M11.42 201.51 C77.15 121.94, 143.95 46.53, 186.2 -0.39 M11.81 200.47 C47.85 160.75, 82.62 119.08, 185.31 -0.07 M15.58 200.78 C78.27 129.31, 140.76 56.83, 191.1 -1.27 M15.63 201.25 C76.89 128.32, 139.07 57.13, 190.33 0.57 M21.65 201.33 C75.94 136, 132.25 74.97, 195.77 -0.49 M21.63 200.76 C62.51 153.99, 104.15 105.19, 196.44 -0.04 M25.99 200.6 C94.98 120.81, 162.64 42.39, 202.05 -0.52 M26.39 200.58 C93.05 125.51, 158.61 48.74, 201.37 -0.46 M32.69 201.93 C68.41 157.85, 108.11 113.95, 207.49 -0.94 M32.89 200.11 C70.48 156.71, 109.17 112.77, 206.95 0.42 M35.95 202.21 C85.63 145.51, 135.78 87.84, 211.46 0.25 M36.88 201.16 C93.06 136.14, 150.77 71.21, 212.61 -0.67 M42.93 200.6 C100.65 133.72, 157.67 68.81, 217.45 1.15 M43.45 201.19 C97.39 138.32, 150.37 77.35, 216.91 0.07 M46.63 201.92 C107.45 132.83, 169.08 64.68, 223.37 0.97 M48.62 201.12 C88.86 154.25, 129.96 107.87, 222.05 -0.1 M55.11 200.15 C111.39 134.16, 165.88 71.24, 226.97 0.8 M54.34 200.15 C113.6 132.61, 172.31 64.98, 227.57 -0.54 M58.02 200.76 C107.95 142.91, 159.13 84.06, 231.97 -0.8 M57.98 200.38 C103.42 151.19, 147.21 99.88, 233.23 0.23 M65.29 201.01 C104.75 152.05, 146.1 106.26, 237.06 0.05 M64.19 200.08 C118.9 136.24, 173.65 73.72, 238.35 0.92 M70.54 199.71 C129.55 129.83, 189.9 61.25, 245.28 1.16 M69.61 201.43 C136.6 125.35, 202.17 48.32, 243.32 0.69 M73.91 199.6 C136.52 128.99, 196.82 61.26, 249.61 0.23 M74.77 200.69 C131.44 134.75, 188.92 67.69, 248.62 -0.06 M80.28 201.33 C136.66 134.28, 196.53 70.08, 255.19 1.19 M79.85 200.65 C134.18 135.91, 189.92 72.65, 255.03 0.68 M84.19 199.47 C134.34 144.67, 183.16 87.21, 258.57 1.77 M85.49 200.76 C130.24 150.13, 172.82 100.48, 259.35 0.05 M90.1 201.82 C153.01 131.42, 211.4 63.68, 262.26 1.38 M90.17 200.16 C126.31 159.35, 164.34 117.82, 262.77 1.69 M97.42 200.14 C150.64 138.42, 204.88 74.56, 262.87 7.83 M95.73 200.44 C129.67 162.51, 164.26 123.19, 262.95 7.77 M101.68 202.16 C154.55 139.44, 207.03 81.16, 261.43 13.8 M101.65 200.73 C154.68 141.45, 207.57 81.56, 262.81 14.99 M108.18 198.71 C152.58 147.79, 198.19 95.21, 263.53 21.52 M107.27 200.49 C155.07 142.33, 203.27 87.63, 263.37 21.05 M110.66 199.85 C149.3 157.05, 188.85 112.2, 262.91 27.03 M112.56 200.94 C164.83 140.74, 218.59 80.21, 262.05 27.35 M118.52 201.34 C154.94 158.07, 191.73 114.14, 262.77 32.06 M116.98 199.85 C173.04 137.31, 226.3 73.83, 263.48 32.23 M121.33 200.89 C173.14 141.44, 226.01 81.68, 262.55 39.1 M122.24 201.2 C166.17 150.23, 208.15 101.81, 262.64 39.76 M126.81 201.59 C161.72 161.69, 194.9 123.72, 262.77 46.55 M127.49 199.77 C176.27 145.18, 223.09 92.08, 262.57 45.92 M131.66 201.19 C178.14 147.58, 226.11 94.78, 261.23 49.46 M134.09 201.35 C162.07 163.89, 192.85 130.09, 262.24 50.41 M139.41 199.21 C178.78 154.4, 216.62 106.84, 263.06 57.74 M137.41 200.35 C175.84 158.8, 212.04 116.56, 263.31 57.89 M142.16 201.54 C183.56 154.26, 221.97 108.78, 263.99 62.73 M143.62 201.2 C179.72 156.54, 217.93 115.49, 263.16 63.89 M149.53 200.61 C184.36 159.28, 219.83 119.94, 261.27 71.29 M148.35 200.17 C172.45 172.15, 199.43 143.28, 263.06 68.77 M153.45 198.98 C187.8 160.91, 221.48 124.37, 264.56 75.3 M154.56 200.13 C190.58 158.55, 226.81 117.03, 263.03 75.67 M161.17 201.99 C190.24 169.36, 218.38 135.31, 262.35 82.67 M159.69 201.75 C183.11 172.27, 206.24 144.37, 263.26 80.95 M164.86 200.49 C191.72 169.08, 218.02 137.17, 262.21 86.24 M164.16 199.66 C188.14 174.61, 209.17 148.62, 262.46 87.6 M170.64 199.53 C188.93 177.29, 213.97 150.78, 263.77 95.21 M170.55 201.62 C190.38 178.26, 210.35 156.37, 263.81 94.07 M176.21 201.02 C206.9 163.66, 234.51 130.15, 263.75 99.86 M176.15 200.63 C204.3 166.75, 235.32 133.34, 262.08 99.56 M179.81 200.44 C200.95 178.37, 218.53 156.18, 260.87 106.95 M180.04 200.12 C205.37 171.55, 230.58 143.6, 263.48 106.78 M185.88 201.49 C203.87 183.59, 216.92 161.51, 264.2 112.69 M185.73 200.1 C214.03 170.27, 240.87 137.22, 262.16 111.46 M190.06 200.85 C212.69 175.05, 238.93 148.37, 263.5 117.65 M192.23 200.32 C208.52 182.55, 225.25 162.62, 263.46 118.71 M196.78 198.78 C212.9 178.16, 232.81 157.06, 264.11 124.22 M196.62 200.42 C220.78 171.84, 246.18 143.12, 262.95 124.95 M200.31 199.89 C221.78 176.47, 242.02 155.6, 262.06 131.29 M201.19 201.09 C215.26 185.28, 228.23 169.04, 262.46 130.05 M206.34 199.75 C226.32 180.91, 244.32 157.98, 262.91 135.67 M208 200.2 C220.97 186.05, 233.35 172.06, 263.05 137.23 M213.02 201.64 C224.52 187.12, 237.87 170.94, 264.14 143.06 M211.98 200.02 C223.84 188.96, 234.95 173.86, 262.35 143.47 M216.53 199.2 C230.92 185.68, 244.65 171.03, 263.5 148.96 M217.53 199.31 C234.5 180.91, 252.2 160.82, 262.98 148.97 M224.16 201.16 C230.52 189.87, 238.44 181.05, 263.87 154.13 M223.62 200.51 C235.62 185.48, 250.26 169.93, 262.45 153.94 M227.85 201.95 C238.08 190, 245.18 183.51, 262.37 161.25 M228.37 199.89 C235.69 191.51, 242.91 183.82, 262.29 161.89 M233.26 202.47 C243.71 188.5, 254.67 176.5, 263.24 166.39 M234.15 200.71 C244.21 187.93, 254.49 177.41, 261.95 166.43 M241.33 200.74 C247.5 189.35, 255.19 183.38, 262.19 171.9 M240.16 199.35 C247.61 191.66, 253.97 182.39, 263.19 172.72 M245.35 200.58 C249.66 192.03, 255.77 187.31, 264.75 177.43 M243.55 200.52 C247.87 195.87, 252.26 191.93, 263.46 179.9 M247.87 199.06 C252.36 197.72, 256.56 192.25, 261.17 185.26 M249.36 200.11 C253.8 197.65, 257.31 193.35, 262.84 184.95 M256.22 199.85 C257.33 198.17, 258.48 197.21, 262.04 191.22 M254.91 200.57 C258.56 196.71, 260.64 193.54, 262.43 191.1" stroke="#fd7e14" stroke-width="0.5" fill="none"></path><path d="M0.83 -0.66 C59.52 2.09, 121.71 1.14, 259.88 1.58 M0.4 0.22 C79.69 0.51, 161.52 -0.52, 260.45 0.52 M260.3 -0.38 C262.27 50.87, 259.58 103.65, 260.93 200.24 M260.24 -0.89 C261.18 67.69, 260.42 133.45, 259.48 200.45 M260.03 200.95 C176.18 201.47, 90.02 200.36, -0.3 198.66 M259.52 200.49 C179.08 201.27, 97.58 202.09, 0.35 200.75 M0.52 201.79 C-1.88 141.97, -0.69 82.44, -0.63 -0.98 M-0.28 200.18 C-0.76 154.41, -1.25 109.26, 0.19 -0.89" stroke="#000000" stroke-width="1" fill="none"></path></g><g transform="translate(38.13005065917969 155) rotate(0 121.86994934082031 35)"><text x="121.86994934082031" y="0" font-family="Virgil, Segoe UI Emoji" font-size="28px" fill="#000000" text-anchor="middle" style="white-space: pre;" direction="ltr" dominant-baseline="text-before-edge">Lexing - Parsing -</text><text x="121.86994934082031" y="35" font-family="Virgil, Segoe UI Emoji" font-size="28px" fill="#000000" text-anchor="middle" style="white-space: pre;" direction="ltr" dominant-baseline="text-before-edge"> AST Generation</text></g><g stroke-linecap="round" transform="translate(490 90) rotate(0 130 100)"><path d="M0 0 C0 0, 0 0, 0 0 M0 0 C0 0, 0 0, 0 0 M-0.31 5.91 C1.67 5.02, 2.76 2.63, 4.43 -0.32 M0.11 6.06 C1.17 5.1, 2.64 3.32, 5.32 0.23 M1.68 11.44 C1.94 8.4, 3.2 4.96, 11.66 -1.6 M0.24 11.28 C1.74 9.84, 5.16 7.35, 10.26 0.26 M-1.05 17.49 C3.35 12.57, 9.58 9.66, 14.64 2.29 M0.28 18.8 C5.27 12.59, 9.02 6.71, 15.14 0.54 M0.86 22.66 C5.99 16.33, 16.39 6.21, 22.1 -1.31 M-0.71 23.22 C5.21 17.6, 10.54 11.76, 21.85 -0.68 M-1.45 28.73 C9.46 21.21, 18.16 9.65, 27.58 -0.41 M-0.61 31.08 C9.26 20.73, 17.35 10.16, 27.03 1.01 M-2.18 38.02 C8.75 25.98, 19.54 16.45, 32.92 1.25 M-0.88 37.22 C7.3 28.85, 13.95 21.89, 31.66 -0.31 M1.89 44.23 C8.9 32.58, 18.69 21.4, 37.54 0.49 M0.9 42.99 C9.19 32.51, 18.12 21.23, 35.99 0.39 M-0.26 49.39 C17.46 30.68, 30.71 11.1, 44.01 1.37 M-0.65 49.7 C16.9 29.45, 33.34 11.94, 42.2 -0.83 M-1.02 55.27 C18.86 34.17, 35.56 13.91, 47.14 -0.1 M1.23 55.43 C15.16 36.21, 30.87 18.01, 47.46 0.38 M-1.02 60.07 C17.98 38.33, 40.12 17.78, 51.52 -1.32 M0.58 60.31 C16.75 42.53, 31.46 24.38, 52.54 0.72 M-0.3 65.86 C15.64 51.52, 28.95 34.69, 56.57 -0.33 M0.6 67.32 C14.73 50.46, 29.04 35.84, 58.89 0.46 M2.08 71.54 C13.95 53.96, 31.03 37.3, 62.13 -1.21 M0.07 73.73 C20.63 47.21, 43.69 22.92, 63.24 -0.43 M-1.6 79.74 C24.76 52.66, 50.77 24.09, 69.51 -1.34 M0.7 79.56 C15.5 61.97, 30.83 46.04, 68.7 0.88 M-0.87 86.27 C24.4 59.67, 46.06 31.84, 75.06 -0.74 M0.07 85.38 C22.14 60.46, 41.74 37.07, 75.34 0.22 M0.03 90.84 C28.77 59.73, 55.84 30.08, 79.21 -1.34 M-0.28 90.59 C24.13 63.49, 45.86 38.25, 79.3 -0.37 M1.07 98.45 C34.23 60.12, 64.03 24.71, 84.06 -0.35 M0.13 97.21 C29.03 63.69, 58.55 29.09, 85.37 -0.55 M0.72 102.34 C19.97 78.12, 39.15 54.55, 90.43 -1.54 M0.02 104.36 C20.68 79.5, 40.5 56.02, 90.1 -0.5 M0.35 108.96 C33.04 71.21, 67.43 30.9, 95.41 -0.56 M0.78 109.67 C35.27 69.94, 68.95 29.85, 96.35 -0.74 M1.11 117.36 C30.25 80.92, 60.76 49.01, 101.46 -0.22 M0.41 116.1 C23.76 89.15, 45.12 65.1, 100.46 1.02 M0.99 119.92 C22.08 95.9, 44.04 70.4, 105.92 0.13 M0.56 121.23 C23.53 96.2, 47.85 68.66, 106.77 -0.02 M-0.26 129.77 C33.4 93.34, 64.18 55.57, 110.13 1.36 M0.54 128.05 C41.76 80.71, 82.58 31.63, 110.76 -0.51 M-0.81 133.69 C32.35 97.11, 61.59 63.13, 116.28 -0.08 M-0.36 134.4 C46.23 81.44, 90.86 30.5, 116.96 -0.1 M1.63 139.12 C44.45 90.3, 89.01 36.05, 123.8 0.86 M0.53 139.43 C29.66 104.14, 61.35 68.3, 121.34 -0.02 M0.69 147.55 C36.66 103.6, 76.4 56.42, 127.67 0.71 M0.18 145.43 C25.71 117.17, 51.57 85.18, 126.69 -0.65 M0.35 153.13 C50.29 92.2, 101.79 36.77, 133.27 0.83 M-0.01 152.07 C40.89 103.56, 84.84 53.72, 133.43 0.3 M-1.72 160.34 C32.48 122.14, 66.73 84.64, 136.04 -1.17 M0.57 158.17 C28.8 125.66, 58.21 91.13, 138.17 0.19 M-1.04 163.25 C32.38 128.61, 64.65 89.41, 143.21 -0.7 M-0.25 164.16 C39.47 117.01, 79.17 72.08, 142.73 0.12 M-0.45 172.18 C29.82 131.46, 64.13 96.49, 147.79 -0.77 M-0.39 171.55 C56.6 103.36, 114.48 35.9, 148.1 -0.18 M1.84 177.47 C59.86 107.9, 121.74 37.03, 153.42 -1.48 M-0.06 176.28 C53.12 116.3, 106.03 55.41, 153.14 -0.2 M-1.18 182.23 C62.27 114.11, 121.82 44.3, 158.8 -0.54 M0.26 182.54 C50.56 124.28, 103.38 63.7, 159.06 0.59 M-0.37 190.41 C48.33 131.52, 96.55 78.07, 165.07 -0.3 M0.46 189.03 C63.1 116.47, 125.87 44.83, 164.81 -0.53 M-0.61 194.83 C46.65 140.12, 93.34 87.48, 170.74 -1.05 M0.83 195.64 C46.04 142.75, 91.92 90.75, 169.68 -0.09 M1.35 199.14 C57.43 134.94, 114.25 69.18, 175.67 -1.68 M0.2 200.22 C62.08 130.24, 124.29 59.81, 175.46 -0.16 M6.55 201.53 C46.73 154.75, 86.45 109.31, 179.24 0.32 M6.53 200.83 C48.97 149.97, 92.15 102.08, 180.68 -0.43 M9.8 199.33 C78.82 120.23, 148.7 41.62, 184.16 -1.19 M11.48 201.08 C56.95 145.75, 104.27 91.81, 186.15 -0.19 M15.94 202.33 C84.82 123.3, 153.54 42.72, 191.54 1.34 M16.26 200.29 C80.69 127.15, 142.88 55.78, 190.78 -0.12 M21.01 199.78 C90.47 123.09, 156.21 44.49, 195.33 -0.06 M21.43 201.06 C69.36 145.01, 116.67 91.7, 197.07 0.53 M27.81 199.52 C75.01 145.8, 123.31 91.22, 202.55 -0.17 M26.76 201.45 C79.37 141.01, 132.16 80.6, 200.65 0.59 M31.81 201.14 C86.58 138.33, 138.56 76.77, 205.69 -0.31 M32.16 200.84 C84.9 140.33, 138.03 79.29, 206.81 -0.22 M36.73 200.99 C79.66 152.12, 119.13 106.96, 212.37 1.44 M37.41 200.61 C77.37 156.8, 115.49 111.74, 212.14 0.1 M44.17 199.3 C103.9 131.29, 161.31 65.77, 217.73 -0.04 M43.79 199.75 C87.48 147.27, 132.32 95.16, 217.9 -0.88 M47.08 202.03 C116.15 125.99, 180.82 50.58, 221.51 -0.83 M47.44 200.27 C91.14 149.02, 134.97 98.2, 222.73 -0.65 M54.16 199.59 C118.61 123.8, 185.48 47.12, 228.82 -1.34 M53.65 199.69 C94.97 151.02, 137.46 102.07, 228.13 -0.1 M58.08 200.26 C104 148.23, 147.04 97.67, 232.49 0.22 M59.21 201.15 C97.77 158.15, 135.67 114.74, 232.69 -0.48 M63.02 199.43 C120.66 133.22, 178.3 65.98, 238.46 1.56 M65.02 199.6 C117.05 141.03, 168.92 81.62, 238.56 0.11 M68.63 200.39 C133.03 126.64, 200.9 51.69, 245.09 -0.9 M69.56 201.4 C119.84 140.05, 171.14 81.81, 244.21 -0.37 M75.55 199.36 C141.63 126.82, 206.84 51.27, 249.33 1.86 M75.2 201.02 C124.97 142.62, 174.52 84.99, 249.04 0.02 M78.8 200 C131.71 142.87, 181.55 84.95, 254.76 1.39 M80.05 200.6 C142.15 130.32, 204.21 59.43, 254.34 0.47 M85.94 201.51 C137.77 142.93, 188.28 84.97, 258.62 -1.06 M85.85 200.94 C154.27 121, 223.02 41.26, 259.84 -0.39 M91.48 200.58 C141.15 142.42, 192.12 81.6, 261.73 2.24 M89.85 200.49 C132.65 155.26, 172.03 107.86, 263.32 1.36 M95.05 201.66 C157.37 127.28, 221.6 54.08, 261.28 8.43 M95.84 200.54 C138.35 152.89, 178.62 105.57, 263.04 7.79 M101.26 199.63 C156.43 136.53, 209.55 71.73, 263.01 13.84 M101.3 201.07 C142.23 153.82, 183.01 105.69, 262.53 14.19 M105.85 200.17 C154.3 144.13, 204.96 88.7, 263.22 21.25 M106.81 199.54 C164.25 132.9, 224.18 64.84, 262.64 21.37 M111.85 201.97 C162.27 146.36, 210.32 89.27, 263.56 25.66 M111.11 201.34 C157.84 146.9, 203.49 92.74, 262.37 27.61 M118.67 200.84 C159.08 150.91, 199.86 102.59, 264.38 31.17 M117.6 200.48 C170.46 138.92, 224.61 78.41, 263.7 32.67 M121.81 201.62 C178.3 138.5, 231.3 75.88, 262.92 37.6 M122.54 199.96 C174.39 139.7, 226.55 80.79, 262.37 39.05 M129.04 199 C167.32 155.36, 202.89 115.63, 263.5 44.13 M128.23 199.31 C169.46 154.24, 210.03 107.97, 263.11 45.89 M132.61 199.84 C164.37 166.49, 190.44 131.7, 261.65 52.42 M132.92 199.66 C181.82 142.22, 230.36 84.29, 263.22 51.37 M139.15 201.19 C180.38 149.67, 226.26 100.02, 262.57 56.1 M138.51 200.76 C178.32 156.14, 217.55 112.29, 263.09 57.66 M143.83 201.19 C188.48 149.15, 235.94 95.61, 263.32 63.33 M142.99 199.84 C188.98 149.13, 232.94 97.97, 263.23 62.3 M147.99 198.89 C171.98 172.26, 195.29 146.7, 261.28 70.16 M147.75 200.45 C178.42 168.66, 206.04 135.68, 262.94 69.18 M154.2 199.51 C192.04 159.63, 230.43 116.01, 263.24 75.71 M154.6 200.23 C191.57 157.92, 228.2 115.79, 262.35 75.44 M161.34 201.16 C183.06 172.61, 203.64 148.33, 261.7 83.2 M159.78 201.11 C198.01 154.4, 238.82 107.62, 262.76 80.9 M164.1 199.5 C187.75 170.67, 212.86 143.06, 261.23 86.84 M165.61 200.41 C201.15 159.55, 236.55 119.2, 262.04 88.45 M168.08 202.43 C204.72 162.73, 236.93 126.24, 261.36 93.26 M170.57 201.06 C200.45 166.27, 230.34 131.08, 263.57 93.96 M177.39 198.8 C208.65 160.47, 243.84 122.14, 263.66 100.24 M174.86 200.7 C201.44 171.57, 225.59 140.7, 262.29 100.47 M181.63 201.07 C203.98 173.95, 227.57 145.82, 262.64 106.08 M180.56 199.89 C205.94 172.87, 230.61 145.72, 261.71 106.04 M187.51 202.02 C207.44 171.78, 233.14 148.16, 264.09 112.62 M187.15 201.21 C207.6 176.23, 226.43 153.26, 263.22 112.18 M189.9 201.44 C215.5 176, 236.06 149.73, 261.43 118.12 M191.68 201.47 C209.37 179.78, 228.08 158.75, 262.49 119.3 M195.4 198.77 C214.31 179.38, 232.12 161.58, 264.61 124.7 M196.3 200.81 C222.42 171.41, 247.36 143.04, 263.43 123.52 M201.38 199.86 C224.04 177.07, 245.38 151.34, 261.18 131.06 M202.37 200.91 C226.66 171.93, 249.81 144.9, 263.23 129.94 M207.55 201.59 C218.78 187.01, 230.76 173.22, 261.19 135.88 M208.08 200.12 C220.08 186.25, 232.65 171.88, 262.36 137.44 M211.05 202.62 C221.89 188.91, 236.34 174.62, 261.53 142.79 M212.52 201.61 C223.03 187.86, 233.13 177.74, 262.88 142.17 M217.97 200.01 C229.05 189.1, 238.73 178.16, 264.3 147.3 M217.27 200.54 C234.65 181.58, 251.06 163.46, 261.89 149.91 M222.45 199.98 C236.59 183.61, 253.6 165.56, 263.66 154.2 M222.51 200.22 C233.53 188.62, 241.46 177.87, 262.39 153.97 M230.21 198.52 C237.58 191.65, 243.86 182.45, 260.96 160.31 M228.62 199.24 C236.72 190.82, 243.7 183.57, 263.43 161.4 M233.64 200.17 C242.27 190.68, 250.05 181.38, 263.61 167.86 M234.23 199.67 C244.49 188.98, 253.32 176.16, 263.02 166.83 M239.35 198.59 C246.03 193.41, 252.84 182.29, 263.4 171.48 M239.87 200.15 C243.85 193.58, 250.09 187.75, 263.52 172.92 M243.22 199.38 C247.89 196.2, 256.46 186.85, 260.92 179.09 M244.02 200.14 C249.07 195.65, 253.85 191.15, 262 179.75 M249.33 201.4 C255.91 193.44, 258.22 188.92, 262.37 183.35 M250.08 201.72 C253.56 197.56, 256.18 192.72, 262.2 185.73 M255.79 200.06 C258.07 197.74, 259.72 193.82, 263.98 190.81 M255.45 200.24 C256.82 197.89, 259.28 194.73, 263.3 191.03" stroke="#fd7e14" stroke-width="0.5" fill="none"></path><path d="M-0.79 1.23 C68.32 1.13, 134.34 2.44, 260.15 0.12 M-0.76 0.46 C78.04 -1.15, 155.28 -0.06, 259.65 0.55 M261.02 -0.38 C258.64 77.7, 261.23 153.33, 260.64 201.01 M260.17 0.54 C259.9 72.14, 259.96 146.44, 260.22 200.45 M260.64 200.69 C171.06 200.8, 83.96 199.89, 0.2 199.59 M260.37 199.59 C161.13 201.69, 62.26 202.02, -0.08 200.05 M-1.76 200.07 C-1.1 139.56, -1.15 80.83, -1.33 1.22 M0.46 199.63 C0.53 144.89, 0.75 89.47, 0.22 -0.09" stroke="#000000" stroke-width="1" fill="none"></path></g><g transform="translate(528.5520477294922 172.5) rotate(0 91.44795227050781 17.5)"><text x="91.44795227050781" y="0" font-family="Virgil, Segoe UI Emoji" font-size="28px" fill="#000000" text-anchor="middle" style="white-space: pre;" direction="ltr" dominant-baseline="text-before-edge">Type checking</text></g><g stroke-linecap="round" transform="translate(950 90) rotate(0 130 100)"><path d="M0 0 C0 0, 0 0, 0 0 M0 0 C0 0, 0 0, 0 0 M0.08 6.68 C1.65 5, 2.6 2.82, 5.02 0.65 M-0.34 6.43 C0.93 5.3, 2.03 3.94, 4.69 0.11 M1.38 12.19 C2.48 6.33, 8.2 3.23, 10.04 -1.59 M0.84 11.4 C3.29 8.42, 5.59 5.03, 9.86 -0.34 M-1.62 18.57 C5.39 12.16, 11.27 2.86, 15.46 -0.6 M-0.43 18.75 C4.69 12.95, 9.98 6.5, 15.85 0.12 M-0.22 23.55 C7.03 13.71, 17.37 7.73, 23.25 0.3 M0.82 23.43 C9.39 15.6, 17.06 6.32, 21.69 0.24 M-1.2 29.98 C4.47 22.58, 11.54 16.93, 25.35 -0.62 M-0.85 29.72 C5.66 24.37, 11.3 16.18, 26.87 0.3 M-0.97 35.47 C9.9 27.93, 18.44 15.33, 29.99 1.56 M0.55 35.98 C12.09 22.67, 25.29 8.96, 32.48 0.19 M1.1 43.37 C14.9 27.42, 29.18 9.71, 38.64 -1.32 M0.07 42.91 C10.51 30.69, 21 19.39, 36.11 0.59 M-0.99 47.74 C16.14 31.02, 30.14 12.71, 43.53 0.2 M0.16 48.93 C9.8 37.41, 19.68 24.99, 42.46 -0.97 M1.05 52.74 C16.28 35.11, 33.1 17.37, 48.76 1.91 M0.6 55.1 C11.13 42.38, 20.35 30.95, 48.41 1.1 M-1.15 61.37 C19.99 39.54, 37.59 17.64, 51.81 0.57 M-0.38 60.3 C20.93 35.95, 43.28 11.6, 53.59 0.6 M0.31 66.84 C21.67 42.83, 40.07 18.86, 56.65 -1.34 M-0.18 68.09 C18.96 46.82, 36.7 25.06, 57.55 0.7 M1.89 73.56 C18.63 51.58, 37.92 26.91, 63.28 -1.01 M0.55 72.15 C18.15 53.23, 35.4 31.78, 64.28 0.04 M-0.97 80.09 C22.8 51.05, 45.93 25.68, 68.8 1.48 M-0.72 78.68 C18.81 56.4, 39.06 34.9, 69.33 0.01 M0.99 84.5 C26.09 54.56, 50.4 28.35, 72.96 1.75 M0.55 84.3 C14.92 66.19, 29.48 48.99, 74.42 0.74 M1.94 91.17 C21.84 65.47, 42.52 41.23, 79.23 -0.1 M0.04 92.21 C26.18 60.84, 53.27 28.35, 78.52 0.43 M-0.13 96.1 C27.75 69.72, 52.36 39.38, 84.36 -0.89 M-0.46 98.09 C19.45 73.86, 40.18 51.29, 84.42 -0.64 M-1.07 101.95 C35.87 61.31, 72.03 23.21, 91.47 -1.59 M0.3 102.52 C30.55 67.25, 61.52 31.97, 89.87 -0.87 M1.76 110.96 C31.29 75.57, 59.69 43.81, 95.55 -0.7 M-0.59 110.37 C32.22 73.62, 64.07 36.75, 96.14 -1.2 M-1.56 116.31 C35.9 73.95, 75.72 31.97, 100.6 -1.52 M-0.26 115.71 C26.76 82.77, 56.46 50.25, 101.12 0.04 M-0.52 122.92 C24.98 93.25, 50.45 65.74, 105.12 -1.49 M-0.96 121 C22.87 92.66, 46.12 65.78, 105.93 -0.73 M0.78 126.8 C36.16 88.17, 69.69 43.42, 111.24 0.53 M-0.13 127.92 C39.18 83.73, 79.35 38.1, 111.99 0.85 M-0.01 132.04 C42.69 87.16, 85.3 36.6, 117.55 -0.33 M-0.02 134.86 C36.97 91.24, 75.14 47.85, 116.98 -0.04 M-1.23 141.71 C23.2 113.51, 50.32 85.21, 123.51 1.97 M-0.34 141.28 C35.95 99.86, 72.22 58.26, 121.19 0.02 M1.81 147.34 C44.5 95.51, 92.81 42.36, 127.79 -0.61 M0.74 145.61 C27.53 115.99, 54.93 82.32, 126.93 1.09 M-0.19 151.65 C32.4 112.41, 67.66 71.37, 131.25 -0.75 M0.54 151.54 C36.92 111.89, 73.16 71.12, 133.33 -0.21 M0.26 157.72 C49.15 105.35, 94.32 49.2, 139.16 -1.25 M-0.76 159.34 C50.14 101.59, 99.18 43.99, 137 -0.5 M-1.4 164.13 C48.32 111.2, 93.14 55.13, 143.2 1.25 M0.28 163.7 C52.8 105.33, 105.73 46, 142.46 -0.79 M0.36 170.3 C52.91 112.13, 103.13 52.09, 148.9 1.07 M0.05 170.91 C30.96 137.82, 61.52 102.73, 147.41 0.14 M1.41 175.19 C54.14 114.55, 110 51.36, 154.44 0.94 M0.77 176.19 C44.55 125.26, 88.91 73.19, 153.66 0.64 M-1.17 182.07 C44.16 131.29, 90.83 80.23, 159.78 1.2 M0.24 182.87 C36.98 137.3, 75.99 92.31, 159.59 0.69 M-1.25 190.36 C43.81 140.38, 88.27 88.76, 163.61 -0.44 M-0.67 188.7 C48.38 134.78, 96.99 79.85, 164.03 0.22 M-0.43 193.84 C68.43 116.91, 133.92 39.82, 168.31 0.95 M0.22 194.13 C66.41 121.31, 132.83 45.98, 168.76 0.18 M1.04 202.03 C54.62 137.37, 109.77 74.95, 173.89 0.57 M1.26 200.57 C39.47 153.22, 81.03 106.42, 175.7 -0.84 M6.84 198.68 C74.59 123.44, 140.31 46.13, 179.61 0.35 M6.26 199.9 C74.29 121.94, 142.14 42.61, 179.69 -0.5 M10.88 200.24 C68.69 137.3, 123.73 74.78, 184.66 -1.49 M11.52 200.57 C64.42 138.43, 118.5 75.8, 185.18 -0.95 M16.89 199.52 C66.78 141.46, 117.2 81.3, 189.5 -0.65 M15.94 200.21 C51.84 159.53, 88.48 116.17, 190.89 0.46 M22.58 199.12 C58.92 158.42, 96.02 113.86, 196.6 -0.14 M21.88 201.21 C81.55 132.04, 140.67 64.61, 196.92 -0.25 M25.85 199.99 C66.42 154.68, 105.52 109.03, 202.26 -0.55 M27.09 201.23 C71.45 149.16, 115.87 97.78, 200.57 0.36 M32.78 199.87 C92.37 129.65, 152.83 61.81, 206.86 -0.8 M31.98 200.73 C79.83 146.96, 127.48 93.5, 206.62 0.14 M38.41 201.45 C73.23 156.96, 113.65 112.34, 213.05 -1.03 M37.78 200.38 C93.96 133.61, 152.13 67.41, 212.05 0.65 M41.7 200.53 C102.6 134.47, 160.44 65.45, 216.97 -0.21 M43.4 199.95 C93.3 144.03, 140.76 88.31, 217.9 -1.09 M48.47 200.54 C110.03 127.82, 174.18 57.6, 222.24 0.97 M48.32 200.45 C101.5 140.03, 156.71 77.1, 221.93 -0.16 M54.73 200.69 C87.92 159.1, 124.97 117.27, 228.07 -0.67 M54.17 199.88 C98.81 149.17, 144.11 97.65, 228.83 0.11 M59.07 200.98 C109.78 141.75, 162.85 81.81, 233.74 -1.03 M58.2 200.1 C102.67 149.94, 145.19 102.17, 233.48 0.59 M65.01 199.9 C112.83 144.17, 163.47 86.32, 238.69 1.77 M64.28 200.98 C122.81 132.59, 182.57 64.03, 238.38 0.45 M68.1 199.37 C126.52 135.4, 182.54 70.51, 243.99 0.72 M70.07 200.97 C115.9 147.46, 159.85 95.27, 243.29 -0.53 M74.04 199.3 C129.45 139.89, 184.91 75.28, 248.99 0.1 M74.88 200.73 C139.96 126.05, 205.83 50.04, 248.28 -0.29 M79.45 199.38 C124.37 146.28, 172.96 92.1, 253.02 1.27 M79.45 200.56 C124.17 150.95, 168.95 98.84, 254.62 0.34 M86.87 199.96 C139.89 138.62, 192.7 79.95, 258.32 1.38 M85.93 200.8 C128.26 151.61, 171.47 101.83, 259.84 -0.21 M91.85 200.7 C127.83 158.4, 163.68 116, 264.06 2.7 M91.33 200.91 C127.8 156.28, 165.07 112.77, 263.62 1.65 M94.72 201.42 C139.41 145.48, 186.83 93.15, 262.31 8.35 M97 199.86 C154.85 130.76, 214.16 62.04, 262.27 9.12 M100.5 200.64 C166.37 128.87, 229.77 53.44, 262.83 16.26 M102.03 199.93 C151.28 143.02, 198.64 87.51, 263.18 15.23 M108.43 199.86 C162.75 137.01, 214.99 74.09, 262.6 19.55 M106.37 200.86 C159.05 139.05, 212.53 76.73, 262.26 19.9 M111.36 202.12 C160.41 147.91, 203.69 94.13, 263.68 25.36 M112.52 200.13 C162.71 140.42, 214.67 81.6, 262.75 27.12 M118.22 199.57 C156.65 160.34, 191.83 117.39, 263.01 32.03 M116.8 200.42 C170.39 139.4, 221.1 78.43, 263.56 32.19 M123.81 202.23 C171.76 143.95, 224.13 81.65, 264.47 38.85 M123.02 199.8 C172.48 145.5, 221.75 88.89, 263.44 39.7 M127.71 201.78 C153.73 170.56, 182.17 136.44, 261.26 46.54 M128.31 199.45 C181.39 137.95, 235.14 78.58, 262.48 45.54 M135.06 200.38 C166.74 162.89, 200.73 120.76, 262.12 49.4 M133.83 200.38 C160.2 171.56, 188.69 139.55, 263.16 51.49 M139.15 199.3 C161.02 173.76, 186.59 142.36, 263.84 58.9 M137.9 201.86 C182.09 150.04, 226.36 98.9, 263.35 57.8 M144.52 200.57 C167.82 170.67, 194.58 140.95, 261.34 64.38 M144.08 200.52 C188.95 149.45, 234.02 96.72, 263.72 63.72 M149.69 201.13 C195.3 149.84, 238.39 99.88, 261.81 69.17 M148.57 201.12 C193.77 148.44, 238.61 98.41, 263.05 68.63 M154.01 198.48 C187.51 163.41, 218.58 123.45, 261.44 74.05 M155.08 200.32 C174.83 175.03, 197.99 149.05, 262.08 75 M160.75 201.39 C186.57 169.73, 209.52 140.97, 261.76 82.26 M159.02 200.87 C197.98 156.91, 234.04 115.57, 263.95 81.8 M164.65 198.52 C200.84 161.48, 235.65 122.69, 264.01 86.41 M165.02 200.74 C185.42 175.53, 204.77 152.53, 263.55 88.87 M170.98 201.2 C189.44 178.88, 211.31 157.82, 264 93.92 M169.08 201.32 C202.43 162.97, 235.84 123.42, 262.44 92.85 M175.11 200.04 C194.57 176.91, 214.62 152.88, 263.22 101.7 M176.1 200.51 C207.7 163.15, 240.14 126.09, 262.97 99.36 M181.58 199.67 C203.85 173.31, 224.81 148.47, 263.69 105.61 M180.06 200.95 C214.49 163.01, 247.16 125.14, 263.22 106.85 M187.61 199.39 C215.01 167.2, 242.4 135.99, 262.39 111.36 M185.51 201.11 C206.51 176.59, 228.33 153.43, 262.34 111.04 M190.25 199.88 C215.97 171.12, 245.06 142.36, 263.51 119.5 M191.75 201.51 C213.59 174.03, 237.23 146.37, 262.95 118.35 M197.87 199.87 C212.8 183.85, 228.54 165.87, 263.41 124.81 M196.38 199.81 C219.77 174.73, 243.3 148.32, 263.1 124.74 M201.25 198.86 C226.69 176.68, 248.15 148.37, 263.68 129.01 M201.43 201.02 C221.23 178.02, 241.6 155.63, 263.32 130.94 M209.15 201.77 C220.6 186.38, 234.56 167.15, 264.02 136.19 M206.89 200.62 C221.32 186.1, 232.63 170.2, 262.57 137.3 M211.36 201.63 C227.79 184.01, 241.12 167.58, 262.63 141.74 M212.86 200.75 C231.67 178.77, 251.31 156.84, 262.63 143.23 M218.26 200.31 C229.77 188.38, 241.61 171.93, 262.48 147.33 M219.14 199.33 C226.17 189.88, 236.5 178.68, 263.47 149.58 M223.89 199.16 C236.44 181.35, 251.1 167.47, 262.3 154.29 M223.29 200.26 C231.65 190.38, 241.51 180.28, 262.19 154.58 M229.52 199.71 C237.19 187.28, 249.64 177.3, 263.59 162.32 M228.26 200.51 C241.28 185.1, 254.63 170.79, 263.09 159.96 M234.68 202.39 C242.42 191.52, 249.33 182.11, 261.53 166.96 M234.46 200.35 C240.17 194.33, 246.04 186.65, 262.63 166.87 M240.78 199.16 C243.11 194.6, 248.9 188.14, 263.35 174.45 M239.35 200.46 C246.39 193.61, 250.71 185.49, 262.81 172.31 M246.1 200.25 C250.07 196.07, 257 189.28, 264.64 178.77 M243.57 200.1 C247.78 195.57, 251.41 192.52, 263.53 178.51 M248.78 199.56 C252.47 195.75, 255.83 192.15, 262.29 184.98 M249.83 201.02 C251.36 196.73, 254.17 195.21, 262.53 185.81 M253.85 201.17 C257.99 197.1, 259.56 195.6, 263.27 190.56 M254.6 200.11 C257.13 197.23, 259.45 194.49, 262.65 191.71" stroke="#fd7e14" stroke-width="0.5" fill="none"></path><path d="M0.68 -0.7 C92.81 1.48, 184.25 2.76, 261.09 0.61 M-0.27 0.58 C87.11 0.95, 175.11 0.13, 260.1 0.27 M259.15 1.19 C258.38 42.07, 257.12 81.43, 259.31 201.11 M260.04 0.02 C259.73 69.71, 260.21 138.84, 260.06 199.41 M261.32 199.09 C194.92 199.03, 128.61 200.75, 0.83 198.97 M260.5 200.4 C161.22 200.2, 63.04 199.85, 0.1 199.25 M0.98 201.02 C0.58 141.21, -1.65 85.81, -0.45 -0.6 M-0.72 199.39 C0.78 129.05, 1.06 57.37, -0.16 -0.77" stroke="#000000" stroke-width="1" fill="none"></path></g><g transform="translate(973.2640533447266 172.5) rotate(0 106.73594665527344 17.5)"><text x="106.73594665527344" y="0" font-family="Virgil, Segoe UI Emoji" font-size="28px" fill="#000000" text-anchor="middle" style="white-space: pre;" direction="ltr" dominant-baseline="text-before-edge">SSA Generation</text></g><g stroke-linecap="round" transform="translate(1410 90) rotate(0 130 100)"><path d="M0 0 C0 0, 0 0, 0 0 M0 0 C0 0, 0 0, 0 0 M-0.51 6.59 C1.07 5.13, 2.37 3.21, 4.79 0.15 M-0.02 6.8 C1.19 5.18, 2.23 3.16, 5.21 0.1 M1.65 12.73 C4.55 6.18, 8.67 3.16, 9.67 -0.43 M0.17 11.68 C2.3 8.62, 4.36 6.17, 9.94 -0.64 M-1.61 19.68 C3.62 13.66, 5.88 9.13, 14.9 -1.08 M-0.74 17.49 C6.11 12.93, 10.65 6.03, 16.42 -0.57 M1.99 25.25 C6.75 18.98, 14.09 11.62, 22.22 0.78 M0.59 24.96 C6.34 15.63, 13.84 8.19, 21.19 0.32 M0.52 28.95 C8.88 22.31, 18.27 9.88, 25.38 -0.89 M-0.14 30.99 C9.32 19.5, 18.73 8.7, 26.53 0.3 M-1.47 36.77 C7.24 27.52, 17.24 17.73, 32.67 -1.92 M0.32 37.5 C9.12 26.27, 15.83 17.94, 32.22 0.43 M-0.33 44.32 C14.15 29.97, 22.6 13.15, 35.72 0.67 M0.22 41.85 C12.07 30.41, 23.48 16.48, 36.49 -0.41 M-0.87 49.8 C13.76 35.48, 24.48 22.01, 43.08 -0.66 M-0.88 48.18 C15.81 30.11, 32.19 11.48, 42.59 0.59 M0.51 53.39 C16.49 36.9, 31.55 18.31, 49.26 0.78 M-0.12 54.31 C11.11 41.49, 23.76 27.91, 47.92 -0.63 M0.86 61.95 C17.44 41.95, 32.57 20.23, 52.3 0.52 M-0.25 60.98 C14.36 45.99, 26.6 31.26, 52.55 -0.89 M-0.39 68.49 C14.57 50.98, 30.16 34.26, 58.85 -0.35 M0.25 66.63 C22.1 42.26, 42.82 19.76, 58.41 -0.56 M-1.07 73.03 C22.77 49.79, 38.79 26.03, 65.7 -0.48 M-0.37 72.91 C17.54 54.45, 34.47 34.99, 63.81 0.56 M-1.96 77.64 C15.12 62.44, 28.73 45.5, 68.88 -1.58 M0.17 79.06 C26.5 46.74, 54.52 16.09, 68.56 0.41 M0.12 83.8 C20.97 62.61, 40.75 35.15, 73.19 -1.77 M1.15 85.76 C17.97 65.25, 37.01 43.95, 74.56 -1.2 M-0.6 91.12 C20.05 67.53, 41.9 41.67, 81.28 1.2 M0.97 91.38 C27.45 60.48, 54.68 29.01, 78.92 0.61 M0.05 98.77 C25.24 66.9, 55.15 32.24, 83.2 0.51 M0.04 97.81 C20.05 72.49, 42.82 47.93, 84.5 -0.09 M-1.48 104.4 C21.04 78.2, 40.01 56.75, 89.48 1.08 M0.17 102.89 C26.11 72.05, 53.75 43.54, 89.05 -0.84 M-0.12 109.13 C27.12 79.71, 55.31 49.3, 96.7 -1.83 M-1.03 109.85 C31.38 74.08, 62.62 35.51, 95.78 -0.71 M-1.27 116.92 C24.12 91.84, 45.46 65.01, 100.49 -1.87 M-0.25 116.16 C36.39 72.05, 74.27 28.36, 100.48 0.95 M0.3 123.33 C25.6 89.84, 53.22 59.83, 105.18 1.01 M0.64 122.72 C25.28 92.89, 49.58 64.28, 106.07 0.58 M1.26 126.87 C39.83 81.37, 81.63 31.03, 112.81 1.36 M0.51 128.76 C23.94 97.61, 50 68.25, 111.74 -0.38 M-1.81 134.01 C29.87 100.12, 59.44 67.41, 116.03 -0.46 M-0.63 133.24 C28.04 101.38, 55.88 69.03, 116.85 -0.58 M1.83 142.1 C36.1 97.69, 71.87 55.17, 122.48 -1.23 M-0.28 141.27 C40.68 92.38, 84.85 41.81, 121.33 0.59 M-0.01 144.79 C47.62 90.94, 98.16 32.78, 125.11 -0.02 M-0.51 146.01 C44.6 97.47, 86.87 45.69, 127.04 -0.51 M0.63 150.91 C31.97 114.62, 65.52 76.28, 133.03 -0.62 M0.14 152.78 C44.98 99.81, 89 48, 132.71 0.03 M-0.92 157.23 C37.2 114.72, 76.49 69.34, 138.71 -1.04 M-0.34 159.13 C41.09 110.3, 81.98 63.29, 138.04 0.01 M-0.55 164.14 C46.86 111.43, 90.57 57.71, 141.93 -0.94 M-0.21 164.95 C34.93 124.99, 68.43 87.97, 143.4 -0.1 M-0.03 172.47 C32.28 134.21, 64.3 97.24, 147.09 1.42 M0.35 170.4 C48.05 113.01, 97.2 55.84, 147.71 -0.33 M1.54 175.62 C36.95 135.47, 72.67 92.77, 153.18 -1.26 M-0.07 175.89 C60.02 109.21, 117.82 40.12, 153.87 -0.95 M1.1 181.51 C34.8 140.51, 70.77 98.28, 159.31 1.78 M-0.46 182.26 C43.49 133.66, 85.67 86.44, 159.54 0.25 M-0.16 190.57 C34.43 147.77, 71.86 105.23, 165.1 -1.69 M-0.24 189.04 C62.12 117.34, 125.37 44.44, 164.5 -0.44 M-0.32 194.17 C64.29 117.84, 131.22 40.85, 169.12 -0.09 M0.8 194.39 C62.8 121, 127.15 48.13, 169.76 0.24 M-0.98 199.52 C48.67 142.61, 101.5 86.87, 175.79 -1.56 M0.73 199.97 C57.95 132.45, 117.91 65.39, 174.84 -0.87 M4.99 200.57 C64.71 129.7, 124.73 61.84, 180.82 -1.21 M6.13 200.3 C62.69 134.92, 119.65 68.7, 180.12 0.89 M10.38 201.7 C72.83 129.31, 134.12 62.94, 184.75 -1.09 M11.28 201 C78.69 120.54, 147.65 42.25, 185.98 0.15 M16.27 199.39 C77.58 131.91, 137.56 61.27, 191.02 -0.46 M16.17 200.84 C63.97 147.53, 110.57 93.82, 190.22 0.41 M22.6 199.82 C77.44 135.48, 131.6 73.8, 197.3 0.37 M21.04 201.05 C58.27 158.03, 95.74 116.06, 196.68 -0.7 M27.99 201.06 C69.32 154.82, 107.77 107.58, 199.94 0.2 M26.21 200.54 C78.53 139.85, 130.71 79.66, 201.64 -0.38 M31.45 201.09 C100.66 121.56, 172.6 39.2, 207.37 -0.54 M33.03 200.29 C83.33 143.81, 132.25 86.75, 207.21 -0.63 M38.43 199.52 C84.46 142.01, 134.13 88.24, 212.97 0.36 M37.32 200.74 C77.2 153.58, 117.44 107.28, 212.41 -0.44 M44.2 201.65 C80.39 158.19, 117.09 113.8, 217.96 -0.09 M43.55 200.69 C81.79 155.25, 121.17 110.81, 217.09 -0.97 M49.35 201.34 C103.42 140.24, 155.68 79.29, 223.25 -0.42 M48.85 201.03 C86.3 157.13, 124.74 111.89, 222.52 0.65 M52.7 200.77 C100.28 146.62, 145.74 93.79, 227 -1.7 M54.02 200.46 C104.37 142.08, 154.34 84.62, 228.96 -0.11 M57.35 199.66 C123.05 127.26, 189.42 51.29, 232.28 -1.03 M58.56 200.83 C113.37 135.65, 169.87 69.79, 233.12 0.41 M63.5 199.26 C108.65 146.9, 156.76 96.12, 237.68 -0.95 M63.86 199.63 C107.95 149.2, 150.49 99.3, 237.68 0.23 M68.2 201.02 C123.21 138.82, 174.87 77.79, 245.1 -0.36 M69.73 200.15 C132.14 128.61, 192.88 57.71, 244.17 0.47 M74.03 201.09 C111.21 157.66, 148.05 116.5, 250.09 0.38 M74.47 200.78 C126.66 141.79, 177.78 84.43, 249.57 0.59 M79.34 201.66 C144.61 124.76, 212.01 50.87, 252.99 1.07 M79.3 200.41 C118.21 158.44, 155.83 116.32, 255.22 -0.45 M86.92 199.12 C139.69 140.2, 192.55 75.08, 258.76 0.32 M85.25 200.39 C146.53 129.78, 206.89 59.83, 260.24 -0.37 M91.05 201.75 C159.47 125.3, 226.66 48.48, 264.62 1.82 M91.31 200.46 C153.81 127.52, 219.73 52.61, 262.66 2.77 M95.7 198.82 C138.43 149.66, 182.91 98.49, 262.41 10.03 M95.98 200.7 C158.02 129.41, 221.78 56.79, 263.51 8.13 M101.64 200.63 C137.58 160.16, 172.16 118.85, 263.3 14.36 M101.9 200.55 C163.74 127.32, 228.34 53.38, 261.95 15.18 M105.37 201.05 C164.79 134.74, 225.94 64.54, 264.28 22.21 M106.03 200.98 C143.91 156.31, 181.68 111.13, 263.52 19.89 M112.19 201.68 C153.04 151.95, 192.11 106.67, 262.35 28.55 M111.02 199.93 C142.54 165.51, 172.7 129.16, 262.92 26.33 M118.52 199.93 C154.51 158.11, 188.76 119.34, 264.82 32.52 M116.78 199.8 C153.78 155.37, 192.2 111.26, 263.76 32.52 M121.76 200.82 C151.06 164.67, 180.23 131.38, 263.8 37.66 M122.08 201.02 C151.54 168.55, 180.22 134.71, 262.7 39.9 M129.65 201.23 C162.66 159.04, 197.48 120.94, 263.31 45.52 M127.58 199.35 C164.03 160.06, 198.16 118.4, 262.92 45.47 M132.38 201.68 C164.61 168.04, 192.19 130, 263.97 51.37 M132.57 199.97 C183.69 143.52, 233.47 85.92, 262.85 51.37 M139.83 201.21 C177.52 153.65, 218.53 108.93, 262.38 55.52 M137.43 200.28 C172.97 158.58, 211.61 117.22, 263.46 57.36 M144.42 199.4 C167.22 169.76, 195.2 142.15, 264.53 63.7 M143.53 199.85 C191.37 148.01, 236.73 94.13, 262.8 63.19 M150.48 202.71 C188 159.29, 224.18 113.57, 262.53 67.63 M148.86 201.47 C188.12 152.9, 229.27 108.48, 262.9 69.85 M153.29 202.04 C195.73 154.77, 230.91 111.19, 263.61 76.35 M154.93 200.87 C183.23 167.12, 212.09 134.16, 261.71 76.47 M158.17 199.39 C185.17 166.92, 215.28 134.86, 262.5 81.23 M158.81 200.97 C185.24 173.8, 209.54 143.69, 263.49 81.7 M164.03 200.59 C194.33 165.6, 225.11 130.59, 263.71 86.9 M164.78 200.94 C196.67 166.3, 227.22 130.55, 262.19 88.17 M170.45 201.96 C201.89 165.39, 232.09 126.01, 264.5 92.65 M170.39 200.45 C197.78 169.19, 225.93 137.81, 262.39 94.37 M177.22 199.01 C196.92 173.92, 222.22 144.7, 261.89 99.18 M176.07 200.75 C197.09 175.82, 218 150.65, 263.39 100.81 M179.42 201.13 C198.7 179.23, 215.93 157.98, 263.6 105.97 M181.2 200.86 C204.19 173.99, 227.67 145.35, 262.12 105.9 M186.96 200.24 C210.2 175.02, 230.48 145.51, 262.39 110.24 M185.76 200.73 C215 165.68, 245.24 130, 262.57 112.39 M191.69 201.56 C207.12 182.99, 222.78 167.6, 264.39 119.93 M190.35 201.39 C212.01 174.63, 233.66 150.67, 262.12 118.78 M194.91 200.18 C223.39 170.66, 250.08 138.88, 262.01 125.08 M197.82 200.1 C217.37 177.4, 238.79 151.5, 263.51 124.2 M202.44 199.88 C220.42 180.24, 234.15 161.55, 263 130.55 M201.39 200.52 C216.53 181.46, 234.02 164.84, 263.88 129.57 M208.21 201.7 C219.39 188.96, 230.15 176.72, 263.38 135.44 M208.19 199.84 C220.98 184.93, 233.68 170.61, 262.79 136.54 M213.33 198.7 C224.02 187.51, 237.33 175.32, 263.76 142.03 M213.39 200.98 C223.79 189.28, 234.16 177.26, 262.51 142.82 M217.59 200.62 C230.56 182.86, 246.32 165.99, 263.68 150.75 M217.8 199.68 C233.18 181.86, 248.17 165.23, 263.45 148.7 M222.59 200.59 C235.31 184.03, 251.55 170.75, 264.52 153.56 M223.9 200.75 C231.81 191.06, 239.26 181.91, 263.1 154.85 M227.27 199.77 C240.59 185.2, 254.2 169.7, 264.6 160.68 M229.55 201.14 C238.33 187.2, 249.44 176.76, 262.07 160.53 M234.97 202.09 C240.28 191.05, 249.81 183.03, 262.03 166.03 M233.95 200.12 C241.24 191.27, 248.31 183.84, 263.08 167.49 M241.01 198.91 C246.2 193.99, 248.1 187.54, 261.07 174.12 M239.34 200.48 C247.52 190.38, 257.55 180.77, 262.33 172.36 M243.74 199.71 C249.93 195.23, 252.53 190.8, 264.5 181.06 M245.04 200.62 C251.64 191.38, 258.75 183.39, 261.83 180.09 M247.46 201.54 C253.89 198.59, 256.44 195.61, 262.51 185.93 M248.39 200.5 C253.6 197.72, 255.7 192.82, 263.42 184.81 M256.04 200.15 C256.7 198.14, 258.55 196.09, 262.2 191.47 M254.51 200.21 C257.95 197.34, 260.48 194.68, 263.41 191.19" stroke="#fd7e14" stroke-width="0.5" fill="none"></path><path d="M-0.67 0.19 C57.53 1.25, 118.37 1.38, 260.87 0.9 M0.27 -0.2 C91.12 1.98, 182.7 0.8, 259.36 -0.54 M261.53 -0.33 C259.96 74.27, 261.57 145.56, 258.8 200.39 M259.25 0.48 C261.16 65.47, 260.49 132.13, 260.12 199.92 M259.17 200.68 C199.68 199.06, 138.84 199.49, 0.68 200.56 M260.43 200.04 C177.53 197.77, 94.98 198.7, -0.15 200.07 M1.32 198.65 C-2.45 138.86, 0.02 75.69, 1.4 0.17 M-0.1 199.67 C0.69 156.15, 1.25 112.08, 0.8 -0.72" stroke="#000000" stroke-width="1" fill="none"></path></g><g transform="translate(1442.336036682129 155) rotate(0 97.6639633178711 35)"><text x="97.6639633178711" y="0" font-family="Virgil, Segoe UI Emoji" font-size="28px" fill="#000000" text-anchor="middle" style="white-space: pre;" direction="ltr" dominant-baseline="text-before-edge">Machine Code </text><text x="97.6639633178711" y="35" font-family="Virgil, Segoe UI Emoji" font-size="28px" fill="#000000" text-anchor="middle" style="white-space: pre;" direction="ltr" dominant-baseline="text-before-edge">Generation</text></g><g transform="translate(730 30) rotate(0 134.3798828125 12.5)"><text x="0" y="0" font-family="Virgil, Segoe UI Emoji" font-size="20px" fill="#000000" text-anchor="start" style="white-space: pre;" direction="ltr" dominant-baseline="text-before-edge">Go code compilation phases</text></g></svg>