<svg version="1.1" xmlns="http://www.w3.org/2000/svg" viewBox="0 0 1700 320" width="1700" height="320">
  <!-- svg-source:excalidraw -->
  
  <defs>
    <style class="style-fonts">
      @font-face {
        font-family: "Virgil";
        src: url("https://excalidraw.com/Virgil.woff2");
      }
      @font-face {
        font-family: "Cascadia";
        src: url("https://excalidraw.com/Cascadia.woff2");
      }
    </style>
  </defs>
  <rect x="0" y="0" width="1700" height="320" fill="#ffffff"></rect><g stroke-linecap="round" transform="translate(330 90) rotate(0 130 100)"><path d="M0 0 C0 0, 0 0, 0 0 M0 0 C0 0, 0 0, 0 0 M0.02 7.02 C2.17 4.31, 3.09 2.88, 5.08 0.33 M0.03 6.42 C1.03 5.29, 2.15 3.64, 5.11 0.41 M0.33 11.24 C1.46 7.79, 5.07 6.35, 10.11 0.18 M0.86 11.93 C2.93 9.1, 4.98 5.67, 10.01 0.7 M1.3 17.43 C6.18 12.18, 10.06 4.11, 14.01 1.26 M0.5 19.38 C4.04 13.45, 7.94 10.68, 16.21 0.68 M-1 26.06 C8.28 15.79, 15.95 4.1, 21.35 -1.91 M-0.31 24.51 C5.07 17.94, 9.49 12.25, 21.5 -0.07 M1.92 30.39 C7.4 24.18, 11.9 15.81, 27.49 2.15 M0.72 31.39 C8.19 21.7, 15.39 13.5, 26.23 0.55 M-1.92 35.8 C10.4 25.46, 16.7 17.47, 32.97 0.25 M-0.08 36.45 C10.61 25.5, 20.55 14.39, 30.89 0.48 M1.4 42.53 C11.04 30.12, 22.84 15.97, 36.41 -0.75 M-0.79 42.9 C11.06 30.26, 21.66 19.16, 37.02 0.85 M0.05 50.66 C9.89 37.45, 20.61 22.5, 44.1 0.76 M0.5 48.14 C8.12 39.78, 17.38 29.18, 41.82 0.07 M1.37 55.5 C13.97 37.18, 31.05 20.19, 47.03 1.84 M-0.43 54.62 C11.75 39.64, 24.29 26.32, 47.23 1.1 M0.89 60.31 C17.85 37.78, 36.92 17.08, 54.5 1.64 M-0.76 61.06 C10.09 49.86, 20.9 36.47, 52.54 -0.52 M-0.69 67.7 C16.99 50.25, 29.98 31.41, 59.14 2.15 M-0.78 67.28 C16.07 49.06, 33.49 27.9, 57.48 0.59 M-1.23 72.61 C15.91 56.19, 31.85 35.45, 62.49 -1.15 M0.57 73.68 C17.73 52.07, 34.76 32.54, 62.8 -0.26 M1.24 81.22 C15.6 62.15, 31.69 40.49, 68.07 1.41 M-0.98 79.6 C25.36 51.51, 48.77 23.26, 69.38 -0.63 M-0.61 84.4 C17.76 65.8, 34.65 48.01, 74.92 0.36 M-0.07 85.24 C28.22 53.43, 53.95 23.46, 74.82 -0.83 M-0.3 92.39 C29.32 61.13, 53.15 27.37, 78.68 -0.21 M0.37 91.83 C23.45 65.77, 47.07 38.56, 78.54 -0.73 M1.32 96.24 C28.49 61.81, 58.73 26.84, 85.15 0.06 M0.06 97.5 C25.68 67.52, 52.38 39.86, 84.34 0.35 M-1.55 102.75 C29.52 70.17, 55.43 39.03, 91.35 -1.55 M0.78 103.73 C21.63 78.37, 44.96 54.36, 89.53 0.87 M0.65 111.4 C27.93 79.26, 55.55 46.56, 95.09 -0.15 M0.69 110.73 C25.82 79.34, 49.72 49.37, 95.53 -0.87 M1.77 113.8 C41.15 70.41, 79 29.01, 100.01 1.49 M0.29 116.34 C37.05 70.67, 74.19 27.37, 100.93 0.51 M1.01 122.37 C31.53 84.95, 65.55 47.96, 105.18 -0.42 M-0.48 121.22 C37.21 78.37, 72.94 36.29, 106.1 -0.4 M-0.19 129.78 C43.57 80.15, 87.1 32.83, 110.12 2.01 M-0.29 127.71 C42.34 79.57, 85.51 29.08, 110.29 -0.67 M-1.77 133.88 C33.43 98, 62.05 60.11, 115.73 -0.18 M-0.07 133.27 C47.27 81.28, 92.91 28.6, 115.55 -0.1 M1.23 140.64 C28.37 106.25, 58.1 75.08, 120.64 0.07 M0.36 140.89 C25.48 110.33, 51.56 80.7, 121.14 0.19 M1.66 145.59 C30.62 107.2, 61.66 69.49, 127.54 0.86 M1.26 146.96 C40.57 98.81, 82.43 50.91, 126.85 0.16 M-0.67 152.51 C35.27 110.6, 71.87 70.24, 133.94 0.62 M-0.86 151.56 C39.65 106.17, 80.16 59.33, 132.05 0.66 M-0.43 158.9 C43.17 112.75, 83.39 63.6, 136.18 1.11 M-0.75 157.98 C35.79 117.31, 71.53 77.13, 137.48 0.07 M0.25 163.05 C44.22 114.66, 86.08 64.56, 142.62 -0.13 M-0.25 163.64 C49.98 107.97, 97.91 52.55, 143.35 0.34 M-0.34 171.8 C41.53 124.04, 82.41 75.34, 147.74 0.56 M-0.58 171.05 C53.29 108.32, 105.99 46.59, 148.92 0.64 M1.07 175.17 C54.43 113.51, 109.97 51.6, 153.58 -1.24 M-0.16 177.28 C49.01 120.13, 97.71 64.98, 154.6 -0.56 M-0.69 182.21 C40.43 135.11, 80 90.48, 157.82 -1.01 M0.32 182.77 C64.01 109.24, 128.61 35.47, 159.53 0.54 M-0.93 188.94 C58.06 121.14, 118.96 52.4, 164.25 0.53 M0.36 189.5 C46.15 135.59, 92.77 82.3, 163.77 -0.4 M1.37 196.44 C47.31 139.36, 95.26 84.46, 167.88 1.05 M-0.32 194.16 C66.61 117.72, 134.89 39.47, 169.06 0.38 M-0.41 199.86 C43.21 153.06, 82.81 105.9, 175.16 -0.69 M1.13 201.32 C69.99 122.87, 137.05 45.88, 174.55 -0.29 M7.67 201.53 C43.78 157.63, 80.96 113.82, 179.58 1.47 M6.91 199.94 C71.31 126.11, 135.82 50.98, 180.78 0.16 M11.45 199.18 C79.95 119.03, 148 40.29, 184.85 -1.73 M10.67 200.66 C51.07 157.12, 89.48 114.06, 185.61 0.13 M16.75 199.47 C70.61 139.65, 123.44 77.55, 190.27 0.04 M15.44 200.49 C53.46 160.34, 90.16 117.45, 191.13 0.03 M20.93 200.77 C66.08 150.81, 107.35 102.93, 197.85 1.23 M21.78 199.94 C74.1 141.1, 124.83 83.01, 196.52 0.29 M25.38 200.68 C62.68 159.4, 99.29 116.53, 200.95 -0.43 M26.14 201.51 C93.41 125.56, 156.96 51.91, 201.75 -0.38 M30.87 200.83 C86.37 136.56, 143.72 72.51, 207.22 -1.46 M32.78 199.72 C91.89 130.76, 151.84 63.25, 206.81 -0.61 M37.33 202.32 C103.08 124.73, 170.14 46.55, 211.41 1.27 M37.75 200.75 C108.32 119.91, 176.54 40.27, 212.25 0.31 M42.96 200.29 C96.69 137.64, 151.51 75.33, 218.31 0.31 M43.13 200.74 C85.72 153.02, 127.02 105.75, 218.37 0.43 M47.18 201.53 C93.45 148.07, 138.05 96.9, 221.88 0.02 M47.28 200.56 C83.46 159.16, 118.47 118.28, 222.64 -0.24 M52.96 200.04 C97.16 149.15, 139.55 102.73, 228.19 0 M54.29 200.01 C102.58 146.95, 149 92.33, 228.35 -0.14 M60.21 200.98 C113.66 137.48, 165.5 76.47, 234.57 -1.45 M58.02 201.51 C126.56 122.74, 193.23 45.95, 232.53 0.56 M64.98 199.38 C120.68 136.51, 176.8 71.33, 239.22 -1.06 M64.13 201.09 C108.28 148.34, 152.86 97.99, 238.74 0.28 M68.67 200.94 C131.47 131.46, 194.67 59.33, 242.64 -0.39 M69.34 200.03 C122.72 140.83, 175.58 79.28, 243.48 0.01 M74.04 200.73 C121.25 148.78, 165.67 94.69, 247.48 1.69 M75.64 200.6 C119 151.04, 161.3 101.37, 248.76 0.21 M78.66 200.85 C127.81 144.73, 175.95 90.05, 253.91 1.14 M80.56 200.28 C117.57 157.24, 155.74 113.12, 255.07 0.34 M86.68 201.76 C148.54 128.95, 213.37 55.59, 259.33 0.03 M85.09 200.14 C121.74 158.22, 156.55 118.02, 259.6 -0.5 M89.61 200.94 C139.15 147.94, 184.22 94.2, 261.96 3.35 M90.23 200.69 C150.78 131.95, 210.45 63.54, 263.72 2.3 M97.2 200.08 C136.64 155.35, 174.55 108.7, 263.16 8.27 M95.44 200.74 C150.99 136, 207.41 70.67, 262.71 8.51 M102.2 200.6 C135.18 158.13, 171.04 119.24, 263.54 13.96 M101.62 201.13 C163.27 130.44, 224.48 61.03, 263.35 14.47 M108.22 201.3 C149.15 147.9, 192.4 98.82, 264.49 19.14 M106.1 200.43 C162.22 136.51, 218.67 71.24, 263.07 20.63 M113.5 199.96 C163.97 141.25, 213.96 82.08, 263.24 27.64 M112.45 200.36 C173.31 132.63, 232.3 62.3, 262.05 26.85 M116.21 201.33 C175.4 133.81, 233.44 68.03, 262.79 31.82 M116.89 199.83 C152.22 161.79, 187.19 122.83, 263.39 33 M121.51 201.79 C163.97 155.6, 203.8 108.75, 263.64 39.62 M121.86 200.31 C172.42 141.22, 222.39 83, 263.74 38.43 M126.53 200.85 C165.51 155.42, 202.57 112.46, 263.36 44.14 M128.89 199.86 C160.49 164.42, 191.58 127.87, 263.26 46.31 M134.54 199.09 C170.16 159.14, 205.97 121.44, 261.55 50.86 M133.44 200.18 C183.3 141.96, 235.21 84.06, 263.19 50.11 M137.75 201.45 C181.02 150.39, 222.5 102.39, 260.77 57.73 M137.58 201.73 C171.55 165.45, 203.38 126.41, 262.36 56.87 M144.21 202.34 C185.71 149.43, 229.44 101.95, 263.77 64.46 M143.64 200.9 C176.54 159.12, 211.11 120.31, 263.3 63.53 M148.97 200.37 C189.78 152.36, 235.99 99.88, 262.14 70.14 M149.06 200.59 C188.44 156.46, 229.38 109.1, 263.09 69.6 M152.83 199.8 C195.03 153.19, 233.37 108.49, 261.36 76.45 M153.4 200.04 C180.22 169.69, 207.33 138.57, 263.39 76.05 M161.33 201.29 C186.94 169.71, 214.92 132.79, 261.14 80.64 M158.44 201.03 C196.07 157.53, 231.77 115.69, 262.75 80.8 M164.38 198.53 C200.19 161.73, 234.81 122.83, 261.75 86.48 M165.78 200.99 C196.21 165.75, 226.14 130.48, 262.1 87.1 M171.31 201 C199.66 163.36, 231.59 126.86, 262.93 93.64 M170.89 201.2 C194.19 172.29, 219.77 144.84, 263.55 93.43 M174.39 198.56 C202.57 171.22, 229.42 141.4, 262.94 100.44 M174.78 199.89 C205.18 166.71, 234.66 132.36, 262.6 99.66 M179.95 200.25 C207.81 167.83, 240.01 132.61, 261.51 105.25 M180.03 200.49 C204.15 173.14, 227.89 145.35, 263.02 106.97 M187.9 198.87 C207.07 174.65, 227.04 150.24, 262.12 113.44 M186.42 200.66 C201.86 181.87, 219.56 163, 262.22 112.22 M190.81 201.77 C214.74 174.71, 236.39 147.32, 264.4 118.32 M190.99 200.58 C216.8 170.01, 242.56 139.37, 263.65 119.4 M197.48 199.44 C216.21 176.93, 236.52 154.84, 265 124.55 M197.68 199.98 C214.56 180.55, 230.23 163.68, 262.73 124.52 M199.99 200.26 C222.37 180.82, 240.19 155.97, 262.68 128.89 M201.38 200.4 C217.24 184.19, 232.53 165.57, 261.94 130.75 M209.25 199.18 C229.41 176.45, 252.88 152.49, 263.18 135.57 M207.54 200.28 C229.1 175.29, 249.7 151.42, 262.77 137.33 M214.09 200.39 C221.15 187.83, 232.69 177.15, 263.61 141.25 M212.27 201.16 C224.27 186.7, 237.48 171.68, 262.05 143.02 M216.83 202.01 C234.09 183.18, 253.37 163.76, 262.75 149.98 M217.95 200.79 C234.94 180.95, 251.27 160.1, 263.4 148.43 M224.29 198.79 C231.72 191.04, 240.99 176.98, 263.99 154.63 M223.26 201.33 C234.69 188.13, 244.4 175.7, 264.1 154 M227.41 198.79 C238.85 186.7, 247.74 179.03, 262.36 159.54 M228.86 200.47 C236.9 191.07, 245.88 180.99, 263.21 160.12 M232.26 202.06 C244.58 189.06, 255.05 177.95, 263.48 166 M233.4 199.64 C244.02 189.39, 254.49 177.41, 262.54 167.01 M239.67 201.35 C245.96 190.21, 256.11 181.43, 261.86 171.17 M239.19 201.07 C247.63 188.49, 257.12 178.62, 263.95 173.2 M244.23 200.78 C248.6 196.98, 253.88 189.05, 261.26 181.04 M244.23 200.08 C251.33 193.33, 258.59 185.19, 261.79 178.86 M249.21 201.27 C253.82 194.79, 261.07 191.47, 263.62 185.81 M249.19 200.85 C253.58 196.97, 256.36 192.73, 262.82 184.75 M256.17 199.88 C258.58 197.57, 260.98 193.97, 262.4 192.16 M254.88 200.75 C257.3 197.71, 259.65 194.88, 263.13 191.4" stroke="#fd7e14" stroke-width="0.5" fill="none"></path><path d="M-0.49 -0.81 C98.26 0.75, 197.42 3.45, 260.08 1.29 M-0.23 0.48 C90.11 -2.22, 179.7 -2.22, 259.33 -0.3 M258.96 0.13 C262.34 65.03, 263.1 127.58, 260.68 201.09 M260.35 -0.84 C259.02 47.33, 259.53 92.4, 259.39 199.53 M259.88 200.01 C200.42 197.52, 141.47 198.4, 0.22 200.9 M259.64 200.38 C197.24 199.85, 135.35 200.2, -0.2 199.67 M1.07 199.87 C0.13 128.26, -2.19 58.86, 1.42 1.32 M-0.59 199.15 C1.36 133.22, 1.12 66.27, -0.5 0.51" stroke="#000000" stroke-width="1" fill="none"></path></g><g transform="translate(422.41001892089844 172.5) rotate(0 37.58998107910156 17.5)"><text x="37.58998107910156" y="0" font-family="Virgil, Segoe UI Emoji" font-size="28px" fill="#000000" text-anchor="middle" style="white-space: pre;" direction="ltr" dominant-baseline="text-before-edge">Lexer</text></g><g stroke-linecap="round" transform="translate(1070 90) rotate(0 130 100)"><path d="M0 0 C0 0, 0 0, 0 0 M0 0 C0 0, 0 0, 0 0 M-0.57 5.91 C2.29 4.71, 3.33 2.07, 5.73 0.05 M-0.14 6.67 C0.93 5.27, 2.48 3.55, 5.16 0.02 M0.4 12.71 C4.14 10.14, 4.37 6.21, 10.26 -1.22 M-0.16 12.29 C4 7.98, 6.56 4.23, 10.44 -0.2 M0.31 18.6 C6.78 12.88, 9.74 4.07, 14.98 1.25 M-0.76 18.71 C2.85 15.45, 6.56 9.6, 15.22 0.59 M1.81 24.35 C5.59 18.68, 10.96 12.69, 21.75 -0.84 M-0.67 23.62 C9.37 15.5, 17.71 4.19, 21.5 0.76 M-0.5 28.96 C8.27 21.38, 14.22 13.17, 24.38 1.16 M-0.49 29.74 C8.09 21.81, 15.22 12.49, 26.84 1.28 M-1.56 35.17 C11.13 25.21, 19.81 13.8, 32.12 -1.85 M-0.36 36.9 C7.23 28.72, 14.5 20.66, 32.32 -0.32 M0.96 42.18 C8.83 32.38, 16.88 20.46, 35.07 1.35 M0.17 42.74 C11.84 27.96, 22.82 14.59, 36.4 -0.57 M-0.68 48.25 C13.4 36.53, 24.22 20.79, 42.04 -1.47 M-0.68 48.35 C13.19 33.84, 27.03 16.73, 42.28 0.24 M1.07 55.72 C11.9 42.88, 24.7 28.45, 46.05 0.42 M-0.18 55.27 C11.82 41.09, 24.7 27.19, 47.84 -0.59 M-1.58 61.33 C19.56 37.97, 38.94 15.27, 54.23 0.92 M0.83 60.9 C15.94 44.73, 31.6 25.76, 53.03 0.18 M1.54 69.3 C16.48 47.09, 31.72 29.56, 57.27 -0.5 M0.68 67.6 C12.27 51.83, 26.43 38.32, 57.82 1.06 M-0.69 73.89 C14.1 55.37, 29.61 38.01, 63.38 1.45 M0.04 72.21 C24.75 45.01, 49.74 14.54, 63.52 0.2 M-2 79.94 C27.78 48.8, 50.67 20.83, 67.69 0.24 M0.16 78.75 C23.12 52.59, 44.88 25.65, 68.79 0.71 M0.56 85.97 C15.14 67.64, 31.44 49.01, 74.18 -2.21 M0.57 84.41 C20.49 61.49, 41.08 38.03, 74.95 -1.01 M-1.93 92.44 C29.87 57.14, 54.82 25.22, 81.18 -1.18 M0.01 91.97 C31.49 55.4, 62.57 18.76, 79.96 0.15 M1.03 96.88 C30.21 64.52, 62.28 28.22, 83.24 -0.86 M0.17 97.87 C31.67 61.2, 64.46 25.48, 85.78 0.24 M2.03 102.37 C28.59 69.74, 57.47 37.39, 88.62 -0.03 M-0.12 102.77 C18.27 82.05, 36.82 61.31, 90.3 -0.31 M0.53 108.21 C36.64 68.13, 72.04 25.78, 97.18 0.24 M0.31 109.2 C30.56 73.65, 59.78 38.63, 94.75 -0.41 M0.1 114.85 C33.75 79.12, 66.69 39.79, 101.85 -1.07 M-0.3 114.61 C26.57 85.58, 52.56 55.53, 101.57 -0.9 M1.87 122.33 C21 97.67, 41.8 73.02, 106.56 -0.65 M-0.73 122.74 C40.28 76.66, 78.51 30.83, 105.86 -0.3 M-2.18 127.26 C39.92 80.6, 78.03 36.46, 111.67 -0.52 M-0.01 128.7 C28.46 92.55, 59.51 57.46, 111.26 0.64 M-0.52 133.4 C40.15 88.68, 75 48.61, 115.27 1.02 M-0.26 134.57 C41.52 87.24, 81.11 39.47, 116.71 -0.05 M0.67 140.26 C41.1 94.92, 77.92 50.31, 121.86 -0.07 M-0.49 139.98 C28.46 105.72, 56.45 73.26, 121.65 0.07 M0.75 146.11 C34.49 111.43, 64.56 71.59, 125.13 -0.94 M1.18 146.24 C37.53 101.71, 76.57 57.68, 126.16 0.45 M0.11 152.33 C30.32 114.71, 60.68 81.81, 131.31 -0.78 M0.31 152.61 C46.11 100.67, 91.57 47.61, 132.75 -0.35 M-0.55 158.46 C30.35 125.79, 57.25 91.24, 137.91 -0.76 M0.11 158.58 C35.12 117.02, 71.65 77.46, 137.36 -0.37 M-1.48 162.89 C38.71 117.02, 76.86 74.7, 143.28 -1.36 M-0.46 164.11 C43.22 115.54, 86.87 65.43, 143.4 -0.9 M0.06 172.33 C37.53 128.06, 75.15 82.46, 148.21 1.34 M-0.04 171.42 C38.05 127.71, 75.46 85.01, 147.43 -0.12 M1.07 177.81 C45.83 123.09, 92.18 71.65, 153.07 -0.19 M0.97 176.63 C59.79 106.9, 121.59 37.33, 154.15 0.3 M0.38 181.84 C63.01 111.37, 123.08 41.99, 160.04 0.24 M-0.21 182.09 C46.09 128.2, 94.41 72.42, 159.29 -0.09 M0.22 187.86 C54.62 125.59, 112.66 62.4, 163.85 -0.36 M-0.75 189.51 C35.99 144.96, 72.24 102.75, 164.43 -0.44 M-0.15 196.07 C66.78 118.03, 132.82 39.27, 170.37 0.61 M0.01 195.19 C43.68 143.64, 88.24 92.34, 170.04 0.98 M1.36 200.67 C55.05 135.69, 111.45 71.78, 174.45 -0.97 M1.15 200.03 C64.32 124.47, 130.29 49.41, 175.17 0.35 M6.19 201.09 C45.45 155.03, 86.88 108.59, 181.18 1.55 M6.73 200.58 C62.16 134.98, 119.58 69.17, 180.46 -0.5 M11.41 200.95 C65.29 136.35, 120.91 74.32, 184.52 0.72 M10.41 201.02 C70.41 132.57, 128.59 66.59, 186.23 -0.82 M16.8 200.73 C60.09 151.47, 103.59 100.4, 191.13 -1.26 M15.65 200.17 C77.84 130.14, 140.89 56.3, 190.64 0.69 M22.06 200.77 C72.66 138.72, 125.71 78.87, 196.11 -1.57 M21.39 200.9 C89.53 121.82, 158.67 42.21, 195.75 -0.67 M26.94 200.65 C87.48 131.95, 146 59.86, 200.44 -1.47 M27.3 200.83 C90.07 128.19, 151.02 57.44, 200.89 0.19 M33.23 198.88 C68.46 160.52, 104.66 118.09, 205.68 0.49 M32.18 199.93 C93.11 129.91, 153.31 62.45, 207.2 -1.07 M38.46 202.35 C80.03 153.34, 121.82 106.43, 212.47 0.59 M37.54 201.31 C99.09 129.24, 161.99 57.56, 212.51 0.75 M41.69 199.99 C87.45 148.2, 135.48 93.95, 218.36 -0.12 M43.46 200.71 C107.24 128.44, 169.12 55.19, 217.54 -0.37 M46.71 200.66 C112.73 125.5, 176.1 50.24, 222.65 -0.53 M47.44 201.52 C112.99 125.54, 177.75 51.05, 222.29 0.39 M55.21 200.52 C98.45 152.01, 144.14 99.58, 227.41 1.03 M52.93 201.1 C111.94 132.91, 169.88 65.74, 227.52 -0.46 M57.29 201.91 C95.42 159.89, 132.33 116.68, 232.74 -1.15 M58.67 201.01 C98.93 153.75, 139.22 105.99, 232.74 -0.54 M65.75 199.7 C110.43 148.4, 152.02 98.19, 237.24 0.08 M64.05 199.72 C124.14 132.76, 184.05 64.71, 238.6 1.04 M68.66 200.19 C129.81 128.99, 190.6 58.83, 242.85 0.42 M69.55 201.26 C129.87 130.98, 188.46 62.74, 243.43 -0.12 M76.3 201.12 C130.36 136.77, 185.12 73.01, 248.7 -0.78 M75.75 199.96 C137.62 128.29, 200.98 55.2, 248.51 0.7 M80.05 201.09 C120.74 157.37, 159.62 110.36, 253.09 -0.78 M80.6 200.2 C137.92 132.94, 195.06 66.8, 254.92 -0.36 M86.68 201.68 C147.96 128.43, 208.89 56.25, 259.84 0.17 M86.37 199.61 C152.5 123.73, 218.27 47.2, 259.15 0.89 M89.88 201.11 C154.64 124.73, 220.02 49.74, 263.16 3.24 M90.57 200.87 C125.66 159.12, 160.72 118.41, 262.86 2.1 M95.06 199.47 C142.26 148.83, 188.77 94.04, 262.93 7.86 M96.04 199.63 C143.34 147.12, 189.67 94.2, 263.29 7.94 M100.47 201.99 C163.5 127.85, 223.58 56.99, 261.1 13.38 M101.99 201.2 C165.42 128.84, 227.98 55.2, 261.79 14.28 M105.99 201.85 C148.6 153.96, 189.28 106.14, 263.76 21.22 M107.53 200.24 C155.84 144.29, 205.04 86.88, 263.08 20.54 M113.53 199.26 C164.11 139.22, 216.85 78.9, 263.31 28.36 M112.39 201 C154.91 151.48, 198.93 101.57, 261.99 26.79 M115.95 201.23 C157.96 156.15, 194.93 113.57, 261.63 32.19 M117.31 199.94 C158.87 153.37, 198.72 106.05, 263.88 32.92 M121.32 200.61 C150.3 164.95, 179.71 134.8, 262.5 38.81 M123.19 201.38 C169.22 149.33, 212.3 98.37, 262.67 38.2 M128.11 199.25 C170.36 152.83, 211.17 105.42, 261.15 44.26 M127.84 199.67 C173.78 147.79, 217.44 97.2, 261.81 45.81 M132.18 200.79 C158.6 171.16, 188.2 140.02, 263.85 52.91 M134.02 200.37 C167.71 158.46, 201.24 118.95, 262.03 51.46 M139.96 199.9 C187.19 142.13, 235.12 84.91, 263.19 57.71 M137.82 201.31 C181.38 149.07, 224.76 99.67, 262.61 57.13 M145.73 199.8 C172.07 167.54, 198.2 138.02, 261.57 63.9 M142.93 201 C189.37 147.17, 234.74 95.09, 263.32 63.21 M150.15 201.43 C174.24 171.45, 198.25 144.96, 261.55 68.05 M149.13 201.63 C170.03 173.76, 193.57 148.9, 262.85 69.51 M155.6 202.41 C185.6 163.8, 217.39 127.48, 262.87 74.93 M154.02 201.12 C179 172.91, 203.19 145.44, 263.43 76.41 M157.55 201.29 C185.47 169.43, 207.96 141.5, 263.22 80.08 M159.86 201.45 C186.25 169.95, 214.14 140.02, 262.03 82.43 M164.57 199.93 C184.89 175.4, 208.28 150.82, 260.95 86.42 M164.06 200 C188.15 173.49, 211.04 146.66, 262.53 88.86 M169.69 199.79 C204.84 160.21, 242.42 115.53, 262.32 95.26 M170.03 199.89 C196.37 171.23, 222.43 142.6, 263.49 93.81 M174.39 200.22 C211.03 162.32, 242.19 121.71, 260.99 98.63 M175.6 201.35 C208.74 161.07, 242.31 121.3, 263.06 100.6 M180.03 198.8 C212.74 162.89, 245.11 128.53, 261.26 106.35 M179.94 200.04 C206.05 168.49, 233.53 138.54, 262.7 105.8 M187.77 201.65 C213.16 165.97, 245.02 131.91, 264.82 110.57 M185.94 200.4 C210.07 173.99, 234.13 146.25, 263.4 111.88 M190.02 199.71 C206.22 184.99, 222.09 163.54, 263.44 120.36 M191.15 199.99 C212.39 176.73, 230.9 155.45, 262.85 118.78 M198.39 199.11 C215.3 177.85, 238.74 154.23, 264.24 122.77 M196.15 200.85 C223.19 171.17, 248.14 142.37, 262.19 124.98 M203.09 201.43 C216.51 182.09, 233.1 164.77, 263.2 129.12 M201.48 199.81 C217.83 180.41, 236.2 161.94, 261.92 130.89 M208.9 202.04 C224.35 178.9, 241.57 162.09, 262.35 136.08 M208.06 199.88 C219.32 186.62, 231.87 172.61, 262.67 135.88 M210.6 202.42 C230.13 181.78, 244.61 163.25, 262.54 144.21 M212.04 200.55 C227.66 183.84, 242.72 166.33, 262.34 141.96 M216.92 200.42 C229.03 186.69, 240.89 172.85, 262.18 150.58 M217.27 201.15 C236.11 180.24, 253.86 160.34, 262.34 148.3 M221.93 198.66 C234.73 186.9, 242.9 177.73, 264.44 155.76 M222.17 201.23 C238.34 183.22, 254 164.78, 263.29 155.35 M229.03 198.74 C236.09 189.42, 247.78 178.96, 264.77 160.18 M228.15 199.83 C239.64 187.88, 250.5 175.1, 261.97 161.2 M234.38 201.66 C243.17 187.81, 253.86 176.87, 262.15 167.18 M234.51 199.89 C240.36 192.82, 246.7 186.72, 263.04 167.64 M238.8 202.03 C248.12 192.61, 256.64 179.48, 261.8 171.55 M238.84 199.55 C249.66 189.35, 258.34 178.8, 263.26 172.77 M243.25 200.47 C248.06 195.76, 256.58 188.3, 263.9 178.14 M243.94 200.53 C250.09 192.82, 256.7 187.26, 262.63 178.62 M248.09 202.61 C253.28 197.33, 257.46 191.52, 264.9 186.88 M249.56 200.19 C254.9 194.35, 259.99 187.6, 263.18 184.19 M255.49 200 C257.18 198.03, 260.65 193.77, 262.9 191.25 M254.78 200.27 C257.03 198.29, 259.99 195.77, 262.88 191.08" stroke="#fd7e14" stroke-width="0.5" fill="none"></path><path d="M-1.29 -0.28 C86.57 1.82, 169.05 0.64, 261.06 0.41 M-0.16 -0.38 C60.98 0.41, 122.64 0.38, 259.67 -0.38 M260.54 0.76 C260.45 67.62, 260.07 136.77, 261.28 200.81 M260.4 0.3 C261.47 63.89, 261.73 125.64, 259.76 200.56 M261.58 198.91 C182.49 200.22, 104.34 198.43, 0.63 199.53 M260.34 199.42 C204.8 198.92, 151.05 200.02, -0.26 200.33 M1.31 201.77 C-0.81 119.38, -1.31 43.45, -1.27 0.19 M-0.66 199.9 C0.27 152.94, 0.23 106.74, -0.29 -0.69" stroke="#000000" stroke-width="1" fill="none"></path></g><g transform="translate(1154.1080169677734 172.5) rotate(0 45.89198303222656 17.5)"><text x="45.89198303222656" y="0" font-family="Virgil, Segoe UI Emoji" font-size="28px" fill="#000000" text-anchor="middle" style="white-space: pre;" direction="ltr" dominant-baseline="text-before-edge">Parser</text></g><g stroke-linecap="round" transform="translate(30 130) rotate(0 58.5 55.5)"><path d="M0 0 C0 0, 0 0, 0 0 M0 0 C0 0, 0 0, 0 0 M-0.52 5.83 C1.16 4.73, 2.54 3.87, 5.34 -0.21 M-0.3 6.47 C0.95 4.33, 2.82 2.51, 5.29 0.32 M-0.62 11.71 C0.92 8.34, 4.35 6.5, 11.51 -0.54 M-0.08 11.53 C3.1 9.49, 5.86 6.01, 10.09 -0.51 M-1.43 17 C6.01 14.78, 10.61 7.35, 17.54 -0.82 M0.49 18.5 C2.9 13.04, 7.84 10.07, 15.81 -0.61 M-1.27 23.81 C8.57 14.61, 14.69 7.55, 21.38 1.07 M0.92 23.85 C7.87 14.77, 15.88 6.9, 20.73 -0.71 M0.8 29.23 C9.75 19.37, 19.87 10.52, 27.08 -1.05 M-0.02 30.76 C4.57 24.71, 11.22 18.29, 27.01 0.41 M0.79 35.99 C11.56 25.04, 22.25 8.02, 30.28 -1.69 M-0.28 35.91 C6.73 29.72, 12.28 21.59, 31.24 0.84 M0.38 40.88 C14.42 24.26, 28.1 10.09, 35.75 -1.42 M-0.43 42.01 C10 30.77, 22.17 16.53, 36.14 0.79 M-0.45 49.39 C15.13 32.61, 30.74 16.21, 43.41 1.4 M-0.45 49.35 C12.25 36.27, 24.2 22.81, 42.04 -1.13 M1.93 52.69 C8.28 45.15, 18.04 33.82, 45.74 0.95 M1.01 54.91 C18.06 35.02, 34.66 15.47, 46.74 -0.5 M0.2 62.01 C10.38 48.94, 22.48 34.46, 53.71 0.24 M0.51 61.71 C20.48 37.87, 38.96 16.64, 52.94 -0.79 M1.37 65.66 C19.45 43.7, 42.63 20.14, 58.25 1.46 M0.63 67.88 C21.56 40.98, 44.31 15.22, 58.13 0 M-0.47 71.62 C16.2 54.54, 30.3 40.6, 64.12 -1.75 M1.1 72.26 C14.42 56.81, 27.72 41.07, 64.01 -0.33 M-1.46 80.09 C24.04 54.09, 47.63 26.34, 67.42 2.05 M-0.98 79.02 C21.32 55.46, 43.29 29.65, 68.4 -0.79 M-0.68 86.55 C24.74 60.99, 44.47 33.84, 73.49 -1.63 M0.59 85.73 C14.53 68.34, 31.35 49.26, 74.61 -0.93 M-0.71 90.07 C29.15 58.58, 56.22 26.38, 78.37 1.18 M0.04 91.71 C18.63 68.06, 36.78 46.89, 79.4 0.56 M-0.34 96.38 C19.76 75.87, 37.05 56.92, 86.7 1.1 M-0.64 98.12 C21.56 72.26, 42.36 48.84, 84.34 0.18 M0.12 102.43 C31.95 67.21, 62.28 31.2, 89.19 -0.15 M0.49 102.55 C19.52 82.23, 35.73 62.65, 89.74 0.95 M-0.42 110.98 C19.78 84.21, 44.11 59.87, 96.56 -1.55 M0.53 110.63 C32.79 72.31, 64.5 36.59, 96.07 -1.23 M3.42 113.32 C38.84 70.28, 75.28 24.85, 100.94 -0.41 M2.41 112.85 C41.45 68.28, 81.73 23.25, 99.82 -0.23 M6.97 113.95 C37.55 79.01, 64.24 47.54, 105.86 -0.05 M8.88 112.16 C46.98 70.86, 83.34 26.88, 106.94 0.6 M14.18 115.11 C36.21 82.71, 62.4 53.78, 111.64 0.47 M12.68 112.63 C47.08 74.53, 81.1 34.03, 110.77 -0.12 M18.23 113.77 C41.08 90.32, 63.58 64.02, 116.7 -0.55 M19.51 113.43 C54.93 70.97, 89.5 30.68, 116.71 1.17 M22.26 113.05 C50.39 81.63, 75.49 54.16, 120.31 1.34 M24.36 112.26 C57.19 75.4, 91.89 36.77, 119.54 2.91 M27.36 112.43 C58.44 82.95, 86.89 50.19, 119.92 10.34 M29.89 112.63 C47.45 91.99, 65.6 70.04, 120.14 7.98 M36 112.13 C60.11 84.7, 81.6 54.8, 118.37 12.87 M33.32 112.27 C53.03 91.32, 73.08 70.51, 119.25 15.25 M39.94 111.41 C63.36 84.63, 87.62 54.9, 119.48 18.99 M38.88 112.42 C60.62 87.28, 82.27 63.8, 120.44 20.98 M43.72 112.87 C62.88 89.34, 84.17 68.78, 118.6 25.65 M44.68 112.19 C72.09 80.61, 98.46 48.98, 119.21 27.16 M48.54 112.76 C72.62 86.47, 91.68 64.14, 121.33 33.29 M51.12 111.92 C70.12 89.83, 90.17 69.2, 119.11 32.08 M55.73 113.31 C76.28 88.31, 95.76 65.68, 120.23 40.38 M55.82 113.51 C74.55 92.16, 92.27 70.44, 118.95 39.95 M62.02 113.78 C82.11 87.83, 107.12 61.38, 120.11 44.45 M61.35 112.52 C73.43 99.49, 84.71 85.54, 119.6 43.96 M66.27 115.03 C78.32 98.04, 91.16 84.4, 119.46 52.51 M65.41 112.73 C81.8 94.12, 98.81 76.03, 119.8 51.66 M70.18 114.07 C89.32 91.8, 106.24 73.91, 119.76 57.96 M70.04 113.81 C88.84 92.64, 105.37 74.74, 118.99 58.03 M75.58 113.13 C86.4 101.66, 94.55 92.81, 118.14 63.29 M76.36 112.32 C93.58 93.88, 110.58 74.15, 120.48 63.07 M81.84 113.99 C92.96 101.87, 105.01 88.42, 118.17 68.57 M82.47 113.13 C93.41 99.86, 104.85 88.63, 119.6 70.43 M87.85 114.25 C95.69 102.62, 105.39 91.29, 121.07 74.51 M86.87 113.73 C99.4 98.83, 112.62 85.37, 119.51 75.45 M93.42 113.7 C100.77 100.22, 113.75 88.84, 121.22 82.82 M92.33 113.58 C101.03 102.51, 110.61 92.12, 120.04 81.55 M97.25 114.57 C104.06 104.31, 111.51 99.61, 121.37 87.23 M97.37 112.42 C105.58 105.17, 113.14 96.58, 119.5 88.29 M102.33 111.9 C108.24 107.44, 110.53 104.12, 119.42 94.06 M102.09 113.69 C107.56 108.94, 111.17 103.35, 120.83 93.99 M109.7 113.66 C110.91 109.57, 117.75 103.63, 120.88 100.68 M107.74 112.82 C113.02 107.47, 116.95 103.4, 118.94 99.43 M113.23 112.53 C115.73 110.31, 117.9 109.09, 120.67 105.42 M113.75 112.9 C116.28 110.44, 118.08 108.05, 120.44 106.04" stroke="#ced4da" stroke-width="0.5" fill="none"></path><path d="M-0.27 -0.51 C40.83 -1.96, 78.95 1.05, 116.31 -1.55 M0.12 -0.46 C45.39 -0.03, 92.02 0.46, 116.89 0.58 M117.12 -1.85 C114.8 37.96, 115.9 72.65, 117.32 110.84 M116.86 0.57 C117 27.38, 117.12 57.26, 116.93 111.74 M116.13 109.86 C69.42 111.87, 27.1 110.47, 0.75 109.55 M116.03 110.33 C90.43 112.15, 64.82 110.81, 0.42 110.9 M0.05 110.16 C2.53 81.37, 1.71 48.73, -0.54 1.99 M-0.37 111.91 C0.3 83.12, 0.33 56.16, -0.59 -0.36" stroke="#000000" stroke-width="1" fill="none"></path></g><g transform="translate(73.75001525878906 173) rotate(0 14.749984741210938 12.5)"><text x="14.749984741210938" y="0" font-family="Virgil, Segoe UI Emoji" font-size="20px" fill="#000000" text-anchor="middle" style="white-space: pre;" direction="ltr" dominant-baseline="text-before-edge">src</text></g><g stroke-linecap="round" transform="translate(770 130) rotate(0 58.5 55.5)"><path d="M0 0 C0 0, 0 0, 0 0 M0 0 C0 0, 0 0, 0 0 M-1.05 6.15 C0.31 5.13, 1.58 3.84, 5.45 0.82 M0.04 6.57 C0.83 5.18, 2.37 3.2, 4.95 0.63 M0.43 11.04 C4.14 8.21, 8.7 3.02, 11.63 1.13 M-0.01 12.33 C3.18 9.18, 4.79 6.25, 10.08 0.56 M-0.23 16.82 C6.37 14.61, 10.22 8.02, 15.66 -0.76 M-0.73 19.21 C4.36 12.19, 10.73 6.94, 15.77 0.03 M-0.91 23.66 C7.95 17.16, 16.34 8.42, 20.19 -1.38 M-0.6 24.7 C5.46 17.71, 8.87 13.22, 20.69 0.34 M0.09 31.19 C5.2 23.81, 14.43 15.37, 27.07 -0.53 M0.38 31.47 C7.93 20.38, 16.84 11.92, 27.16 0.56 M-0.6 38.77 C7.73 26.99, 13.92 20.82, 32.4 -1.37 M-0.73 36.23 C10.78 23.23, 22.28 10, 31.41 0.34 M0.98 42.18 C10.94 27.18, 23.82 14.91, 37.78 0.57 M0.47 43.12 C14.1 28.41, 25.46 12.4, 37.5 0.23 M-1.49 48.6 C12.86 32.7, 23.1 20.58, 41.93 -1.93 M-0.85 48.25 C8.26 39.17, 18.36 28.34, 42.94 0.81 M2.24 54.02 C13.2 35.86, 31.52 18.3, 47.72 -1.1 M0.16 55.45 C15.06 37.85, 31.28 18.76, 46.74 0.89 M-1.91 61.9 C20.1 37.66, 37.74 17.03, 53.74 -1.48 M0.14 60.56 C11.8 45.96, 24.74 33.13, 53.06 0.61 M-1.46 68.68 C15.11 51.13, 27.59 38.67, 57.36 -1.22 M0.42 67.26 C15.36 50.31, 29.84 32.33, 57.28 -0.34 M0.98 74.62 C14.01 56.75, 25.7 42.84, 62.3 0.56 M0.45 73.49 C23.8 45.9, 47.33 19.81, 63.57 0.38 M0.05 80.83 C28.36 47.03, 52.95 16.68, 69.7 -1.5 M0.15 78.87 C18.24 59.59, 33.72 39.44, 69.03 -0.06 M0.55 84.65 C28.63 52.9, 56.07 23.58, 73.64 1.69 M-0.18 85.6 C17 68.78, 30.49 50.92, 75.24 -0.49 M-1.5 92.38 C20.01 67.15, 41.11 41.43, 80.26 0.32 M-0.72 91.62 C30.6 56.49, 60.65 23.4, 80.38 0.39 M-1.96 98.66 C24.03 69.39, 49.05 42.62, 83.29 -1.59 M-0.23 97.49 C19.47 75.71, 38.87 55.12, 84.82 -0.83 M-0.19 103.45 C32.52 64.78, 63.42 26.55, 91.12 0.47 M0.37 103.85 C34.37 62.28, 69.96 21.38, 89.2 -0.09 M-0.78 110.97 C23.5 85.08, 43.3 59.85, 94.34 0.19 M-0.68 109.77 C38.44 67.42, 74.52 24.44, 96.05 -0.72 M3.4 112.86 C38.74 74.5, 71.88 34.38, 100.86 -0.86 M2.95 112.42 C25.87 87.18, 48.87 60.97, 99.85 0.71 M8.26 113.11 C38.99 76.74, 70.91 40.57, 107.39 -0.55 M7.84 113.5 C41.36 76.81, 71.52 39.67, 106.65 -0.45 M14.82 113.11 C42.83 75.67, 75.08 41.67, 110.6 -1.49 M13.12 112.67 C42.83 78.2, 74.49 42.77, 112.16 -0.77 M19.41 112.92 C49.3 77.15, 80.85 37.7, 117.93 2.36 M17.73 112.36 C53.86 73.23, 86.36 35.04, 116.68 1.18 M24.06 115.05 C54.1 76.94, 87.31 41.6, 120.03 2.96 M22.86 114.05 C60.91 68.73, 98.54 25.57, 120.5 1.46 M30.08 111.15 C56.8 80.87, 83.16 52.35, 117.72 8.07 M28.52 112.29 C49.14 88.78, 69.44 65.6, 118.92 9.2 M35.14 114.67 C56.77 84.07, 81.8 59.4, 118.78 16.15 M34.68 113.97 C64.78 78.25, 94.98 42.51, 120.11 14.92 M38.82 111.55 C60.69 90.8, 78.57 67.8, 119.24 22.14 M39.82 112.43 C60.15 89.65, 81.4 66.27, 120.33 20.81 M43.66 112.93 C62.14 91.41, 80.9 67.84, 119.44 25.09 M44.06 112.63 C62.28 92.45, 80.44 71.78, 119.16 27.81 M48.74 113.81 C70.88 89.04, 90.68 65.51, 120.5 33.11 M49.74 113.25 C73.07 84.42, 96.85 57.18, 119.86 33.01 M54.73 113.77 C77.6 90.04, 96.85 66.94, 118.57 38.32 M54.49 113.95 C78.37 87.8, 101.3 61.53, 118.74 38.13 M60.8 112.35 C74.94 94.7, 89.24 80.06, 119.78 46.26 M61.21 114.18 C79.98 90.86, 99.23 69.07, 120.13 45.32 M64.97 114.07 C82.61 91.75, 102.61 71.45, 119.29 50.6 M66.42 112.65 C86.75 88.87, 107.73 64.12, 120.45 51.42 M70.46 115.3 C83.04 96.75, 100.18 81.13, 120.21 58.57 M71.63 113.7 C84.66 97.56, 96.95 83.62, 119.14 57.79 M76.56 113.72 C86.28 100.15, 96.39 91.08, 119.91 61.9 M76.29 113.21 C89.64 96.68, 104.09 80.88, 120.05 62.73 M81.75 115.01 C92.98 101.65, 99.81 88.79, 118.42 69.76 M81.88 112.78 C96.39 95.79, 111.75 78.92, 119.81 68.94 M87.21 113.54 C98.19 98.04, 114.13 82.1, 119.28 76.18 M87.52 112.87 C97.42 101.47, 106.54 91.68, 119.76 74.36 M91.9 115.06 C101.73 102.73, 109.13 94.26, 118.63 80.77 M92.03 112.94 C98.72 105.68, 107.32 95.94, 119.07 81.37 M96.14 113.35 C103.84 103.68, 114.5 95.51, 118.11 88.11 M97.54 112.63 C104.7 105.57, 110.99 98.3, 118.64 87.66 M104.65 112.98 C110.38 104.55, 115.36 99.21, 121.21 92.73 M103.59 113.92 C106.89 108.34, 112.11 101.26, 119.51 93.65 M109.89 113.77 C111.26 109.89, 116.25 102.9, 119.63 101.75 M108.7 112.36 C112.83 108.14, 117.78 103.56, 120.13 100.81 M112.91 113.78 C115.01 111.19, 117.29 110.32, 120.1 105.75 M113.06 113.02 C116.13 110.22, 118.39 107.56, 119.9 105.93" stroke="#ced4da" stroke-width="0.5" fill="none"></path><path d="M1.43 0.56 C46.08 -0.42, 90.42 -0.23, 117.41 0.98 M-0.89 -0.42 C31.56 -0.73, 61.34 0.16, 117.46 -0.58 M116.8 1.15 C118.34 33.56, 117.15 71.4, 117.1 112.38 M116.78 0.06 C117.72 38.89, 117.51 78.84, 117.53 111.21 M117.13 110.33 C84.66 110.02, 47.89 110.99, 1.59 112.8 M117.87 110.45 C86.1 110.12, 57.11 110.36, 0.68 110.93 M-0.28 110.42 C-0.48 76.56, -0.71 39.1, -0.71 -0.55 M0.77 110.18 C0.88 75.87, 1.27 39.76, 0.18 0.87" stroke="#000000" stroke-width="1" fill="none"></path></g><g transform="translate(796.8700332641602 173) rotate(0 31.629966735839844 12.5)"><text x="31.629966735839844" y="0" font-family="Virgil, Segoe UI Emoji" font-size="20px" fill="#000000" text-anchor="middle" style="white-space: pre;" direction="ltr" dominant-baseline="text-before-edge">tokens</text></g><g stroke-linecap="round" transform="translate(1510 110) rotate(0 80 70)"><path d="M0 0 C0 0, 0 0, 0 0 M0 0 C0 0, 0 0, 0 0 M-0.93 7.02 C1.39 5.78, 2.32 3.51, 5.57 -0.16 M-0.46 6.66 C0.89 4.74, 1.7 3.47, 4.73 0.32 M-0.83 13.49 C4.04 8.01, 5.63 5.7, 11.37 0.62 M-0.25 11.55 C2.38 9.04, 6.23 5.94, 10.84 -0.01 M-0.88 16.75 C3.93 11.1, 9.62 5.43, 14.22 -0.23 M-0.21 18.11 C3.73 12.85, 8.42 9.57, 14.99 -0.23 M0.02 22.92 C4.92 18.84, 9.69 13.01, 19.44 0.73 M0.34 24.91 C7.09 15.33, 14.88 5.94, 20.96 -0.52 M0.04 30.81 C10.64 17.62, 21.02 8.61, 28.04 -1.3 M0.09 30.27 C8.86 21.43, 16.58 11.46, 25.31 1.12 M1.53 36.38 C8.73 26.38, 18.22 14.95, 30.27 1.69 M-1.14 37.18 C12.1 22.05, 24.55 7.76, 31.31 0.83 M1.14 44.11 C11.63 30.87, 22.61 16.12, 38.85 -0.58 M0.88 41.58 C12.57 28.93, 26.42 14, 36.12 0.15 M-1.88 47.92 C9.01 38.57, 20.55 27.36, 42.52 -2.02 M-0.85 49.78 C12.84 33, 27.69 17.84, 43.36 0.14 M-0.73 54.6 C10.93 42.73, 20.41 28.64, 47.14 0.5 M-0.61 55.36 C16.96 34.44, 33.14 15.89, 48.22 0.52 M-0.02 60.5 C13.97 44.91, 26.57 31.68, 53.2 -2.11 M-0.86 60.3 C19.05 39.39, 37.7 19.23, 54.02 -0.18 M1.14 66.96 C20.96 43.34, 41.76 18.16, 56.92 1.47 M-0.31 67.94 C13.97 49.6, 30.32 32.51, 57.35 0.61 M1.49 73.26 C21.18 52.26, 39.28 28.03, 63.81 1.68 M0.43 72.32 C15.08 55.46, 30.37 37.03, 64.66 -0.47 M-0.03 79.56 C16.62 60.37, 33.31 43.06, 69.73 0.8 M0.28 78.65 C15.11 62.59, 29.47 45.56, 69.29 0.58 M-1.41 84.31 C15.23 65.41, 34.89 46.18, 74.44 -0.42 M0.57 85.18 C20.33 61.16, 39.08 39.58, 74.16 -0.82 M1.54 91 C17.65 70.59, 30.44 52.22, 78.66 1.97 M-0.81 91.36 C26.09 62.04, 52.15 33.16, 78.77 -0.63 M-1.93 97.51 C30.76 60.51, 65.39 23.76, 85.67 -2.21 M-0.53 97.75 C20.51 74.05, 41.11 51.02, 85.88 -0.05 M0.82 103.11 C30.96 69.67, 61.98 33.01, 90.31 -0.59 M-0.41 104.44 C23.12 76.37, 48.58 47.64, 90.52 -0.33 M-1.79 109.39 C35.01 68.61, 69.15 28.05, 96.62 0.46 M-1.03 110.42 C27.75 77.12, 55.41 44.83, 96.65 -0.69 M-0.69 115.67 C25.89 85.81, 51.85 54.49, 98.82 0.52 M0.14 114.53 C29.1 79.09, 60.72 45.28, 100.24 0.94 M-1.11 123.73 C33.66 82.5, 68.24 44.51, 106.95 -0.25 M-0.07 122.58 C30.45 86.27, 63.07 50.32, 105.81 -0.03 M-1.62 129.21 C36.42 85.45, 70.28 44.79, 111.86 -0.34 M-0.68 128.29 C30.24 91.04, 60.96 55.25, 111.62 0.41 M2.14 134.54 C32.27 96.67, 64.1 62.54, 118.19 -1.51 M-0.14 134.65 C24.46 105.93, 48.95 78.48, 115.51 -0.33 M-0.1 139.94 C32.83 101.66, 63.51 67.94, 120.64 0.18 M-0.95 140.38 C47.4 85.89, 94.15 30.75, 121.34 0.06 M6.8 138.73 C47.69 88.78, 94.08 39.4, 126.37 1.27 M6.5 139.76 C50.35 88, 97.73 35.91, 126.34 1.15 M10.8 142.23 C51.04 96.65, 90.75 49.88, 133.87 0.37 M10.29 140.93 C39.51 107.11, 67.74 74.79, 132.06 -0.34 M15.96 138.24 C42.9 110.73, 67.38 82.74, 136.07 0.86 M16.32 140.87 C43.03 109.97, 68.55 81.03, 138.44 -0.33 M20.22 139.83 C60.7 94.17, 102.83 50.42, 143.84 -0.48 M21.13 139.69 C66.26 87.82, 110.66 35.51, 143.43 -0.28 M27.02 138 C69.41 95.59, 108.7 48.92, 149.09 1.29 M27.53 139.72 C63.34 96.78, 101.71 54.96, 149.07 1.02 M32.31 140.38 C61.46 108.78, 88.16 75.24, 152.33 -0.13 M32.65 139.66 C76.39 91.1, 119.69 40.5, 153.08 0.54 M36.15 139.88 C82.18 89.24, 124.28 42.64, 157.73 0.52 M37.57 139.78 C76.58 96, 117.31 49.15, 158.97 -0.75 M41.75 141.46 C87.46 89.62, 128.59 42.51, 162.71 2.89 M43.4 140.05 C76.14 98.71, 111.27 60.31, 161.65 1.44 M47.05 138.73 C72.28 112.68, 96.23 85.8, 163.62 8.81 M48.87 139.3 C83.89 97.95, 121.22 57.38, 162.15 7.96 M51.77 140.67 C91.3 94.06, 132.27 51.85, 163.26 14.32 M52.43 139.37 C83.12 102.18, 115.7 66.52, 163.18 14.78 M56.96 140.33 C87.76 105.13, 117.85 68.02, 162.06 21.54 M57.84 140.28 C79.62 115.41, 101.6 90.17, 163.28 20.21 M64.1 141.53 C87.92 112.39, 109.21 87.8, 160.92 27.49 M64.27 140.38 C102.68 95.7, 142.27 51.12, 161.78 26.33 M70.63 139.48 C103.9 103.5, 135.39 62.51, 164.25 30.83 M69.88 139.5 C96.25 109.85, 121.74 79.95, 162.82 33.07 M73.03 139.56 C103.17 105.15, 134.26 71.79, 162.93 37.27 M73.93 139.12 C99.7 110.5, 126.06 80.68, 162.36 38.2 M77.71 138.67 C112.22 104.33, 144.81 64.09, 160.61 46.52 M79.7 140.25 C104.95 111.18, 131.49 80.28, 163.47 43.65 M83.38 140.23 C113.92 104.66, 144.05 71.27, 162.07 49.25 M85.9 139.87 C112.95 105.62, 141.5 73.47, 162.79 50.99 M89.34 139.1 C112.84 110.77, 137.4 84.04, 162.12 58.45 M88.99 140.32 C107.39 119.13, 127.25 97.18, 162.4 56.31 M96.47 140.99 C111.56 124.65, 126.36 107.89, 162.67 62.22 M95.17 140.21 C112.66 120.02, 131.57 98.99, 162.95 63.35 M100.22 139.2 C121.6 114.52, 145.74 89.9, 161.62 71.15 M101.43 139.55 C121.4 115.13, 143.77 91.28, 161.59 70.46 M104.19 141.26 C120.14 124.23, 133.8 106.27, 161.23 75.23 M106.2 139.95 C123.39 117.94, 143 98.03, 162.35 75.93 M109.23 141.64 C124.08 126.04, 136.33 112.33, 162.45 82.87 M110.37 139.76 C131.32 117.54, 151.8 95.28, 161.5 82.48 M114.95 140.42 C125.49 130.47, 137.69 117.63, 163.81 86.26 M115.94 140.19 C132.42 123.23, 146.61 105.87, 162.5 87.12 M120.8 140.02 C134.28 125.15, 147.94 110.06, 160.51 92.11 M121.11 140.55 C132.3 127.83, 142.28 116, 162.09 93.32 M127.67 139.82 C136.26 129.65, 144.72 123.95, 163.32 99.03 M126.83 140.3 C139.58 123.69, 154.81 109.52, 161.24 100.88 M130.88 140.93 C141.37 125.63, 153.85 113.73, 160.9 104.54 M131.96 140.29 C144.93 126.83, 156.65 113.11, 162.48 106.39 M137.82 140.79 C145.58 131.07, 153.78 123.67, 164.18 113.97 M137.79 140.88 C143.84 134.38, 148.78 127.63, 162.34 112.63 M144.96 141.94 C148.16 131.71, 156.04 122.99, 163.24 115.85 M143.2 141.12 C149.11 131.83, 156.85 123.24, 163.25 117.42 M147.41 138.62 C154.18 136.19, 154.3 133, 164.38 122.71 M149.22 140.85 C152.66 135.03, 157.24 129.37, 162.62 124.84 M152.62 141.09 C156.69 135.1, 160.39 131.63, 162.75 130.42 M153.97 140.03 C155.26 137.36, 158.12 135.18, 162.61 130.22 M159.25 140.02 C159.67 139.13, 160.44 137.6, 162.99 135.84 M159.51 139.96 C160.52 138.85, 161.37 137.67, 162.85 136.29" stroke="#ced4da" stroke-width="0.5" fill="none"></path><path d="M-1.83 -1.03 C51.78 1.03, 101.65 -0.21, 158.17 -0.76 M-0.53 0.24 C39.26 -1.49, 75.96 -1.47, 160.69 0.32 M161.55 -0.2 C160.73 49.69, 158.81 100.85, 161.14 140.33 M159.33 0.13 C160.9 47.11, 161.51 96.32, 159.15 139.63 M158.51 140.67 C106.54 139.45, 55.22 141.68, -1.94 140.44 M159.37 139.23 C110.36 141.09, 60.52 140.15, -0.04 139.37 M-0.48 138.07 C-0.05 94.79, 0.32 49.72, -1.07 1.54 M-0.44 140.99 C0.52 95.72, 1.23 51.27, -0.76 -0.93" stroke="#000000" stroke-width="1" fill="none"></path></g><g transform="translate(1523.3400497436523 142.5) rotate(0 66.65995025634766 37.5)"><text x="66.65995025634766" y="0" font-family="Virgil, Segoe UI Emoji" font-size="20px" fill="#000000" text-anchor="middle" style="white-space: pre;" direction="ltr" dominant-baseline="text-before-edge">Abstract </text><text x="66.65995025634766" y="25" font-family="Virgil, Segoe UI Emoji" font-size="20px" fill="#000000" text-anchor="middle" style="white-space: pre;" direction="ltr" dominant-baseline="text-before-edge">Syntax Tree </text><text x="66.65995025634766" y="50" font-family="Virgil, Segoe UI Emoji" font-size="20px" fill="#000000" text-anchor="middle" style="white-space: pre;" direction="ltr" dominant-baseline="text-before-edge">(AST)</text></g><g mask="url(#mask-7HP46qa03RFWc_Jvhtr7c)" stroke-linecap="round"><g transform="translate(150.77922077922085 190) rotate(0 88.48846674615561 -0.28199715552989346)"><path d="M-1.61 0.29 C47.61 0.4, 100.19 -2.96, 176.67 0.27 M0.11 0.57 C62.14 -0.06, 125.55 -0.03, 178.59 -0.05" stroke="#000000" stroke-width="1" fill="none"></path></g><g transform="translate(150.77922077922085 190) rotate(0 88.48846674615561 -0.28199715552989346)"><path d="M148.79 10.52 C156.57 8.84, 167.67 2.64, 177.3 0.22 M150.52 10.8 C159.47 6.77, 169.74 3.16, 179.22 -0.1" stroke="#000000" stroke-width="1" fill="none"></path></g><g transform="translate(150.77922077922085 190) rotate(0 88.48846674615561 -0.28199715552989346)"><path d="M148.78 -10 C156.49 -6, 167.59 -6.52, 177.3 0.22 M150.51 -9.73 C159.34 -6.47, 169.62 -2.8, 179.22 -0.1" stroke="#000000" stroke-width="1" fill="none"></path></g></g><mask id="mask-7HP46qa03RFWc_Jvhtr7c"><rect x="0" y="0" fill="#fff" width="428.7402597402597" height="290"></rect><rect x="216.63976803073638" y="177.5" fill="#000" width="46.23994445800781" height="25" opacity="1"></rect></mask><g transform="translate(216.63976803073638 177.5) rotate(0 22.627919494640082 12.218002844470107)"><text x="23.119972229003906" y="0" font-family="Virgil, Segoe UI Emoji" font-size="20px" fill="#000000" text-anchor="middle" style="white-space: pre;" direction="ltr" dominant-baseline="text-before-edge">input</text></g><g mask="url(#mask-BwMXfvZUSxu_FcxF4XSyb)" stroke-linecap="round"><g transform="translate(591 190) rotate(0 89.32042300514877 -0.09853292009614734)"><path d="M-0.9 -0.71 C48.63 -1.97, 94.97 0.14, 179.54 -1.01 M0.46 0.77 C57.2 0.13, 113.79 -1.37, 178.68 0.93" stroke="#000000" stroke-width="1" fill="none"></path></g><g transform="translate(591 190) rotate(0 89.32042300514877 -0.09853292009614734)"><path d="M149.39 9.89 C159.36 6.35, 166.11 5.9, 180.22 -0.08 M150.75 11.37 C159.77 8.11, 168.72 3.53, 179.37 1.86" stroke="#000000" stroke-width="1" fill="none"></path></g><g transform="translate(591 190) rotate(0 89.32042300514877 -0.09853292009614734)"><path d="M149.81 -10.62 C159.62 -8.73, 166.25 -3.76, 180.22 -0.08 M151.17 -9.15 C160.23 -5.87, 169.06 -3.92, 179.37 1.86" stroke="#000000" stroke-width="1" fill="none"></path></g></g><mask id="mask-BwMXfvZUSxu_FcxF4XSyb"><rect x="0" y="0" fill="#fff" width="869" height="290"></rect><rect x="646.8700408935547" y="177.5" fill="#000" width="66.25991821289062" height="25" opacity="1"></rect></mask><g transform="translate(646.8700408935547 177.5) rotate(0 33.45038211159408 12.401467079903853)"><text x="33.12995910644531" y="0" font-family="Virgil, Segoe UI Emoji" font-size="20px" fill="#000000" text-anchor="middle" style="white-space: pre;" direction="ltr" dominant-baseline="text-before-edge">output</text></g><g mask="url(#mask-quUWqUUc_wqQQ_bwqXp6c)" stroke-linecap="round"><g transform="translate(890 190) rotate(0 90.04155515925959 -0.08957954873289964)"><path d="M0.84 -1.45 C36.5 -0.42, 76.61 2.32, 179.36 0.83 M0.73 0.98 C70.76 -1.55, 141.5 0.11, 179.29 0.11" stroke="#000000" stroke-width="1" fill="none"></path></g><g transform="translate(890 190) rotate(0 90.04155515925959 -0.08957954873289964)"><path d="M151.87 8.73 C155.72 7.14, 163.94 7.77, 178.65 0.94 M151.76 11.16 C161.89 5.16, 172.76 2.85, 178.58 0.21" stroke="#000000" stroke-width="1" fill="none"></path></g><g transform="translate(890 190) rotate(0 90.04155515925959 -0.08957954873289964)"><path d="M152.01 -11.79 C155.64 -9.07, 163.82 -4.12, 178.65 0.94 M151.9 -9.36 C162.01 -7.26, 172.83 -1.47, 178.58 0.21" stroke="#000000" stroke-width="1" fill="none"></path></g></g><mask id="mask-quUWqUUc_wqQQ_bwqXp6c"><rect x="0" y="0" fill="#fff" width="1170" height="290"></rect><rect x="956.8800277709961" y="177.5" fill="#000" width="46.23994445800781" height="25" opacity="1"></rect></mask><g transform="translate(956.8800277709961 177.5) rotate(0 23.161527388263494 12.4104204512671)"><text x="23.119972229003906" y="0" font-family="Virgil, Segoe UI Emoji" font-size="20px" fill="#000000" text-anchor="middle" style="white-space: pre;" direction="ltr" dominant-baseline="text-before-edge">input</text></g><g mask="url(#mask-NP5RovJmYGvBqxKciT537)" stroke-linecap="round"><g transform="translate(1330 190) rotate(0 89.64329338027164 0.5743330484598346)"><path d="M-0.99 -0.52 C46.49 3.19, 91.8 1.59, 178.12 0.55 M0.87 -0.54 C70.83 1.67, 142.51 2.15, 180.28 -0.65" stroke="#000000" stroke-width="1" fill="none"></path></g><g transform="translate(1330 190) rotate(0 89.64329338027164 0.5743330484598346)"><path d="M151.53 10.2 C160.29 9.69, 166.96 5.2, 178.4 -0.11 M153.38 10.18 C163.5 6.81, 175.32 2.82, 180.56 -1.3" stroke="#000000" stroke-width="1" fill="none"></path></g><g transform="translate(1330 190) rotate(0 89.64329338027164 0.5743330484598346)"><path d="M150.71 -10.3 C159.84 -5.61, 166.71 -4.89, 178.4 -0.11 M152.57 -10.33 C162.96 -5.63, 175.1 -1.55, 180.56 -1.3" stroke="#000000" stroke-width="1" fill="none"></path></g></g><mask id="mask-NP5RovJmYGvBqxKciT537"><rect x="0" y="0" fill="#fff" width="1610" height="290"></rect><rect x="1386.8700408935547" y="177.5" fill="#000" width="66.25991821289062" height="25" opacity="1"></rect></mask><g transform="translate(1386.8700408935547 177.5) rotate(0 32.773252486716956 13.074333048459835)"><text x="33.12995910644531" y="0" font-family="Virgil, Segoe UI Emoji" font-size="20px" fill="#000000" text-anchor="middle" style="white-space: pre;" direction="ltr" dominant-baseline="text-before-edge">output</text></g><g stroke-opacity="0.2" fill-opacity="0.2" stroke-linecap="round" transform="translate(10 10) rotate(0 840 150)"><path d="M0 0 C0 0, 0 0, 0 0 M0 0 C0 0, 0 0, 0 0 M0.2 6.2 C1.19 3.52, 4.24 1.93, 5.6 0.18 M-0.5 6.25 C2.22 4.17, 3.68 1.71, 4.66 0.33 M0.5 11.04 C2.24 9.5, 7.9 4.21, 9.28 -0.3 M0.48 12.29 C2.04 8.47, 5.91 5.13, 10.4 -0.1 M1.75 20.11 C5.41 13.48, 9.17 7, 16.29 -0.05 M-0.31 18.58 C4.1 12.73, 10.06 6.85, 15.06 1.28 M-0.29 25.06 C4.6 19.16, 11.25 13.29, 19.59 -0.56 M-0.55 24.56 C7.98 15.68, 15.16 7.63, 20.34 0.47 M0.43 32.44 C7.06 20.93, 16 11.81, 25.28 0.44 M-0.4 29.56 C7.38 22.41, 15.13 14.65, 26.11 -0.7 M1.37 36.03 C8.55 29.52, 12.37 21.34, 30.76 1.71 M0.65 37.2 C7 28.71, 14.49 19.51, 31.8 0.56 M-0.18 41.54 C9.43 33.05, 17.06 24.09, 35.5 1.15 M0.22 42.81 C11.95 29.03, 24.83 16.11, 36.44 0.23 M-0.73 49.58 C14.65 32.85, 26.77 15.82, 44.51 0.44 M0.44 49.87 C11.26 34.4, 24.35 20.77, 42.23 0.55 M0.32 53.03 C13.71 37.16, 28.93 21.4, 47.51 -0.2 M0.87 53.92 C16.27 37.9, 31.41 19.92, 46.67 0.25 M-0.3 59.8 C15.85 44.1, 33 22.28, 54.41 -1.4 M0.6 60.69 C12.12 48.68, 23.53 34.04, 54.12 -0.37 M1.23 66.23 C16.34 49.94, 28.4 32.45, 58.42 2.1 M-0.81 68.02 C19.5 43.36, 39.67 21.05, 57.91 0.79 M2.13 72.03 C23.44 43.61, 46.89 17.78, 63.58 -1.89 M0.04 72.27 C23.6 45.54, 45.26 20.1, 63.94 0.74 M1.36 81.21 C16.9 59.57, 37.26 36.73, 67.84 -0.3 M0.78 79.73 C20.58 55.73, 42.01 31.72, 68.75 -0.44 M0.55 85.55 C26.29 55.39, 52.36 23.62, 74.64 -2.13 M1.17 85.5 C27.88 52.86, 55.5 20.49, 75.15 -0.42 M1.06 93.25 C22.67 65.68, 40.39 43.54, 79.93 0.24 M0.25 90.7 C24.22 64.01, 48.93 34.65, 80.27 -0.48 M0.85 96.38 C31.9 62.21, 60.84 24.26, 83.77 -0.25 M0.22 97.3 C30.61 63.58, 60.19 27.97, 85.19 -0.36 M-1.13 103.82 C17.83 81.08, 39.8 54.93, 89.37 1.33 M0.86 103.6 C34.36 65.83, 67.99 28.41, 91.02 -0.08 M1.38 108.23 C30.97 71.29, 63 38.88, 94.67 -1.41 M0.87 110.58 C27.42 77.67, 55.63 44.54, 96.49 -0.84 M0.87 115.41 C28.9 82.54, 56.89 49.77, 99.38 0.53 M0.84 115.85 C23.72 88.74, 47.05 63.43, 100.05 -0.76 M-0.9 123.06 C28.48 91.38, 54.37 60.37, 104.57 0.2 M-0.68 121.78 C26.52 91.83, 51.33 63.73, 105.46 0.15 M-1.98 130.19 C22.9 98.39, 47.07 70, 111.72 1.4 M-0.23 127.41 C38.49 87.61, 75.22 43.83, 111.89 0.25 M2.12 132.04 C38.65 90.02, 78.11 42.62, 117.59 0.1 M-0.08 134.85 C41.3 84.45, 84.38 35.93, 116.84 0.12 M-1.24 141.06 C43.25 91.38, 85.99 43.61, 120.65 -0.58 M0.17 140.72 C34.98 98.16, 72.07 56.61, 121.54 -1.02 M-0.91 146.29 C37.84 102.56, 76.26 54.64, 125.33 -1.47 M-0.51 145 C34.02 108.2, 66.02 70.37, 127.32 0.12 M-0.8 153.95 C29.99 115.74, 63.48 77.32, 131.15 0.08 M0.5 152.28 C27.4 121.92, 56.83 89.57, 133.41 -0.24 M0.46 159.58 C37.98 117.34, 75.66 74.84, 137.03 -0.88 M-0.31 158.52 C34.73 120.75, 67.97 82.23, 136.71 0.2 M-0.62 163.84 C34.05 123.12, 68.46 85.47, 143.97 0.73 M1 164.52 C48.83 105.65, 99.64 47.78, 142.83 0.05 M-0.42 171.63 C35.18 131, 71.57 87.87, 147.88 -0.76 M0.49 170.58 C37.57 128.73, 74.5 85.53, 148.92 -0.46 M0.86 175.42 C47.86 123.24, 90.02 73.15, 152.12 0.93 M0.08 175.9 C39.64 131.61, 80.01 86.08, 153.81 -0.18 M1.35 182.44 C35.89 142.49, 69.73 103.05, 157.18 1.29 M-0.11 182.92 C57.86 117.61, 113.97 51.49, 158.12 -0.27 M0.63 187.88 C54.95 125.21, 108.1 64.02, 162.91 0.2 M-0.23 189.71 C41.25 138.97, 83.92 89.28, 163.72 0.02 M1.31 194.52 C50.2 137.81, 102.12 77.23, 168.62 -0.05 M0.22 194.13 C44.78 142.91, 90.08 92.02, 168.86 0.37 M-0.86 200.7 C53.49 139.15, 107.22 78.3, 175.24 -0.29 M0.59 201.75 C62.48 129.76, 125.18 57.94, 174.58 0.09 M0.66 205.43 C40.73 163.65, 78.02 120.23, 178.85 0.66 M0.04 206.29 C37.3 166.69, 73.74 124.51, 179.68 0.16 M0.75 213.15 C64.81 139.37, 128.08 67.04, 185.5 0.45 M0.39 214.05 C58.45 145.81, 115.2 80.59, 185.48 0.52 M0.19 219.74 C63.13 147.39, 126.09 74.67, 192.1 1.38 M-0.7 219.94 C39.93 174.23, 81.64 127.33, 190.79 0.77 M-0.84 226.13 C42.03 177.28, 84.07 130.19, 195.37 -1.18 M0.82 226.09 C74.89 139.64, 151.25 51.92, 196.7 0.45 M-1.5 231.99 C57.44 168.32, 113.7 102.77, 200.12 1.05 M-0.55 232.08 C57.39 167.08, 113.55 103.15, 201.61 -0.12 M-0.05 238.28 C46.04 184.37, 92.74 132.69, 206.69 0.21 M-0.25 237.96 C42.64 189.08, 85.63 139.75, 207.42 0.06 M1.34 245.07 C72.3 160.63, 144.71 76.77, 210.79 0.82 M0.29 244.5 C42.98 192.72, 85.42 143.32, 211.67 -0.51 M0.1 251.19 C69.36 169.39, 139.92 87.05, 217.29 -0.3 M0.13 250.32 C63.4 179.35, 125.77 107.27, 217.95 -0.35 M-0.2 256.8 C47.75 198.65, 98.08 140.74, 222.56 -0.36 M0.55 255.55 C71.25 175.86, 141.9 93.92, 222.55 0.52 M1.21 262.1 C55.08 203.38, 107.36 140.01, 228.3 0.88 M0.47 262.1 C68.26 184.95, 136.21 105.75, 228.87 -0.96 M-0.5 267.84 C73.58 186.09, 146.31 101.86, 232.46 1.12 M0.7 268.52 C87.83 166.62, 177.97 63.59, 233.01 -0.28 M-1.19 275.1 C75.95 190.69, 148.39 105.04, 239.09 1.27 M0.2 274.28 C46.55 219.99, 94.45 164.6, 238.44 0.23 M-1.28 280.75 C51.18 222.25, 102.52 163.33, 242.66 -0.97 M0.2 280.96 C66.05 200.89, 133.77 123.63, 243.85 -0.27 M-0.94 286.33 C63.14 211.66, 127.04 138.72, 248.9 1.44 M0.01 286.31 C82.78 189.16, 166.95 93.49, 248.54 -0.1 M0.52 293.17 C53.34 232.42, 105.2 171.29, 253.51 -0.67 M-0.44 292.92 C79.67 197.73, 160.73 104.87, 254.54 0.3 M1.07 298.9 C59.77 227.94, 119.73 158.45, 259.11 0.41 M0.47 298.71 C81.63 205.77, 160.61 113.26, 259.87 -0.23 M3.03 300.94 C106.05 183.76, 208.86 66.73, 265.04 0.8 M3.17 301.35 C91.45 200.48, 180.7 99.01, 265.21 -0.62 M6.63 303.23 C93.59 200.84, 182.16 100.09, 269.5 1.15 M7.61 301.86 C88.71 208.3, 169.02 115.3, 270.52 0.22 M12.8 300.74 C106.67 194.05, 201.29 85.71, 275.96 -0.35 M13.15 301.32 C65.64 241.13, 118.65 178.85, 275.94 -0.57 M18.74 302.15 C101.82 206.19, 184.17 111.18, 281.33 0.78 M18.63 302.26 C71.48 240.86, 124.57 178.43, 280.69 0.7 M23.92 301.59 C99.82 216.65, 174.59 130.3, 287.02 -0.55 M23.31 302.74 C104.62 210.39, 185.75 117.66, 286.26 -0.1 M29.4 302.76 C99.43 218.61, 172.79 136.32, 291.65 1.02 M28.52 301.52 C90.54 232.32, 151.46 162.07, 290.79 0.23 M33.82 303.49 C102.76 220.08, 175.39 137.8, 297.54 0.92 M34.15 302.67 C102.51 224.4, 171.16 146.37, 296.8 0.09 M39.25 301.03 C133.02 191.42, 228.98 81.13, 301.19 0.15 M40.08 301.9 C120.53 207.32, 202.23 113.09, 302.11 0.26 M43.92 303 C148.16 182.29, 251.9 64.31, 306.57 0.77 M45.05 302.85 C98.88 239.12, 153.17 175.77, 307.63 -0.25 M50.97 302.52 C123.65 219.08, 195.9 136.03, 313.28 0.97 M49.87 301.55 C139.04 198.82, 228.84 95.79, 312.79 -0.44 M54.36 302.71 C118.6 228.02, 183.02 156.29, 318.56 -0.33 M55.18 302.71 C140.29 204.8, 225.27 107.3, 318.79 -0.37 M61.28 300.89 C155.07 193.74, 248.99 84.89, 323.57 0.61 M61.24 301.89 C136.96 215.44, 212.36 128.93, 322.95 0.42 M66.68 301.79 C166.23 182.97, 268.02 66.3, 328.63 -1.16 M65.7 301.84 C147.01 209.3, 225.92 118.47, 328.66 -0.22 M71.18 301.68 C150.05 211.17, 228.9 121.52, 334.87 0.69 M71.3 301.39 C150.36 213.02, 227.94 123.84, 334.13 0.21 M75.96 301.66 C159.86 206.78, 243.79 110.32, 339.56 -1.09 M76.88 302.79 C147.6 219.97, 217.74 139.15, 338.95 0.11 M82.55 300.79 C147.24 225.88, 213.81 152.34, 344.57 -0.56 M81.67 301.75 C186.39 181.31, 290.8 60.43, 344.15 -0.15 M87.74 302.6 C169.14 206.65, 252.81 113.28, 348.7 -0.44 M87.6 302.62 C159.65 220.07, 230.93 138.43, 349.04 0.6 M92.44 301.44 C168.18 215.07, 243.86 127.12, 354.94 -0.41 M92.29 301.73 C195.84 183.85, 298.1 66.4, 355.67 -0.17 M96.56 302.58 C187.92 198.94, 277.91 93.62, 360.75 -0.13 M98.14 302.51 C198.55 185.49, 300.05 69.17, 360.26 -0.06 M103.34 301.76 C198.47 190.41, 294.3 80.94, 365.11 0.44 M103.06 302.23 C194.12 196.63, 285.56 92.42, 365.37 -0.35 M107.45 302.99 C213.8 184.82, 315.47 65.38, 371.37 -0.52 M108.46 302.63 C166.93 236.92, 223.57 172.24, 370.28 0.69 M112.9 302.69 C207.76 193.03, 303.48 83.18, 376.8 -0.96 M114.46 302.29 C199.62 202.82, 284.92 105.44, 375.89 -0.44 M118.92 302.9 C206.12 202.46, 292.03 103.78, 382.28 1.22 M118.83 301.62 C222.75 185.02, 325.18 65.84, 381.92 -0.05 M124.21 302.29 C181.06 237.49, 235.02 173.86, 386.37 0.32 M124.68 301.99 C192.66 223.88, 258.86 147.64, 387.28 -0.07 M128.69 302.52 C187.75 234.05, 246.93 166.44, 392.7 -0.6 M129.2 301.67 C200.63 221.33, 272.44 138.85, 391.78 -0.18 M135.53 301.49 C190.19 240.21, 243.79 178.99, 397.27 0.15 M134.75 301.8 C198.8 227.37, 263.03 153.77, 397.63 -0.41 M139.28 302.02 C207.04 225.15, 274.77 149.78, 402.66 -0.91 M139.82 302.29 C201.77 229.41, 263.51 158.6, 402.11 -0.03 M145.35 301.34 C216.86 222.15, 288.35 140.08, 407.58 0.04 M145.01 302.85 C217.53 217.87, 290.59 134.58, 408.12 -0.21 M150.12 302.71 C250.39 188.4, 350.23 71.84, 414.24 -0.92 M150.63 301.98 C252.77 184.15, 354.99 64.87, 413.45 0.52 M156.12 303.46 C229.43 215.46, 306.05 128.85, 417.96 -0.78 M156.09 302.14 C235.72 209.55, 317.92 115.57, 419.07 0.23 M160.95 301.33 C236.07 219.71, 309.19 134.67, 423.57 -0.12 M161.85 302.27 C236.04 217.9, 309.13 134.54, 424.08 0.34 M166.93 302.09 C268.45 184.21, 371.64 67.07, 430.49 0.29 M166.63 302.23 C268.01 185.42, 367.84 70.47, 429.4 -0.37 M172.94 302.54 C228.12 236.85, 285.28 172.99, 435.57 0.26 M172.28 302.53 C267.47 193.65, 360.5 86.04, 435.07 -0.17 M177.26 302.6 C241.23 228.14, 307.12 151.81, 440.78 -0.96 M177.6 301.94 C257.12 209.81, 338.2 116.2, 440.53 -0.32 M183.02 301.93 C274.87 200.76, 364.63 95.91, 444.72 0.67 M183.24 301.74 C267.39 207.08, 351.18 110.52, 445.26 0.43 M187.44 302.96 C293.5 183.49, 397.84 62.72, 450.37 -0.81 M187.73 302.23 C285.92 190.82, 383.67 77.97, 451.35 -0.04 M194.09 302.98 C254.43 231.7, 316.08 160.86, 456.54 -0.15 M193.52 302.42 C291.52 187.73, 390.21 74.86, 456.27 0.58 M197.57 301.7 C280.57 208.14, 361.48 115.35, 461.12 -0.12 M198.54 302.23 C263.09 225.76, 327.72 150.72, 461.03 -0.35 M204.83 302.38 C297.27 197.34, 389.23 90.64, 466.11 0.5 M204.44 302.15 C300.41 192.06, 398.34 79.68, 466.34 -0.26 M208.57 301.28 C289.09 210.88, 369.54 117.93, 471.14 -0.13 M209.29 302.06 C279.66 218.49, 352.05 136.7, 471.16 -0.05 M215.34 302.44 C304.33 194.65, 397.75 89.02, 477.29 -0.95 M214.74 302.05 C286.14 218.4, 357.94 135.72, 476.54 0.06 M218.88 302.48 C288.55 226.37, 355.34 147.88, 483.06 0.18 M219.8 302.29 C316.9 189.8, 414.54 77.93, 482.2 0.52 M226.02 300.94 C327.39 183.51, 429.62 63.66, 488.01 0.42 M225.73 301.69 C298.58 216.85, 372.28 132.33, 487.89 0.17 M230.04 303.2 C304.42 216.4, 379.06 129.12, 492.2 0.66 M229.88 302.22 C318.74 200.38, 406.64 99.44, 492.33 0.04 M236.46 301.31 C294.79 233.24, 356.99 162.54, 498.22 1.01 M236.16 301.93 C316.4 208.72, 398.58 114.59, 498.62 0.26 M241.06 301.89 C307.56 223.32, 373.11 146.94, 503.88 0.4 M241.02 301.57 C328.13 200.14, 415.76 97.91, 502.96 0.53 M246.53 302.41 C331.35 203.6, 415.38 104.75, 508.72 -1.1 M246.17 302.09 C329.26 205.85, 411.17 112.04, 509.18 0.38 M251.82 303.22 C326.51 214.51, 403.5 125.91, 513.52 -0.41 M251.32 302.21 C309.96 233.99, 369 165.77, 514.04 -0.34 M256.87 302.72 C341.03 203.78, 426.86 105.61, 520.04 -0.47 M256.09 302.37 C351.08 193.37, 446.91 83.13, 519.46 -0.1 M261.96 301.09 C329.29 224.69, 395.57 150.31, 523.68 0.69 M261.69 301.9 C324.59 232.53, 384.55 163.84, 524.67 0.32 M268.15 302.97 C369.69 187, 469.18 70.74, 529.08 -1.32 M267.37 302.57 C364.66 192.82, 459.9 83.52, 530.47 0.3 M271.94 302.39 C338.17 225.54, 404.89 148.83, 536.03 0.46 M273.03 301.67 C337.21 226.21, 403.18 150.05, 534.8 -0.1 M278.23 302.74 C344 224.46, 408.98 149.57, 541.48 -0.52 M278.06 302.66 C368.21 198.93, 458.43 95.96, 540.39 0.11 M284.27 300.98 C377.7 192.01, 472.88 85.38, 545.79 0.18 M283.42 301.86 C379.91 191.11, 476.85 80.14, 545.78 -0.09 M288.18 303.08 C385.68 188.71, 486.39 73.24, 552.47 -0.06 M288.27 302.52 C379.38 197.49, 472.7 90.73, 551.9 -0.01 M293.23 301.45 C368.01 220.09, 439.27 135.81, 556.38 -0.02 M294.3 301.52 C381.66 202.44, 468.72 101.73, 556.41 -0.26 M298.25 301.66 C354.25 237.66, 410.74 173.27, 561.53 -1.37 M298.96 302.24 C395.95 188.19, 495.2 73.93, 562.59 -0.11 M304.17 302.16 C375.36 220.43, 446.79 139.16, 567.01 -0.03 M304.29 302.43 C379.41 217, 452.39 131.25, 566.89 -0.5 M308.98 302.9 C386.42 211.57, 463.77 122.58, 573.53 0.32 M309.08 302.58 C368.38 235.88, 425.71 170.16, 572.31 -0.35 M314.25 300.87 C376.35 229.96, 439.88 158.45, 578.32 -0.88 M315.39 301.68 C374.31 235.86, 432.45 168.6, 578.26 0.56 M320.09 303.28 C419.25 189.28, 515.88 76.14, 583.36 -0.24 M320.7 302.21 C378.12 236.44, 434.82 169.93, 583.07 0.29 M324.9 302.69 C389.89 227.08, 454.98 153.88, 588.98 0.89 M325.63 301.35 C416.13 201.34, 504.17 99.14, 588.44 0.51 M331.61 301.54 C405.85 214.31, 484.18 125.71, 593.27 0.18 M330.52 302.78 C418.43 202.39, 506.19 101.76, 593.16 0.41 M336.14 300.83 C438.84 182.18, 542.36 63.58, 599.09 0.81 M336.42 302.23 C413.88 213.71, 490.67 126.13, 598.45 0.48 M340.44 302.05 C419.29 213.72, 495.47 125.31, 603.3 0.83 M341.7 302.68 C407.66 225.39, 473.36 150.28, 604.03 0.2 M347.73 302.62 C435.42 201.65, 522.61 100.89, 609.05 -1.08 M347.49 302.16 C432.45 206.78, 516.85 109.77, 609.6 0.02 M352.87 302.37 C433.93 208.22, 514.24 116.32, 614.99 -0.38 M352.05 302.16 C428.18 214.48, 503.29 127.93, 614.34 0.1 M358.03 301.23 C455.59 191.71, 551.88 79.18, 620.72 0.92 M357.39 302.23 C447.31 200.7, 537.02 97.4, 620.62 0.01 M363.03 301.19 C435.22 217.73, 508.26 133.52, 625.1 -0.46 M362.47 301.61 C436.43 218.1, 509.63 133.69, 625.59 -0.18 M367.41 301.71 C458.93 198.13, 550.9 92.86, 631.69 -1.12 M368.66 301.73 C431.23 227.37, 494.62 154.85, 630.53 -0.25 M374.4 301.69 C438.59 227.81, 505.08 152.73, 635.77 0.72 M372.99 302.16 C452.3 210.42, 531.51 119.1, 635.87 0.11 M378.7 302.45 C477.04 189.29, 572.78 79.66, 641.02 -0.43 M378.61 302.8 C481.66 183.37, 584.54 64.8, 641.46 -0.16 M385.1 301.38 C447.76 229.81, 510.52 156.62, 646.61 -0.69 M384.51 301.67 C472.43 200.95, 561.28 99.68, 646.1 -0.15 M389.65 302.44 C464.07 217.48, 537.08 131.86, 652.57 0.71 M389.38 302.38 C477.69 198.89, 566.67 96.19, 652.39 -0.68 M393.56 302.29 C497.59 183.76, 602.65 62.79, 658.13 -0.04 M394.77 302.12 C453.12 237.91, 509.11 173.82, 657.18 0.09 M399.18 302.31 C496.88 190.24, 595.15 79.17, 662.6 -1.15 M399.97 302.91 C479.45 211.14, 559.51 119.45, 663.18 -0.36 M406.43 303.02 C469.72 229.23, 534.31 152.91, 668.27 1.04 M405.79 302.25 C479.17 217.06, 552.13 132.74, 667.18 0.01 M411.1 302.51 C489.19 213.08, 565.22 124.67, 674.45 -0.41 M410.61 302.02 C484.22 217.81, 557.79 134.14, 673.93 -0.41 M414.8 302.17 C473.2 233.65, 532.26 168.03, 678.12 0.37 M416.43 301.5 C495.73 210.6, 574.24 120.35, 678.68 -0.18 M421.05 302.88 C507.55 202.55, 595.19 100.37, 683.83 0.57 M420.37 302.83 C510.6 198.56, 599.09 96.1, 684.47 -0.77 M427.08 301.7 C517.49 197.81, 608.67 93.08, 688.5 0.81 M426.4 301.74 C528.54 187.64, 628.17 71.76, 689.17 0.15 M431.22 301.58 C520.01 200.44, 606.03 100.73, 693.56 -0.56 M431.17 302.12 C521.86 198.94, 610.57 96.62, 694.88 -0.66 M436.08 301.29 C529.07 198.42, 619.84 91.82, 698.83 0.15 M436.84 302.16 C502.53 228.09, 567 152.16, 699.51 0.36 M442.35 302.94 C541.96 185.54, 641.91 71.6, 704.96 0.23 M442.63 302.19 C496.67 241.81, 549.45 179.89, 704.32 0.46 M447.4 301.76 C541.41 193.6, 635.31 85.16, 710.55 -1.05 M447.43 302.1 C539.57 193.54, 632.8 86.53, 709.99 0.26 M452.69 302.8 C534.61 206.28, 617.8 113.27, 714.84 0.15 M452.68 302.39 C514.39 231.64, 576.72 159.3, 715.32 0.47 M457.87 301.62 C560.85 182.32, 663.46 63.87, 721.4 -0.52 M458.15 301.6 C557.99 188.04, 656.94 73.25, 720.92 -0.48 M463.62 303.22 C518.45 237.57, 576.48 172.08, 726.24 -0.19 M463.76 301.91 C520.86 236.1, 578.74 169.92, 725.86 0.79 M468.02 302.77 C542.18 218.06, 616.73 132.31, 731.16 0.01 M468.69 302.01 C553.33 204.2, 639.57 106.03, 731.98 -0.64 M473.96 302.25 C559.82 202.93, 645.18 105.22, 736.4 1.31 M474.34 302.68 C555.3 209.03, 635.69 116.54, 736 0.53 M478.68 302.55 C569.32 199.01, 660.14 96.5, 742.71 0.52 M480.11 301.98 C541.18 231.9, 602.57 161.93, 741.76 -0.24 M485.7 301.92 C570.51 203.63, 653.52 107.96, 746.23 1.05 M485.16 301.93 C574.39 200.41, 662.87 98.55, 746.66 0.09 M489.2 302.46 C564.65 215.38, 641.18 127.36, 751.88 -0.75 M489.18 302.19 C556.8 226.93, 623.32 149.74, 752.78 -0.02 M496.02 302.53 C556.97 230.09, 618.93 160.08, 756.95 -0.04 M495.22 301.86 C577.66 205.88, 660.57 110.84, 757.87 0.58 M501.18 301.7 C591.44 196.28, 682.48 92.16, 764.43 0.64 M500.52 302.93 C601.17 188.23, 700.5 72.83, 763.03 0.3 M505.2 301.51 C598.12 195.55, 689.13 92.02, 768.95 0.08 M505.82 302.29 C591.68 202.42, 678.67 101.66, 768.24 -0.13 M511.18 302.85 C597.08 202.77, 685.26 104.68, 774.54 0.65 M510.88 302.36 C593.25 205.12, 677.16 109.2, 774.43 0.28 M515.58 301.4 C590.36 217.04, 664.58 130.73, 778.38 1.17 M516.52 302.33 C583.19 226.32, 647.83 151.49, 778.94 -0.06 M521.23 303.19 C615.43 196.83, 705.91 92.34, 784.04 -0.84 M521.28 302 C576.69 239.12, 633.46 175.39, 784.4 -0.62 M528.06 301.88 C613.2 203.86, 698.45 104.78, 789.65 -0.43 M526.87 302.09 C580.17 241.92, 633.87 180.47, 789.7 -0.47 M532.53 303.38 C618.37 203.8, 703.34 107.5, 794.48 -1.12 M532.51 302.39 C618.75 205.14, 704.45 107.2, 795.43 -0.29 M538.75 300.9 C614.96 213.97, 691.36 126.01, 800.63 0.66 M538.13 302.11 C619.26 205.86, 700.92 112.42, 800.53 0.35 M542.05 301.8 C608.92 225.05, 677.07 147.09, 806.03 -0.33 M543.31 302.53 C635.34 197.21, 727.78 91.73, 805.46 -0.12 M549.16 302.65 C615.26 225.16, 682.15 147.15, 810.67 -0.37 M548.15 301.67 C647.69 188.76, 744.75 75.66, 811.13 -0.26 M552.73 302.47 C649.04 191.15, 746.06 80.22, 815.69 0.41 M553.31 302.67 C634.3 209.49, 713.38 118.44, 815.74 0.83 M558.28 302.77 C623.49 228.09, 687.62 154.45, 821.64 0.68 M558.72 301.61 C652.21 195.72, 743.86 90.77, 821.51 0.28 M563.28 302.6 C656.47 195.37, 750.96 88.03, 825.52 -0.58 M564.66 302.69 C623.76 230.42, 685.03 160.85, 826.09 -0.05 M570.49 300.88 C654.17 204.14, 737.25 106.28, 832.35 0.09 M569.36 301.52 C647.66 213.56, 724.08 125.31, 832.48 0.17 M573.84 302.78 C662.35 200.33, 749.33 99.53, 837.64 0.08 M574.67 302.59 C655.18 207.49, 736.99 115.01, 837.17 0.73 M580.83 301.66 C662.49 208.63, 743.73 116.02, 841.88 0.9 M580.16 301.41 C637.02 235.91, 695.83 169.49, 842.9 -0.52 M584.84 301.31 C666.28 208.49, 747.01 116.87, 848.89 -0.09 M585.47 301.97 C672.58 201.44, 759.71 101.29, 848.02 0.12 M592.03 302.42 C664.69 220.57, 736.33 137.19, 853.05 0.5 M591.19 302.29 C651.39 229.86, 712.27 159.09, 853.57 -0.48 M595.91 302.16 C668.78 219.35, 740.62 135.76, 858.11 -0.75 M595.52 301.69 C656.07 233.56, 714.37 165.48, 858.25 0.02 M602.01 301.02 C659.94 232.51, 722.23 162.14, 864.41 0.74 M601.96 302.2 C657.54 237.92, 713.04 174.7, 864.44 0.1 M606.95 302.44 C696.85 196.51, 785.42 93.63, 869.53 0.11 M606.91 302.22 C694.88 200.08, 784.61 98.15, 868.59 -0.06 M611.15 302.27 C674.79 229.74, 736.99 157.08, 873.7 0.11 M611.28 302.09 C690.97 210.98, 770.41 120.19, 875.17 0.01 M617.04 302.7 C673.43 239.92, 726.61 174.75, 880.35 0.53 M616.95 301.91 C710.04 196.33, 802.65 88.57, 879.19 -0.17 M621.57 302.49 C705.52 205.78, 791.7 108.62, 885.74 -0.68 M622.79 302.19 C684.22 232.75, 745.69 161.65, 885.72 -0.08 M627.82 301.14 C697.46 219.04, 770.37 136.2, 890.85 0.2 M627.73 302.07 C724.89 188.49, 823.17 75.73, 890.19 0.62 M631.98 301.93 C719.85 201.74, 806.29 103.67, 895.48 0.19 M632.48 302.61 C689.11 236.18, 745.51 170.56, 895.71 -0.51 M637.84 301.68 C727.23 203.15, 814.76 101.19, 901.09 -0.59 M638.78 301.93 C699.57 234.08, 759.34 165.45, 901.17 0.29 M643.79 302.9 C713.56 221.88, 785.17 139.05, 907.21 0 M643.2 301.99 C702.65 235.94, 761.87 166.51, 906.2 0.23 M648.22 301.35 C724.77 216.59, 800.45 130.18, 911.98 0.08 M648.79 301.41 C748.96 187.37, 848.39 73.13, 911.69 0.08 M654.71 302.62 C708.11 236.34, 763.83 172.41, 917.61 -0.58 M654.4 302.25 C739.7 204.48, 826.24 105.66, 916.81 -0.69 M659.25 302.89 C720.3 234.52, 778.7 168.28, 921.9 0.19 M659.54 301.73 C713.67 241, 767.27 179.69, 921.86 0.55 M664.47 303.34 C757.03 195.38, 850.55 88.14, 928.18 -0.92 M664.97 302.35 C756.37 195.38, 848.28 90.39, 927.45 -0.9 M671.49 302.19 C760.3 198.43, 849.16 97.84, 932.35 -0.63 M670.83 301.41 C755.67 206.64, 838.73 110, 932.92 -0.17 M675.93 302.26 C766.66 196.3, 858.3 92.2, 938.94 -0.77 M674.91 302.22 C729.95 240.28, 784.79 177.83, 938.2 0.63 M680.17 300.8 C739.21 233.13, 798.68 164.36, 942.33 0.08 M681.02 301.39 C751.23 224.28, 819.55 145.54, 943.27 -0.1 M687.15 301.59 C739.04 239.38, 792.11 178.67, 947.64 0.11 M685.91 302.27 C789.67 184.21, 891.11 66.78, 948 -0.01 M692.15 302.5 C790.25 191.21, 885.84 79.59, 953.94 -0.34 M692.16 302.23 C792.99 182.17, 896.68 63.99, 953.58 0.35 M697.05 303.01 C794.68 189.67, 889.59 79.33, 958.29 0.79 M696.26 301.6 C765.91 222.5, 834.12 143.8, 959.17 0.21 M702.11 300.88 C770.25 223.38, 838.54 144.94, 964.5 0.53 M702.59 302.31 C756.35 239.19, 809.76 177.03, 965.06 0.04 M706.57 301.93 C770.22 227.57, 832.69 156.76, 969.07 -0.43 M707.06 302.04 C800.27 192.9, 895.57 84.34, 969.31 -0.27 M711.83 300.83 C786.18 217.19, 860.9 130.32, 974.47 0 M713.23 301.92 C769.64 236.87, 826.7 172.26, 975.51 0 M717.5 302.24 C788.13 220.73, 856.98 138.04, 979.6 0.42 M718.28 301.87 C798.9 207.87, 880.85 114.8, 980.27 0.58 M723.89 302.31 C782.21 235.03, 840.55 166.97, 986.29 0.46 M722.86 302.22 C792.48 221.63, 862.5 140.36, 985.56 -0.6 M729.11 301.57 C796.3 227.82, 860.95 152.19, 992.04 0.46 M728.18 302.08 C809.02 211.42, 886.82 121.08, 990.76 -0.18 M734.05 303.01 C828.84 189.8, 925.81 78.1, 996.49 -0.83 M733.69 302.83 C794.66 232.38, 855.86 162.59, 996.98 -0.43 M739.26 301.53 C798.01 232.61, 860.85 160.72, 1000.95 0.22 M739.55 302.39 C793 239.59, 846.59 178.47, 1001.46 0.31 M744.35 301.72 C847.25 184.99, 950.67 66.23, 1008.11 0.75 M744.49 302.4 C825.22 210.18, 904.52 119.27, 1007.54 -0.03 M750.08 301.98 C802.19 239.25, 857.67 177.5, 1012.5 0.19 M750.06 301.81 C817.7 220.11, 887.83 139.93, 1012.21 -0.01 M755.51 303.25 C826.94 215.84, 901.96 131.62, 1018.29 0.18 M755.01 301.8 C834.92 209.24, 915.53 117.98, 1018.41 -0.04 M760.05 302.21 C814.98 235.78, 870.85 172.69, 1022.97 -0.27 M760.77 301.52 C816.1 236.04, 871.73 171.56, 1022.55 0.34 M765.16 302.22 C821.13 237.18, 877.39 172.32, 1028.4 -0.24 M765.8 302.02 C867.84 185.55, 969.76 67.77, 1029.06 -0.67 M771.89 302.05 C834.51 226.94, 897.68 153.79, 1033.48 0.44 M771.04 301.95 C861.1 197.22, 953.28 91.86, 1033.42 0.15 M775.76 302.27 C845.66 223.89, 914.5 144.55, 1038.44 -1.03 M776.56 302.56 C863.6 201.81, 951.35 100.55, 1038.94 -0.01 M782.41 300.77 C873.2 199.12, 961.94 98.14, 1044.31 0.5 M781.35 302.31 C847.13 228.53, 911.51 153.61, 1044.34 -0.49 M786.66 301.39 C866.66 208.61, 947.31 115.02, 1049.75 0.82 M786.72 301.89 C848.11 229.71, 911.12 158.31, 1048.54 0.51 M792.68 302.69 C867.05 218.04, 942.07 132.14, 1053.78 0.33 M792.74 302.21 C859.94 222.35, 927.62 144.67, 1055.1 0.33 M797.55 302.04 C882.02 205.19, 965.31 108.55, 1059.69 0.99 M797.09 302.61 C861.1 230.6, 922.53 159.26, 1059.16 0.46 M802.37 302.49 C887.22 205.77, 968.85 110.54, 1066.17 -0.78 M802.83 302.27 C860.43 237.64, 917.49 171.52, 1065.22 0.17 M807.23 303.3 C880.83 219.9, 952.16 137.22, 1070.21 0.21 M808.2 301.81 C908.11 187.72, 1007.57 72.93, 1070.73 -0.15 M813.16 302.22 C870.3 236.84, 926.18 170.63, 1077.01 0.96 M813.22 301.3 C899.25 201.5, 987.01 101.64, 1075.59 -0.44 M819.39 301.95 C880.05 229.57, 942.56 158.88, 1080.22 0.13 M818.6 301.84 C911.21 195.02, 1003.82 89.49, 1081.52 0.07 M825.32 301.06 C881.22 236.91, 938.9 170.53, 1085.5 -0.87 M824.36 301.34 C898.8 215.8, 973.3 129.33, 1086.83 0.32 M830.04 302.69 C900.89 219.26, 974.5 133.85, 1090.67 0.69 M828.78 301.77 C926.65 192.18, 1021.53 82.18, 1091.51 0.67 M833.66 301.75 C914.84 211.49, 993.14 119.97, 1097.97 0.89 M834.31 302.25 C920.98 201.48, 1008.21 101.29, 1097.58 -0.7 M840.06 301.13 C938.61 190.97, 1037.33 79.69, 1103.34 1.27 M839.55 302.54 C905.32 225.32, 972.4 148.8, 1101.79 -0.06 M844.91 301.93 C923.55 211.05, 1002.9 118.43, 1108.59 0.91 M844.27 302.6 C900.7 237.93, 957.65 172.24, 1108.43 0.32 M849.49 303.07 C922.07 216.05, 996 133.36, 1112.97 -0.51 M850.25 301.85 C949.4 186.95, 1048.8 73.21, 1112.9 -0.01 M854.49 302.06 C957.6 182.7, 1060.32 65.62, 1118.6 0.65 M855.11 302.54 C921.99 228.44, 986.87 153.29, 1117.99 0 M860.92 302.95 C928.68 220.36, 998.79 140.98, 1124.22 -0.78 M860.53 301.5 C946.14 202.47, 1032.33 104.15, 1123.09 0.55 M866.14 301.24 C972.34 180.94, 1076.18 60.01, 1128.43 0.42 M866.11 302.48 C923.66 236.74, 979.44 170.96, 1129.11 -0.41 M871.59 300.86 C975.17 183.37, 1079.81 63.69, 1134.7 0.32 M871.99 302.31 C930.71 236.61, 988.67 169.38, 1134.55 0.64 M876.55 301.4 C954.03 211.16, 1030.67 122.37, 1138.8 0.51 M877.12 302.09 C953.9 214.57, 1028.78 127.79, 1139.25 -0.01 M881.31 301.42 C942.73 234.98, 1000.94 167.33, 1145.13 -0.17 M881.98 302.42 C988.05 180.54, 1091.88 60.05, 1144.96 0.27 M887.78 301.61 C967.19 211.08, 1049.3 117.66, 1149.6 0.05 M886.83 302.09 C968.95 210.01, 1049.29 116.89, 1150.1 -0.07 M893.58 301.29 C973.6 207.65, 1057.89 112.63, 1155.99 -0.16 M893.24 302.39 C979.02 202.7, 1065.31 103.46, 1155.94 -0.09 M897.13 301.5 C950.46 239.17, 1003.16 180.25, 1160.38 1.18 M897.88 302.45 C974.79 213.96, 1050.51 127.44, 1160.71 0.77 M903.14 301.63 C987.8 203.62, 1075.62 102.83, 1166.34 -0.4 M903.08 302.36 C984.28 210.2, 1064.72 116.89, 1165.7 -0.12 M909.54 302.38 C962.43 239.4, 1014.64 178.58, 1171.8 0.37 M908.38 301.92 C995.78 203.16, 1082.48 101.38, 1170.68 0.62 M915.23 302.47 C999.77 204.97, 1084.35 108.1, 1177.25 -1.08 M914.23 301.49 C1007.63 192.82, 1100.98 85.97, 1176.42 -0.2 M918.37 301.58 C994.88 217.87, 1069.93 131.72, 1180.62 0.85 M919.26 301.92 C1001.63 208.06, 1083.88 113.51, 1181.31 0.58 M924.07 301.55 C990.05 228.01, 1055.42 152.76, 1188.4 -0.72 M925.13 301.93 C1009.03 203.96, 1093.61 106.34, 1186.85 0.29 M929.15 302.62 C995.9 226.07, 1062.26 150.26, 1192.45 -0.58 M930.32 302.61 C1029.14 187.31, 1129.01 73.79, 1191.99 -0.01 M936.61 302.26 C1005.03 224.18, 1073.02 145.94, 1196.93 0.45 M935.06 301.42 C1037.08 186.7, 1136.73 71.27, 1197.46 0.15 M940.38 302.79 C1013.96 217.59, 1087.49 133.17, 1201.91 -0.33 M940.77 302.32 C1006.28 226.36, 1072.49 149.94, 1202.4 0.06 M946.56 301.16 C1000.17 236.39, 1055.18 173.09, 1207.64 -0.66 M945.87 301.85 C1036.06 201.04, 1123.6 99.97, 1208.68 0.31 M951.41 301.07 C1050.21 187.13, 1147 73.69, 1214.07 -0.51 M950.95 301.52 C1037.47 200.38, 1125.5 99.37, 1213.04 -0.12 M955.16 303.5 C1047.71 195.55, 1141 89.91, 1218.28 0.21 M956.16 302.6 C1038.42 208.33, 1120.65 112.81, 1219.26 -0.16 M961.33 301.5 C1041.93 208.07, 1120.78 117.92, 1225.29 1.29 M961.75 302.25 C1019.01 237.76, 1074.15 174.24, 1224.7 0.38 M965.92 303.17 C1027.41 234.5, 1087.12 165.03, 1229.71 -0.05 M966.8 302.64 C1037.54 221.55, 1108.27 141.37, 1230.19 -0.02 M972.35 303.03 C1046.74 219.87, 1119.49 136.51, 1235.59 -0.45 M972.93 301.86 C1059.02 202.17, 1145.58 102.71, 1234.47 0.39 M977.32 301.98 C1079.14 183.76, 1181.79 64.98, 1240.29 0.52 M977.51 302.22 C1050.21 216.78, 1123.35 133.1, 1240.74 0.12 M981.91 302.86 C1050.42 226.36, 1115.37 149.98, 1245.31 0.04 M982.53 301.55 C1067.78 201.56, 1154.37 102.19, 1245.39 0.58 M988.77 303.21 C1064.43 213.84, 1137.64 128.11, 1251.48 -1.23 M987.83 302.68 C1056.62 224.7, 1123.96 147.05, 1251.35 -0.47 M992.82 302.16 C1055.3 231.66, 1116.12 160.61, 1256.21 0.57 M993.14 302.4 C1077.26 208.86, 1159.9 113.12, 1255.68 -0.49 M998.84 302.23 C1091.68 194.81, 1185.35 88.47, 1262.25 -1.12 M998.13 302.12 C1061.75 231.62, 1124.3 159.29, 1261.83 0.16 M1005.38 302.64 C1103.63 187.33, 1203.25 71.56, 1265.85 -1.02 M1004.46 301.37 C1102.98 189.31, 1200.37 77.34, 1267.21 -0.16 M1008.7 301.16 C1100.22 197.72, 1192.33 91.74, 1272.39 -0.07 M1009.04 302.75 C1083.78 219.12, 1156.81 135.13, 1272.01 -0.69 M1013.94 300.91 C1093.38 210.62, 1173.19 118.82, 1277.72 0.97 M1015.1 302.09 C1084.78 222.1, 1152.54 143.45, 1277.04 -0.12 M1020.92 303.24 C1122.68 183.13, 1225.54 64.64, 1283.08 0.03 M1019.8 302.41 C1117.43 190.46, 1213.4 79.21, 1282.76 -0.01 M1026.2 300.9 C1117.57 197.71, 1206.49 94.12, 1288.82 0.92 M1025.32 301.83 C1110.38 204.69, 1194.94 108.55, 1288.17 -0.24 M1031.59 302.64 C1121.84 200.38, 1209.81 97.78, 1293.76 1.25 M1031.02 301.9 C1115.38 204.96, 1199.38 109.29, 1293.49 0.55 M1037.12 301.45 C1116.99 208.36, 1199.73 113.1, 1297.61 -1.14 M1036.53 302.26 C1133.54 191.76, 1229.38 81.25, 1298.78 -0.23 M1040.5 301.43 C1098.36 235.26, 1154.15 168.7, 1303.93 -0.6 M1040.77 302.19 C1112.6 219.09, 1184.36 135.22, 1303.35 -0.21 M1045.93 301.93 C1140.75 195.16, 1232.83 88.67, 1309.62 -0.67 M1047.29 302.08 C1148.73 182.96, 1251.79 64.95, 1309.58 -0.21 M1052.27 301.68 C1151.52 187.64, 1248.69 74.71, 1314.61 0.28 M1051.93 302.7 C1103.89 240.66, 1156.13 180.29, 1314.4 0.13 M1057.26 301.13 C1127.93 220.75, 1198.71 141.41, 1320.49 -1.09 M1057.29 302.13 C1123.71 222.15, 1192.48 144.28, 1319.86 -0.15 M1061.61 302.03 C1152.14 197.24, 1241.92 95.48, 1324.29 1.19 M1062.56 301.86 C1164.63 183.32, 1266.76 64.54, 1324.7 -0.1 M1068.02 301.42 C1170.07 181.39, 1275.06 62.48, 1330.71 -1.3 M1067.23 302.17 C1124.56 237.69, 1181.61 171.94, 1330.32 -0.45 M1072.62 301.1 C1165.27 198.74, 1254.75 95.4, 1334.58 1.08 M1073.23 302.21 C1167.82 191.15, 1264.4 80.72, 1335.75 0.7 M1077.94 302.31 C1166.51 198.96, 1255.52 97.08, 1342.18 -1.34 M1077.54 302.95 C1179.82 185.41, 1281.63 68.85, 1341.37 -0.22 M1084.03 303.15 C1143.92 236.28, 1201.43 167.82, 1346.85 -0.52 M1083.13 301.93 C1179.99 191.45, 1277.15 78.38, 1346.16 0.03 M1089.08 301.59 C1152.33 229.26, 1215.95 156.11, 1352.58 -1.27 M1088.34 302.28 C1157.04 221.75, 1227.29 142.19, 1351.42 -0.09 M1094.86 301.13 C1172.56 210.1, 1251.14 119.1, 1356.5 -0.14 M1093.95 302.17 C1166.84 216.39, 1241.37 131.2, 1356.83 -0.21 M1098.21 302.52 C1176.3 212.84, 1253.36 125.81, 1363.29 -0.06 M1099.29 302.71 C1159.42 234.66, 1218.57 167.55, 1361.98 -0.59 M1105.57 302.66 C1187.08 205.95, 1270.54 111.93, 1367.76 -0.58 M1104.84 301.96 C1181.5 212.47, 1258.87 122.63, 1366.93 0.03 M1110.88 302.11 C1170.48 232.54, 1230.94 162.94, 1373.74 -1.2 M1109.45 302.74 C1168.56 235.54, 1226.14 169.55, 1372.59 -0.37 M1114.64 301.75 C1190.97 215.59, 1267.11 127.76, 1378.92 -0.65 M1115.22 302.18 C1179.69 229.63, 1243.16 156.56, 1377.91 -0.43 M1119.94 301.3 C1184.24 226.53, 1248.88 151.21, 1382.5 -0.27 M1120.17 301.82 C1193.01 218.45, 1264.67 136.56, 1383.62 -0.19 M1126.55 302.63 C1190.87 230.62, 1252.8 157.99, 1388.02 -0.93 M1126.5 301.61 C1197.72 221.35, 1269.78 138.18, 1388.35 -0.09 M1131.56 301.59 C1203.78 216.37, 1277.26 132.37, 1394.59 1.08 M1131.06 302.13 C1232.68 184.67, 1335.14 66.75, 1393.93 0.64 M1137 302.66 C1215.41 209.88, 1295.86 118.51, 1398.46 -0.27 M1136.95 301.99 C1232.65 190.45, 1328.66 79.72, 1399.11 0.13 M1141.44 301.64 C1224.49 208.48, 1305.81 113.79, 1404.85 0.05 M1141.73 302.31 C1207.81 227.04, 1274.95 150.98, 1404.04 0.72 M1147.63 302.62 C1251.84 181.37, 1356.09 62.57, 1408.89 0.74 M1147.93 301.84 C1206.96 232.61, 1265.95 164.02, 1409.34 -0.21 M1151.82 302.91 C1227.56 220.43, 1299.95 135.22, 1415.51 0.62 M1152.35 302.57 C1236.15 206.29, 1319.09 110.56, 1415.06 0.47 M1158.16 300.98 C1246.66 199.12, 1336.68 96.17, 1421.06 0.92 M1157.72 301.49 C1260.67 184.74, 1363.62 65.32, 1420.43 -0.59 M1163.54 301.76 C1257.68 191.73, 1353.44 81.49, 1426.35 0.34 M1163.1 301.85 C1245.84 205.34, 1329.23 110.28, 1425.05 -0.27 M1169.71 301.89 C1261.28 195.58, 1352.92 88.51, 1431.93 -0.35 M1168.79 301.47 C1253.77 204.95, 1337.74 108.54, 1430.94 -0.04 M1172.64 301.87 C1249.99 214.19, 1326.86 126.61, 1435.2 1.27 M1173.54 301.79 C1267.26 192.84, 1361.58 84.44, 1435.76 0.18 M1179.19 302.65 C1274.19 194.84, 1366.52 85.26, 1441.6 0.25 M1179.4 301.85 C1259.23 212.39, 1336.75 121.85, 1441.7 0.01 M1185.1 301.84 C1250.89 225.66, 1315.99 148.99, 1445.85 -0.23 M1184.41 301.64 C1247.08 231.99, 1308.56 160.37, 1446.38 0.25 M1188.81 302.44 C1258.49 225.09, 1326.21 143.83, 1452.17 -0.19 M1189.09 302.5 C1277.25 201.19, 1365.11 100.64, 1452.93 -0.3 M1195.3 303.04 C1294.27 189.59, 1389.98 77.88, 1457.84 1.29 M1194.68 302.2 C1274.14 210.64, 1355.25 117.99, 1457.49 0.23 M1200.77 302.71 C1275.79 214.45, 1351 128.06, 1462.06 -0.67 M1199.66 302.86 C1271.22 221.69, 1341.13 141.44, 1462.62 0.17 M1205.28 301.78 C1262.85 237.45, 1319.22 173.06, 1467.64 1.01 M1205.64 301.88 C1262.29 236.77, 1318.77 172.07, 1468.26 0.54 M1209.97 301.47 C1274.08 226.86, 1338.54 154.39, 1473.99 0.4 M1210.65 302.53 C1280.52 220.5, 1350.4 140.7, 1473.81 -0.41 M1216.82 301.65 C1298.3 207.29, 1381.43 110.64, 1478.81 0.93 M1215.69 301.8 C1312.11 188.57, 1409.27 77.38, 1478.14 0.08 M1221.3 302.75 C1285.51 227.85, 1350.59 153.62, 1484.71 -0.52 M1221.39 302.2 C1306.78 205.88, 1391.82 108.93, 1483.9 -0.61 M1225.76 301.19 C1290.78 225.95, 1357.01 152.37, 1489.54 -0.37 M1226.64 301.81 C1298.93 221.05, 1370.77 139.49, 1489.66 0.15 M1232.04 302.66 C1338.57 181.3, 1442 60.45, 1495.26 0.36 M1232.05 302.7 C1326.06 196.31, 1418.56 89.94, 1495.34 -0.81 M1236.75 301.71 C1325.52 200.68, 1412.79 101.46, 1500.59 0.18 M1237.46 302.17 C1339.57 185.62, 1441.93 68.65, 1499.98 0.49 M1242.03 301.8 C1323.69 207.26, 1406.13 111.34, 1505.29 -0.54 M1241.97 302.2 C1320.87 209.63, 1402.04 117.46, 1506.07 -0.42 M1248.52 301.68 C1338.89 199.23, 1425.92 97.78, 1509.62 0 M1248.25 301.9 C1318.78 222.8, 1387.29 143.89, 1510.51 -0.12 M1252.54 301.88 C1358.24 185.3, 1461.19 66.02, 1515.76 1.31 M1253.54 302.41 C1316.53 226.6, 1381.97 150.85, 1515.07 0.1 M1259.5 302.4 C1359.69 185.3, 1459.16 72.49, 1521.4 0.99 M1258.51 301.58 C1316.01 235.85, 1373.57 169.95, 1520.65 0.06 M1262.88 302.36 C1354.97 197.35, 1445.44 91.74, 1525.96 0.78 M1263.82 302.34 C1339.59 216.75, 1414.97 130.53, 1526.64 0.14 M1269.01 302.3 C1329.43 234.75, 1390.58 164.31, 1530.78 -0.61 M1268.88 301.66 C1337.26 224.85, 1404.89 148.03, 1531.77 -0.46 M1273.8 301.52 C1346.66 217.7, 1420.69 135.83, 1537.48 0.09 M1274.07 302.32 C1335.74 229.02, 1397.94 158.12, 1536.92 0.67 M1280.65 302.64 C1384.72 180.66, 1491.5 59.64, 1542.01 0.49 M1279.44 301.88 C1372.11 196.35, 1464.23 90.32, 1542.13 -0.18 M1284.07 302.16 C1387.15 183.95, 1488.41 68.22, 1546.62 0.12 M1284.71 302.22 C1378.2 193.75, 1471.15 87.32, 1547.18 0.63 M1289.79 301.81 C1359.28 223.92, 1425.29 147.31, 1553.94 -0.66 M1290.24 301.86 C1383.49 195.19, 1475.81 87.7, 1553.09 0.25 M1296.16 301.4 C1367.99 219.08, 1440.73 135.45, 1558.49 0.05 M1295.86 302.11 C1352.68 235.5, 1410.92 169.12, 1558.16 0.52 M1299.98 301.8 C1383.04 209.91, 1463.87 116.56, 1563.48 0.07 M1300.09 302.41 C1380.2 212.85, 1457.67 122.73, 1564.02 -0.21 M1306.06 303.14 C1369.28 229.17, 1431.97 154.61, 1567.74 0.7 M1306.79 301.6 C1368.06 233.8, 1429.38 163.02, 1568.3 0.72 M1310.76 301.73 C1395.03 207.13, 1478.57 110.13, 1573.49 -1.17 M1310.93 301.92 C1385.7 218.28, 1460.02 132.73, 1574.01 -0.18 M1317.99 301.06 C1416.09 187.22, 1516.99 71.14, 1580.07 1.23 M1316.45 301.6 C1403.88 202.02, 1489.93 102.78, 1578.86 -0.22 M1321.75 301.26 C1425.4 180.01, 1530.11 59.09, 1584.88 0.83 M1322.11 302.64 C1425.14 183.14, 1528.45 63.74, 1584.66 0.16 M1327.39 302.44 C1407.11 213.85, 1483.08 123.28, 1590.73 0.15 M1327.51 301.48 C1397.03 222.68, 1465.79 144.47, 1589.98 0.64 M1331.8 303.26 C1410.4 210.77, 1489.84 119.45, 1595.44 -1.19 M1332.54 302.51 C1435.62 183.89, 1537.71 66.72, 1595.04 -0.36 M1337.94 302.05 C1435.9 190.2, 1534.9 78.35, 1601.49 1.11 M1337.77 301.89 C1419.75 205.06, 1504 108.3, 1600.06 -0.13 M1344.04 302.09 C1429.31 203.37, 1518.12 101.27, 1605.56 -0.93 M1342.78 302.19 C1396.14 240.68, 1448.94 180.36, 1606.74 0.1 M1349.09 301.45 C1431.95 207.64, 1512.55 114.97, 1610.47 0.35 M1348.74 301.92 C1404.66 238.94, 1459.52 175.75, 1610.93 -0.4 M1353.39 302.82 C1421.25 227.18, 1487.22 149.81, 1617.03 -0.03 M1353.41 302.19 C1420.2 226.8, 1484.56 151.97, 1616.56 0.1 M1359.46 301.06 C1462.6 182.97, 1566.3 63.88, 1622.32 -0.81 M1359.35 301.94 C1455.09 191, 1552.38 78.77, 1621.54 0.08 M1363.58 302.06 C1459.04 192.96, 1553.34 84.28, 1626.78 0.61 M1364.41 302.33 C1444.57 209.36, 1526.32 115.83, 1626.53 0.83 M1370.24 301.27 C1426.57 234.2, 1481.78 169.38, 1633.49 0.64 M1369.95 301.94 C1441.17 219.12, 1511.96 138.62, 1631.99 0.35 M1374.67 302.59 C1430.3 239.49, 1483.29 179.01, 1637.38 1.2 M1374.65 302.3 C1442.8 224.11, 1510.41 146.13, 1637 0.22 M1379.52 301.33 C1476.8 190.78, 1573.9 79.58, 1642.42 -0.82 M1380.57 302.01 C1458.56 212.56, 1535.46 124.53, 1642.92 -0.16 M1386.45 303.21 C1463.07 217.2, 1538.9 130.21, 1647.5 -0.34 M1385.79 302.22 C1471.9 203.86, 1558.52 104.16, 1647.75 0.3 M1390.21 302.73 C1477.77 202.56, 1565.9 102.88, 1652.97 0.06 M1391.56 301.86 C1457.53 223.23, 1525.68 144.66, 1653.85 0.13 M1397.33 302.16 C1490.97 192.65, 1583.2 84.27, 1657.87 1.09 M1396.11 302.06 C1460.87 228.39, 1525.09 154.6, 1658.92 0.27 M1402.13 301.28 C1503.69 184.56, 1604.18 65.61, 1664.19 -0.01 M1401.81 301.34 C1483.8 206.93, 1565.64 112.13, 1664.83 -0.15 M1407.69 302.74 C1489.86 206.74, 1571.16 113.15, 1669.54 -0.79 M1406.7 302.26 C1484.29 211.75, 1562.88 123.18, 1669.78 0.01 M1413.15 301.83 C1497.85 202.27, 1585.68 103.32, 1676 -0.35 M1412.76 302.14 C1470.85 234.48, 1529.58 166.45, 1674.8 -0.28 M1416.55 303.14 C1494.37 214.09, 1572.08 125.85, 1680.46 0.23 M1417.5 301.97 C1485.11 224.49, 1552.54 146.48, 1680.46 0.71 M1421.88 302.04 C1507.14 204.38, 1592.98 105.51, 1680.53 6.29 M1422.65 302.34 C1498.06 217.23, 1572.51 132.18, 1680.24 5.86 M1427.11 302.11 C1526.94 187.23, 1627.08 70.09, 1680.66 13.35 M1427.88 301.89 C1496.56 222.35, 1565.79 143.56, 1679.71 11.77 M1433.85 301.81 C1502.66 223.08, 1570.69 143.87, 1679.93 19.05 M1433.05 301.83 C1490.54 236.62, 1547.79 171.47, 1679.99 18.93 M1439.15 302.36 C1528.47 199.99, 1616.45 98.34, 1680.25 24.61 M1438.33 301.47 C1528.89 198.92, 1618.37 96, 1680.47 24.36 M1444.83 302.23 C1504.11 233.37, 1563.56 166.81, 1681.11 31.6 M1443.29 301.87 C1514.77 221.33, 1584.92 140.53, 1679.41 30.54 M1449.52 302.57 C1516.24 227.01, 1582.1 148.88, 1679.12 36.86 M1448.78 301.81 C1529.74 207.91, 1610.33 116.4, 1680.79 36.69 M1453.58 301.06 C1502.64 248.49, 1550.79 192.09, 1679.59 42.82 M1454.99 302.58 C1539.19 206.63, 1622.64 109.47, 1680.37 42.93 M1460.93 303.21 C1526.84 224.84, 1593.83 149.77, 1680.93 50.19 M1460.47 301.39 C1521.77 229.84, 1585.08 158.11, 1680.05 48.88 M1465.91 302.49 C1542.57 214.92, 1620.68 126.02, 1681.57 53.93 M1465.56 302.88 C1520.32 241.86, 1575.35 179.27, 1679.66 54.22 M1470.62 302.67 C1531.57 231.05, 1592.04 162.07, 1681.12 62.24 M1471.34 301.74 C1518.99 246.56, 1567.33 191.94, 1679.97 61 M1474.72 302.84 C1549.08 221.15, 1618.38 139.05, 1681.09 65.65 M1475.17 302.43 C1550.71 215.43, 1626.12 128.75, 1680.64 66.38 M1482.34 301.27 C1522.38 254.65, 1561.78 207.82, 1679.91 74.23 M1481.88 301.58 C1546.07 227.46, 1610.56 153.7, 1679.98 72.93 M1485.45 302.22 C1534.8 247.31, 1583.21 189.22, 1679.1 80.25 M1486.64 302.53 C1540.22 240.87, 1593.22 178.81, 1679.88 80.02 M1491 303.13 C1551.5 233.33, 1610.96 165.56, 1681.73 86.69 M1491.9 301.49 C1542.37 247.05, 1591.36 190.04, 1680.54 84.59 M1495.63 300.79 C1541.37 248.08, 1590.3 195.06, 1679.98 91.04 M1497.42 302.55 C1562.29 227.18, 1627.15 151.74, 1680.09 91.75 M1501.33 302.78 C1564.93 229.4, 1627.26 157.25, 1681.15 98.62 M1502.73 301.99 C1544.47 255.52, 1586.75 208.69, 1680.23 97.68 M1507.57 303.45 C1563.19 240, 1617.6 177.64, 1679.86 103.12 M1507.37 302.01 C1563.84 236.71, 1620.81 171.43, 1679.8 103.95 M1511.91 301.23 C1547.06 263.15, 1580.94 225.15, 1681.43 109.62 M1513.48 301.02 C1578.86 225.52, 1644.51 149.92, 1680.38 109.43 M1517.8 302.63 C1565.52 247.79, 1616.77 190.09, 1679.58 117.34 M1518.34 301.39 C1569.19 242.9, 1620.12 184.74, 1679.76 115.01 M1522.39 302.11 C1556.11 265.41, 1588.17 229.32, 1680.43 121.86 M1523.08 301.09 C1583.69 232.16, 1644.28 163.57, 1680.8 122.91 M1527.87 301.55 C1570.02 252.05, 1611.62 201.49, 1679.73 128.69 M1528.65 301.47 C1585.78 235.09, 1645.66 167.02, 1679.92 127.15 M1534.76 300.78 C1564.79 265.18, 1598.58 227.37, 1680.93 133.34 M1534.01 302.99 C1568 263.73, 1600.47 225.37, 1679.52 134.82 M1540.04 300.38 C1569.42 267.29, 1602.11 228.91, 1678.14 141.85 M1540.3 302.47 C1571.4 263.55, 1603.43 227.86, 1679.57 139.91 M1544 302.94 C1594.73 242.86, 1648.35 181.65, 1681.98 146.24 M1543.97 303.25 C1598.67 240.25, 1652.75 177.47, 1679.98 146.12 M1548.13 300.95 C1586.78 260.55, 1621.47 217.62, 1681.39 153.47 M1549.6 301.21 C1584.25 264.31, 1616.93 225.64, 1680.93 152.96 M1556.67 303.82 C1597.95 249.86, 1645.2 197.24, 1679.19 159.43 M1554.57 303.03 C1602 249.02, 1647.3 195.93, 1681.03 159.14 M1561.35 302.03 C1599.09 257.3, 1637.86 211.77, 1680.7 164.67 M1560.49 301.11 C1598.3 256.61, 1636.21 213.51, 1680.26 164.26 M1566.77 303.33 C1598.11 264.54, 1632.03 225.15, 1681.21 170 M1564.72 302.33 C1595.19 267.36, 1626.81 231.91, 1680.01 171.59 M1571.97 303.46 C1594.13 276.28, 1620.07 249.88, 1678.66 177.36 M1570.9 302.22 C1610.65 255.78, 1651.38 209.22, 1679.4 177.52 M1575.45 302.87 C1601.53 274.86, 1624.06 245.73, 1679.9 184.88 M1576.04 302.23 C1601.61 272.08, 1626.93 242.27, 1680.69 183.99 M1580.73 301.34 C1612.32 268.35, 1639.3 232.77, 1679.64 188.21 M1581.12 301.78 C1604.41 275.86, 1625.33 250.68, 1680.19 188.32 M1585.44 302.74 C1614.83 271.05, 1644.43 233.9, 1679.49 195.26 M1586.18 301.5 C1611.66 272.04, 1637.63 243.31, 1680.37 195.43 M1590.86 301.69 C1623.54 267.7, 1651.02 231.96, 1678.87 199.63 M1592.93 301.31 C1627.87 263.78, 1660.81 225.15, 1680.8 201.73 M1599 304.23 C1628.78 264.98, 1661.77 228.66, 1681.37 207.52 M1597.81 301.66 C1626.42 269.9, 1652.53 238.39, 1679.5 207.51 M1602.14 302.53 C1617.79 284.43, 1636.47 266.5, 1679.08 214.72 M1602.6 301.59 C1618.88 282.62, 1636.79 262.19, 1679.36 214.36 M1607.93 303.57 C1621.41 287.13, 1637.63 270.86, 1681.48 218 M1607.54 302 C1627.95 280.62, 1646.97 257.6, 1680.03 220.08 M1612.89 299.83 C1634.43 276.49, 1658.27 252.4, 1680.56 223.83 M1613.87 301.67 C1638.95 272.78, 1665.3 242.02, 1681.03 225.82 M1619.55 301.98 C1643.61 274.11, 1667.49 247.79, 1679.64 231.79 M1618.99 302.56 C1637.12 278.97, 1656.94 258.56, 1679.71 231.02 M1625.95 301.55 C1640.41 285.27, 1656.58 265.65, 1681.8 239.52 M1624.97 301.86 C1645.38 275.28, 1669.01 250.69, 1679.58 236.75 M1630.73 303.64 C1645.45 283.73, 1656.76 267.69, 1680.15 245.67 M1629.75 301.18 C1647.07 281.84, 1665.75 259.8, 1679.75 244.21 M1634.69 301.59 C1653.64 283.37, 1668.43 263.21, 1680.81 251.3 M1635.62 302.73 C1646.68 288.41, 1659.12 273.48, 1679.79 250.55 M1641.84 301.69 C1653.83 285.72, 1665.22 269.99, 1681.89 254.64 M1640.41 302.44 C1652.62 288.59, 1663.61 274.74, 1679.89 257.07 M1645.01 301.84 C1657.7 287.69, 1668.22 276.6, 1680.48 264.43 M1646.02 302.13 C1654.32 290.34, 1664.78 281.57, 1679.76 263.12 M1650.83 300.26 C1659.77 292.86, 1666.26 285.89, 1678.93 266.94 M1651.54 302.68 C1658.43 292.24, 1666.46 284.48, 1680.01 268.51 M1656.7 302.91 C1664.19 294.06, 1671.46 286.62, 1681.21 274.87 M1655.2 302.92 C1664.57 292.75, 1673.82 282.29, 1680.53 274.9 M1663.12 300.43 C1669.2 294.02, 1673.81 289.69, 1681.84 278.77 M1660.69 303.03 C1664.98 297.88, 1669.78 292.16, 1680.45 280.71 M1668.03 303.11 C1672.37 296.77, 1676.52 291.69, 1678.93 287.78 M1666.63 302.97 C1671.07 296.65, 1677.28 290.83, 1679.18 286.32 M1673.02 302.16 C1673.74 300.08, 1675 297.31, 1679.41 293 M1671.64 302.22 C1674.63 298.58, 1678 296.12, 1680.18 292.92 M1677.2 302.02 C1677.43 301.37, 1678.7 299.98, 1680.64 299.09 M1677.06 302.44 C1677.95 301.58, 1678.66 300.45, 1680.29 298.41" stroke="#ced4da" stroke-width="0.5" fill="none"></path><path d="M-0.58 0.57 C484.72 1.43, 968.57 2.02, 1679.99 -0.18 M-0.06 0.01 C593.79 -3.51, 1188.65 -4.08, 1679.65 -0.26 M1680.88 1.27 C1678.57 117.48, 1679.77 234.19, 1681.02 299.71 M1679.5 -0.45 C1680.53 106.41, 1679.62 214.19, 1679.96 300.42 M1679.64 299.37 C1327.45 304.92, 973.96 304.31, 0.54 300.1 M1679.8 300.01 C1052.37 300.64, 423.95 300.59, 0.11 299.73 M-0.84 301.29 C-0.26 230.09, -0.6 162.39, 0.06 0.12 M0.02 300.35 C1.11 201.1, 1.28 103.35, 0.29 -0.55" stroke="#000000" stroke-width="1" fill="none"></path></g><g transform="translate(708.3237571033358 19.500229083733643) rotate(0 170.2498779296876 12.5)"><text x="0" y="0" font-family="Virgil, Segoe UI Emoji" font-size="20px" fill="#000000" text-anchor="start" style="white-space: pre;" direction="ltr" dominant-baseline="text-before-edge">Lexing - Parsing - AST Generation</text></g></svg>